<svg height="682.66669pt" viewBox="-21 -21 682.66669 682.66669" width="682.66669pt" xmlns="http://www.w3.org/2000/svg"><path d="m320 112.5c-113.628906 0-207.5 93.871094-207.5 207.5 0 113.625 93.871094 207.5 207.5 207.5s207.5-93.875 207.5-207.5c0-113.628906-93.871094-207.5-207.5-207.5zm0 0" fill="#7ed8f6"/><path d="m527.5 320c0 113.625-93.871094 207.5-207.5 207.5v-415c113.628906 0 207.5 93.871094 207.5 207.5zm0 0" fill="#6aa9ff"/><path d="m490 320c0 93-77 170-170 170s-170-77-170-170c0-93.003906 77-170 170-170s170 76.996094 170 170zm0 0" fill="#f2f6fc"/><path d="m490 320c0 93-77 170-170 170v-340c93 0 170 76.996094 170 170zm0 0" fill="#dce1eb"/><path d="m640 320c0 71.996094-24.75 144.125-70.125 200.375l-29.25-23.25c40.5-50.625 61.875-112.628906 61.875-177.125 0-155.25-127.25-282.5-282.5-282.5s-282.5 127.25-282.5 282.5 127.25 282.5 282.5 282.5c49.5 0 97.875-13.125 140.625-37.875l20 32.625c-48.375 28.125-104.75 42.75-160.625 42.75-175.875 0-320-144.125-320-320s144.125-320 320-320 320 144.125 320 320zm0 0" fill="#ff9100"/><path d="m451.25 301.25v37.5h-150v-151.25h37.5v113.75zm0 0" fill="#575f64"/><path d="m460.625 564.625 20 32.625c-48.375 28.125-104.75 42.75-160.625 42.75v-37.5c49.5 0 97.875-13.125 140.625-37.875zm0 0" fill="#ff641a"/><path d="m640 320c0 71.996094-24.75 144.125-70.125 200.375l-29.25-23.25c40.5-50.625 61.875-112.628906 61.875-177.125 0-155.25-127.25-282.5-282.5-282.5v-37.5c175.875 0 320 144.125 320 320zm0 0" fill="#ff641a"/><path d="m451.25 301.25v37.5h-131.25v-151.25h18.75v113.75zm0 0" fill="#32393f"/><path d="m640 527.5h-112.5v-112.5h37.5v75h75zm0 0" fill="#ff641a"/></svg>