<svg height="512pt" viewBox="0 -9 512 512" width="512pt" xmlns="http://www.w3.org/2000/svg"><path d="m17.5 486.0625c-5.5 0-10-4.5-10-10v-458.5625c0-5.5 4.5-10 10-10h477c5.5 0 10 4.5 10 10v458.5625c0 5.5-4.5 10-10 10zm0 0" fill="#def9ff"/><path d="m479.007812 373.921875c0 2.75-2.25 5-5 5h-436.015624c-2.75 0-5-2.25-5-5v-335.914063c0-2.75 2.25-5 5-5h436.015624c2.75 0 5 2.25 5 5zm0 0" fill="#ffcb00"/><path d="m479.007812 373.921875c0 2.75-2.25 5-5 5h-436.015624c-2.75 0-5-2.25-5-5v-335.914063c0-2.75 2.25-5 5-5h436.015624c2.75 0 5 2.25 5 5zm0 0" fill="#ffcb00"/><path d="m147.796875 317.84375c-5.082031 2.101562-9.242187-.679688-9.242187-6.179688v-25.8125c0-3.5625 1.75-5.972656 4.359374-6.664062v-12.289062h-9.835937c-2.167969 0-4.488281 1.691406-5.152344 3.753906l-2.363281 7.347656h-35.78125c-19.722656 0-35.769531 15.976562-35.769531 35.613281v65.308594h112.5625l-12.84375-63.53125zm0 0" fill="#0052ac"/><path d="m274.175781 278h-35.4375l-2.316406-7.339844c-.652344-2.066406-2.960937-3.761718-5.132813-3.761718h-10.246093v12.289062c2.609375.691406 4.355469 3.101562 4.355469 6.664062v25.8125c0 5.5-4.15625 8.28125-9.238282 6.179688l-5.933594-2.457031-12.84375 63.535156h78.445313v-37.203125c0-19.621094 13.59375-36.113281 31.851563-40.566406-5.085938-13.507813-18.183594-23.152344-33.503907-23.152344zm0 0" fill="#0052ac"/><path d="m98.632812 163.792969h10.941407v-8.851563c0-39.707031 32.417969-54.523437 72.40625-54.523437 39.984375 0 72.402343 14.8125 72.402343 54.523437v8.851563h10.941407c.582031 0 1.152343.046875 1.714843.117187v-60.554687c0-16.566407-13.484374-30-30.125-30h-3.855468c-5.210938 0-10.113282 1.320312-14.386719 3.636719-6.378906-13.621094-20.246094-23.0625-36.332031-23.0625h-45.347656c-22.132813 0-40.074219 17.867187-40.074219 39.910156v70.070312c.5625-.070312 1.132812-.117187 1.714843-.117187zm0 0" fill="#383838"/><path d="m40.492188 40.507812v330.914063h6.023437v-57.8125c0-8.960937 2.757813-17.289063 7.472656-24.191406v-248.910157zm0 0" fill="#ffaf10"/><path d="m110.765625 278h-20.984375c-19.722656 0-35.769531 15.976562-35.769531 35.613281v65.308594h20.988281v-65.308594c0-19.636719 16.046875-35.613281 35.765625-35.613281zm0 0" fill="#003c72"/><path d="m147.796875 317.84375c-5.082031 2.101562-9.242187-.679688-9.242187-6.179688v-25.8125c0-3.5625 1.75-5.972656 4.359374-6.664062v-12.289062h-9.835937c-2.167969 0-4.488281 1.691406-5.152344 3.753906l-19.667969 61.132812c-.664062 2.066406.375 4.554688 2.3125 5.53125l16.449219 8.289063c1.9375.980469 1.980469 2.652343.09375 3.722656l-21.367187 12.144531c-1.886719 1.074219-2.519532 3.476563-1.410156 5.339844l7.210937 12.109375h55.027344l-12.84375-63.53125zm0 0" fill="#0079f1"/><path d="m258.210938 361.472656-21.367188-12.144531c-1.886719-1.070313-1.84375-2.746094.09375-3.722656l16.445312-8.289063c1.9375-.976562 2.988282-3.46875 2.335938-5.535156l-19.296875-61.121094c-.652344-2.070312-2.960937-3.761718-5.132813-3.761718h-10.246093v12.289062c2.609375.691406 4.355469 3.101562 4.355469 6.664062v25.8125c0 5.5-4.15625 8.28125-9.238282 6.179688l-5.933594-2.457031-12.84375 63.535156h55.023438l7.214844-12.113281c1.109375-1.859375.472656-4.261719-1.410156-5.335938zm0 0" fill="#0079f1"/><path d="m191.542969 307.65625c-.914063 1.226562-2.359375 2.035156-3.996094 2.035156h-11.421875c-1.597656 0-3.007812-.773437-3.925781-1.945312l-18.46875 7.644531 12.84375 63.53125h30.808593l12.84375-63.53125zm0 0" fill="#fff"/><path d="m147.796875 279.675781 24.40625 10.097657c.917969-1.175782 2.328125-1.945313 3.921875-1.945313h11.421875c1.636719 0 3.082031.808594 3.996094 2.03125l24.617187-10.183594c1.789063-.742187 3.460938-.863281 4.882813-.488281v-25.953125c-9.097657 4.957031-19.53125 7.777344-30.628907 7.777344h-16.867187c-11.101563 0-21.535156-2.820313-30.632813-7.777344v25.953125c1.421876-.378906 3.089844-.253906 4.882813.488281zm0 0" fill="#fff"/><path d="m98.632812 163.792969h10.941407v-8.851563c0-11.78125 2.871093-21.351562 7.929687-29.015625v-32.085937c0-22.042969 17.941406-39.910156 40.074219-39.910156h-20.585937c-22.132813 0-40.074219 17.867187-40.074219 39.910156v70.070312c.5625-.070312 1.132812-.117187 1.714843-.117187zm0 0" fill="#282828"/><g fill="#ffe2b8"><path d="m182.941406 287.828125 20.253906-28.09375c-4.132812.835937-8.40625 1.277344-12.78125 1.277344h-16.867187c-4.378906 0-8.652344-.441407-12.78125-1.277344l20.253906 28.09375zm0 0"/><path d="m265.324219 163.792969h-10.941407v33.441406c0 3.296875-.25 6.535156-.734374 9.695313h11.675781c7.449219 0 13.480469-6.015626 13.480469-13.433594v-16.265625c0-7.421875-6.03125-13.4375-13.480469-13.4375zm0 0"/><path d="m109.574219 197.234375v-33.441406h-10.941407c-7.445312 0-13.480468 6.015625-13.480468 13.4375v16.265625c0 7.417968 6.035156 13.4375 13.480468 13.4375h11.675782c-.484375-3.164063-.734375-6.402344-.734375-9.699219zm0 0"/><path d="m181.980469 100.417969c-39.988281 0-72.40625 14.8125-72.40625 54.523437v42.296875c0 35.21875 28.640625 63.773438 63.972656 63.773438h16.867187c35.328126 0 63.96875-28.554688 63.96875-63.773438v-42.296875c0-39.710937-32.417968-54.523437-72.402343-54.523437zm0 0"/></g><path d="m130.191406 197.234375v-42.292969c0-36.234375 26.992188-51.730468 62.097656-54.171875-3.371093-.230469-6.808593-.351562-10.308593-.351562-39.988281 0-72.40625 14.8125-72.40625 54.523437v42.296875c0 35.21875 28.640625 63.773438 63.972656 63.773438h16.867187c.628907 0 1.25-.03125 1.875-.046875-34.460937-.992188-62.097656-29.136719-62.097656-63.730469zm0 0" fill="#ffc987"/><path d="m171.125 304.691406v-11.863281c0-1.152344.414062-2.207031 1.078125-3.058594l-24.40625-10.09375c-5.082031-2.105469-9.242187.675781-9.242187 6.175781v25.8125c0 5.5 4.160156 8.28125 9.242187 6.179688l24.40625-10.097656c-.664063-.847656-1.078125-1.902344-1.078125-3.054688zm0 0" fill="#00cca5"/><path d="m216.160156 279.675781-24.617187 10.183594c.621093.835937 1.003906 1.855469 1.003906 2.96875v11.863281c0 1.113282-.382813 2.132813-1.003906 2.96875l24.617187 10.183594c5.082032 2.101562 9.242188-.675781 9.242188-6.175781v-25.816407c-.003906-5.5-4.160156-8.28125-9.242188-6.175781zm0 0" fill="#00cca5"/><path d="m150.15625 311.667969v-25.816407c0-1.90625.503906-3.472656 1.367188-4.632812l-3.726563-1.542969c-5.082031-2.105469-9.242187.675781-9.242187 6.175781v25.8125c0 5.5 4.160156 8.28125 9.242187 6.179688l3.726563-1.542969c-.859376-1.164062-1.367188-2.730469-1.367188-4.632812zm0 0" fill="#02af8e"/><path d="m192.546875 304.691406c0 2.75-2.25 5-5 5h-11.421875c-2.75 0-5-2.25-5-5v-11.863281c0-2.75 2.25-5 5-5h11.421875c2.75 0 5 2.25 5 5zm0 0" fill="#02af8e"/><path d="m366.90625 99.867188c15.246094 0 29.5 3.007812 41.644531 8.738281-.660156-22.453125-19.042969-40.457031-41.644531-40.457031-22.597656 0-40.980469 18.003906-41.640625 40.457031 12.140625-5.730469 26.394531-8.738281 41.640625-8.738281zm0 0" fill="#b57a4e"/><path d="m346.804688 101.714844c3.109374-15.746094 15.074218-28.304688 30.484374-32.261719-3.316406-.851563-6.796874-1.304687-10.382812-1.304687-22.597656 0-40.980469 18.003906-41.640625 40.457031 6.613281-3.121094 13.851563-5.433594 21.539063-6.890625zm0 0" fill="#9b5729"/><path d="m416.261719 299.960938h-28.460938c-2.214843 0-4.015625-1.800782-4.015625-4.015626v-10.769531c-2.953125.453125-5.976562.6875-9.054687.6875h-15.644531c-3.078126 0-6.105469-.234375-9.058594-.6875v10.769531c0 2.214844-1.796875 4.015626-4.007813 4.015626h-28.464843c-23.007813 0-41.726563 18.730468-41.726563 41.757812v37.203125h182.15625v-37.203125c0-23.027344-18.714844-41.757812-41.722656-41.757812zm0 0" fill="#ffe2b8"/><path d="m366.90625 353.300781c-7.257812-7.777343-17.589844-12.644531-29.0625-12.644531-21.453125 0-38.929688 16.996094-39.730469 38.265625h137.589844c-.804687-21.269531-18.28125-38.265625-39.730469-38.265625-11.476562 0-21.808594 4.867188-29.066406 12.644531zm0 0" fill="#ff99a3"/><path d="m348.300781 342.050781c-3.332031-.90625-6.835937-1.394531-10.457031-1.394531-21.449219 0-38.925781 16.996094-39.730469 38.265625h20.886719c.667969-17.6875 12.871094-32.410156 29.300781-36.871094zm0 0" fill="#f66"/><path d="m313.574219 307.699219c-17.003907 1.980469-30.246094 16.476562-30.246094 34.019531v29.703125h8.113281c.882813-4.636719 2.445313-9.015625 4.558594-13.042969v-16.660156c0-14.023438 6.949219-26.441406 17.574219-34.019531zm0 0" fill="#ffc987"/><path d="m289.925781 195.734375h9.828125v-13.703125c0-2.058594 1.667969-3.730469 3.726563-3.730469h52.992187c9.667969 0 18.886719-5.128906 24.046875-13.390625.683594-1.089844 1.878907-1.753906 3.164063-1.753906s2.476562.664062 3.15625 1.753906c5.167968 8.261719 14.386718 13.390625 24.054687 13.390625h19.441407c2.058593 0 3.726562 1.671875 3.726562 3.730469v13.703125h9.824219c1.136719 0 2.230469.164063 3.273437.445313v-27.039063c0-43.863281-35.929687-69.273437-80.253906-69.273437s-80.257812 25.410156-80.257812 69.273437v27.039063c1.046874-.28125 2.140624-.445313 3.277343-.445313zm0 0" fill="#b57a4e"/><path d="m289.925781 195.734375h9.828125v-13.703125c0-2.058594 1.667969-3.730469 3.726563-3.730469h4.007812v-9.160156c0-40.363281 30.441407-65.085937 69.839844-68.773437-3.414063-.316407-6.886719-.5-10.421875-.5-44.320312 0-80.253906 25.414062-80.253906 69.273437v27.039063c1.042968-.28125 2.136718-.445313 3.273437-.445313zm0 0" fill="#9b5729"/><path d="m299.753906 226.714844v-30.980469h-9.828125c-6.875 0-12.449219 5.519531-12.449219 12.324219v14.914062c0 6.808594 5.574219 12.324219 12.449219 12.324219h10.460938c-.410157-2.804687-.632813-5.667969-.632813-8.582031zm0 0" fill="#ffe2b8"/><path d="m443.890625 195.734375h-9.828125v30.980469c0 2.914062-.222656 5.777344-.632812 8.582031h10.460937c6.875 0 12.449219-5.515625 12.449219-12.320313v-14.917968c0-6.804688-5.574219-12.324219-12.449219-12.324219zm0 0" fill="#ffe2b8"/><path d="m359.085938 285.863281c-32.714844 0-59.332032-26.535156-59.332032-59.148437v-44.683594c0-2.058594 1.667969-3.730469 3.726563-3.730469h52.992187c9.667969 0 18.886719-5.128906 24.046875-13.390625.683594-1.089844 1.878907-1.753906 3.164063-1.753906s2.476562.664062 3.15625 1.753906c5.167968 8.261719 14.386718 13.390625 24.054687 13.390625h19.441407c2.058593 0 3.726562 1.671875 3.726562 3.730469v44.683594c0 32.613281-26.617188 59.148437-59.332031 59.148437zm0 0" fill="#ffe2b8"/><path d="m320.691406 226.714844v-44.683594c0-2.058594 1.667969-3.730469 3.726563-3.730469h-20.9375c-2.058594 0-3.726563 1.671875-3.726563 3.730469v44.683594c0 32.613281 26.617188 59.148437 59.332032 59.148437h15.644531c.886719 0 1.769531-.027343 2.648437-.066406-31.488281-1.386719-56.6875-27.351563-56.6875-59.082031zm0 0" fill="#ffc987"/><path d="m366.910156 267.207031c-12.722656 0-23.074218-10.296875-23.074218-22.945312 0-2.402344 1.964843-4.359375 4.382812-4.359375h37.382812c2.414063 0 4.378907 1.957031 4.378907 4.359375 0 12.648437-10.347657 22.945312-23.070313 22.945312zm0 0" fill="#ffa05f"/><path d="m447.945312 456.78125c-.800781 0-1.550781-.304688-2.113281-.863281l-24.496093-24.058594c-2.871094-2.816406-4.449219-6.558594-4.449219-10.542969 0-3.980468 1.578125-7.722656 4.449219-10.539062 2.863281-2.816406 6.675781-4.367188 10.730468-4.367188 4.054688 0 7.867188 1.550782 10.738282 4.367188l5.140624 5.046875 5.144532-5.046875c2.871094-2.816406 6.679687-4.367188 10.734375-4.367188 4.054687 0 7.867187 1.550782 10.734375 4.367188 2.867187 2.816406 4.445312 6.558594 4.445312 10.539062 0 3.984375-1.578125 7.730469-4.445312 10.542969l-24.496094 24.058594c-.566406.558593-1.320312.863281-2.117188.863281zm0 0" fill="#e62937"/><path d="m458.261719 447.605469-24.496094-24.058594c-2.871094-2.820313-4.449219-6.5625-4.449219-10.542969 0-2.308594.542969-4.527344 1.546875-6.535156-3.601562.273438-6.949219 1.773438-9.527343 4.308594-2.871094 2.816406-4.449219 6.558594-4.449219 10.539062 0 3.984375 1.578125 7.726563 4.449219 10.542969l24.496093 24.058594c.566407.558593 1.316407.863281 2.117188.863281.796875 0 1.546875-.304688 2.113281-.863281l8.34375-8.195313c-.046875-.042968-.101562-.074218-.144531-.117187zm0 0" fill="#b7092b"/><path d="m494.5 0h-477c-9.648438 0-17.5 7.851562-17.5 17.5v458.5625c0 9.648438 7.851562 17.5 17.5 17.5h477c9.648438 0 17.5-7.851562 17.5-17.5v-458.5625c0-9.648438-7.851562-17.5-17.5-17.5zm2.5 476.0625c0 1.355469-1.144531 2.5-2.5 2.5h-477c-1.355469 0-2.5-1.144531-2.5-2.5v-458.5625c0-1.355469 1.144531-2.5 2.5-2.5h477c1.355469 0 2.5 1.144531 2.5 2.5zm0 0"/><path d="m168.730469 190.824219c0 6.21875 5.066406 11.277343 11.296875 11.277343h8.140625c4.144531 0 7.5-3.355468 7.5-7.5 0-4.140624-3.355469-7.5-7.5-7.5h-4.4375v-15.519531c0-4.144531-3.359375-7.5-7.5-7.5s-7.5 3.355469-7.5 7.5zm0 0"/><path d="m153.375 168.453125c0-4.140625-3.355469-7.5-7.5-7.5-4.140625 0-7.5 3.359375-7.5 7.5v13.664063c0 4.144531 3.359375 7.5 7.5 7.5 4.144531 0 7.5-3.355469 7.5-7.5zm0 0"/><path d="m156.308594 158.894531c1.464844 1.457031 3.378906 2.183594 5.292968 2.183594 1.925782 0 3.847657-.734375 5.3125-2.207031 2.925782-2.933594 2.914063-7.683594-.019531-10.605469-11.585937-11.539063-30.445312-11.539063-42.035156 0-2.933594 2.921875-2.945313 7.671875-.019531 10.605469 2.921875 2.933594 7.671875 2.945312 10.605468.023437 5.75-5.730469 15.113282-5.730469 20.863282 0zm0 0"/><path d="m218.078125 160.953125c-4.140625 0-7.5 3.359375-7.5 7.5v13.664063c0 4.144531 3.359375 7.5 7.5 7.5s7.5-3.355469 7.5-7.5v-13.664063c0-4.140625-3.359375-7.5-7.5-7.5zm0 0"/><path d="m207.644531 158.894531c5.753907-5.730469 15.113281-5.730469 20.867188 0 1.464843 1.457031 3.378906 2.183594 5.292969 2.183594 1.925781 0 3.847656-.734375 5.3125-2.207031 2.921874-2.9375 2.914062-7.683594-.019532-10.605469-11.589844-11.539063-30.445312-11.539063-42.039062 0-2.933594 2.921875-2.945313 7.671875-.023438 10.605469 2.925782 2.933594 7.675782 2.945312 10.609375.023437zm0 0"/><path d="m210.019531 224.855469c2.925781-2.929688 2.925781-7.679688-.003906-10.605469-2.929687-2.929688-7.679687-2.929688-10.609375.003906-4.652344 4.65625-10.84375 7.222656-17.425781 7.222656-6.585938 0-12.773438-2.566406-17.429688-7.222656-2.929687-2.929687-7.675781-2.933594-10.605469-.007812-2.929687 2.929687-2.933593 7.679687-.003906 10.609375 7.488282 7.492187 17.445313 11.621093 28.039063 11.621093 10.589843 0 20.546875-4.128906 28.039062-11.621093zm0 0"/><path d="m340.222656 212.445312v-12.9375c0-4.144531-3.359375-7.5-7.5-7.5-4.144531 0-7.5 3.355469-7.5 7.5v12.9375c0 4.144532 3.355469 7.5 7.5 7.5 4.140625 0 7.5-3.355468 7.5-7.5zm0 0"/><path d="m401.089844 192.007812c-4.140625 0-7.5 3.355469-7.5 7.5v12.9375c0 4.144532 3.359375 7.5 7.5 7.5 4.144531 0 7.5-3.355468 7.5-7.5v-12.9375c0-4.144531-3.355469-7.5-7.5-7.5zm0 0"/><path d="m364.941406 227.878906h7.375c4.140625 0 7.5-3.359375 7.5-7.5 0-4.144531-3.359375-7.5-7.5-7.5h-3.3125v-8.125c0-4.144531-3.359375-7.5-7.5-7.5-4.144531 0-7.5 3.355469-7.5 7.5v12.207032c0 6.019531 4.902344 10.917968 10.9375 10.917968zm0 0"/><path d="m385.601562 232.402344h-37.382812c-6.554688 0-11.882812 5.320312-11.882812 11.855468 0 16.789063 13.714843 30.449219 30.574218 30.449219 16.855469 0 30.570313-13.660156 30.570313-30.449219 0-6.535156-5.328125-11.855468-11.878907-11.855468zm-18.691406 27.304687c-7.503906 0-13.785156-5.285156-15.253906-12.304687h30.5c-1.464844 7.019531-7.746094 12.304687-15.246094 12.304687zm0 0"/><path d="m125 426.28125h-82c-4.140625 0-7.5 3.355469-7.5 7.5s3.359375 7.5 7.5 7.5h82c4.140625 0 7.5-3.355469 7.5-7.5s-3.359375-7.5-7.5-7.5zm0 0"/><path d="m165.660156 426.28125h-17.15625c-4.144531 0-7.5 3.355469-7.5 7.5s3.355469 7.5 7.5 7.5h17.15625c4.144532 0 7.5-3.355469 7.5-7.5s-3.355468-7.5-7.5-7.5zm0 0"/><path d="m463.824219 398.910156c-5.976563 0-11.609375 2.273438-15.878907 6.40625-4.269531-4.132812-9.898437-6.40625-15.878906-6.40625-6.035156 0-11.714844 2.316406-15.980468 6.515625-4.320313 4.230469-6.699219 9.878907-6.699219 15.894531 0 6.007813 2.375 11.652344 6.691406 15.894532l24.484375 24.046875c1.976562 1.949219 4.601562 3.019531 7.382812 3.019531 2.785157 0 5.40625-1.070312 7.371094-3.011719l24.5-24.058593c4.3125-4.238282 6.6875-9.882813 6.6875-15.894532 0-6.011718-2.375-11.652344-6.6875-15.886718-4.28125-4.203126-9.960937-6.519532-15.992187-6.519532zm5.480469 27.597656-21.359376 20.976563-21.355468-20.976563c-1.441406-1.414062-2.203125-3.210937-2.203125-5.191406 0-1.976562.761719-3.769531 2.207031-5.1875 1.453125-1.433594 3.398438-2.21875 5.476562-2.21875 2.074219 0 4.023438.789063 5.484376 2.222656l5.140624 5.046876c2.917969 2.859374 7.589844 2.859374 10.507813 0l5.140625-5.046876c1.460938-1.433593 3.40625-2.222656 5.480469-2.222656 2.078125 0 4.023437.789063 5.484375 2.222656 1.4375 1.410157 2.199218 3.203126 2.199218 5.183594 0 1.984375-.765624 3.78125-2.203124 5.191406zm0 0"/><path d="m474.007812 25.507812h-369.007812c-4.140625 0-7.5 3.359376-7.5 7.5 0 4.144532 3.359375 7.5 7.5 7.5h366.507812v330.914063h-6.023437v-29.703125c0-27.164062-22.082031-49.257812-49.226563-49.257812h-24.972656v-1.175782c23.710938-6.050781 42.382813-24.777344 48.296875-48.488281h4.304688c11.003906 0 19.953125-8.894531 19.953125-19.824219v-14.914062c0-6.988282-3.667969-13.128906-9.179688-16.65625v-22.261719c0-28.921875-14.789062-52.242187-38.960937-65.304687-2.976563-24.300782-23.714844-43.1875-48.792969-43.1875s-45.8125 18.882812-48.792969 43.179687c-22.09375 11.941406-36.339843 32.46875-38.621093 58.003906-1.476563-1.351562-3.140626-2.492187-4.953126-3.386719v-55.089843c0-20.679688-16.878906-37.5-37.625-37.5h-3.859374c-3.878907 0-7.621094.605469-11.144532 1.699219-8.539062-12.726563-23.089844-21.128907-39.570312-21.128907h-45.351563c-26.230469 0-47.574219 21.269531-47.574219 47.410157v64.609374c-6.953124 3.414063-11.761718 10.539063-11.761718 18.78125v16.265626c0 11.546874 9.410156 20.9375 20.976562 20.9375h5.5625c4.496094 18.027343 15.894532 33.355468 31.222656 43.042968v1.921875h-2.335937c-5.453125 0-10.621094 3.769531-12.292969 8.960938l-.6875 2.140625h-30.316406c-23.859375 0-43.269531 19.34375-43.269531 43.113281v57.808594h-6.019531v-330.910157h28.507812c4.140625 0 7.5-3.355468 7.5-7.5 0-4.140624-3.359375-7.5-7.5-7.5h-31.007812c-6.890626 0-12.5 5.609376-12.5 12.5v335.914063c0 6.890625 5.609374 12.5 12.5 12.5h344.007812c4.144531 0 7.5-3.359375 7.5-7.5 0-4.144531-3.355469-7.5-7.5-7.5h-75.140625c3.882813-13.523437 16.265625-23.265625 30.984375-23.265625 9.027344 0 17.402344 3.644531 23.582031 10.261719 1.417969 1.519531 3.402344 2.382812 5.480469 2.382812s4.0625-.863281 5.480469-2.382812c6.179687-6.617188 14.554687-10.261719 23.582031-10.261719 14.71875 0 27.101562 9.742188 30.984375 23.265625h-9.953125c-4.144531 0-7.5 3.355469-7.5 7.5 0 4.140625 3.355469 7.5 7.5 7.5h57.007812c6.890626 0 12.5-5.609375 12.5-12.5v-335.914063c0-6.890624-5.609374-12.5-12.5-12.5zm-375.375 173.921876c-3.296874 0-5.980468-2.660157-5.980468-5.933594v-16.265625c0-3.277344 2.683594-5.941407 5.980468-5.941407h3.441407v25.945313c0 .738281.035156 1.464844.058593 2.195313zm327.929688 27.285156c0 28.480468-23.25 51.648437-51.832031 51.648437h-15.644531c-28.582032 0-51.832032-23.167969-51.832032-51.648437v-40.914063h49.21875c10.433594 0 20.445313-4.714843 27.210938-12.574219 6.765625 7.859376 16.777344 12.574219 27.210937 12.574219h15.667969zm-46.8125 85.515625c-1.75-1.980469-4.5-2.980469-7.261719-2.359375-2.769531.609375-4.839843 2.691406-5.578125 5.230468-.738281-2.539062-2.8125-4.621093-5.582031-5.230468-2.769531-.621094-5.507813.378906-7.257813 2.359375.359376-2.304688-.375-4.726563-2.09375-6.453125 3.320313-2.019532 5.550782-5.667969 5.550782-9.832032v-2.613281c.519531.011719 1.035156.03125 1.558594.03125h15.644531c.523437 0 1.035156-.019531 1.554687-.03125v2.613281c0 4.164063 2.230469 7.808594 5.550782 9.828126-1.722657 1.730468-2.457032 4.152343-2.085938 6.457031zm61.8125-85.515625v-23.480469h2.324219c2.730469 0 4.953125 2.164063 4.953125 4.824219v14.914062c0 2.660156-2.222656 4.824219-4.953125 4.824219h-2.351563c.003906-.363281.027344-.71875.027344-1.082031zm-74.65625-151.066406c14.203125 0 26.398438 8.722656 31.546875 21.09375-9.621094-2.851563-20.207031-4.375-31.546875-4.375-11.347656 0-21.929688 1.542968-31.554688 4.398437 5.140626-12.382813 17.34375-21.117187 31.554688-21.117187zm-72.753906 93.492187c0-30.746094 22.496094-61.773437 72.753906-61.773437s72.757812 31.027343 72.757812 61.773437v6.652344c-2.019531-3.007813-5.445312-4.992188-9.328124-4.992188h-19.441407c-7.109375 0-13.886719-3.78125-17.691406-9.863281-2.0625-3.308594-5.621094-5.28125-9.519531-5.28125-3.898438 0-7.457032 1.972656-9.523438 5.277344-3.804687 6.085937-10.582031 9.867187-17.6875 9.867187h-52.992187c-3.882813 0-7.3125 1.984375-9.328125 4.992188zm-9.175782 38.917969c0-2.660156 2.21875-4.824219 4.949219-4.824219h2.328125v23.480469c0 .363281.019532.722656.027344 1.082031h-2.355469c-2.730469 0-4.949219-2.164063-4.949219-4.820313zm-23.09375-10.824219v-25.941406h3.441407c3.296875 0 5.980469 2.660156 5.980469 5.9375v16.265625c0 3.273437-2.683594 5.9375-5.980469 5.9375h-3.5c.023437-.734375.058593-1.460938.058593-2.199219zm3.441407 17.195313c1.601562 0 3.152343-.195313 4.652343-.535157v9.078125c0 10.933594 8.949219 19.824219 19.949219 19.824219h4.304688c5.914062 23.707031 24.585937 42.4375 48.296875 48.488281v1.175782h-24.972656c-1.867188 0-3.710938.113281-5.527344.316406-7.382813-13.269532-21.574219-22.277344-37.851563-22.277344h-29.941406l-.660156-2.101562c-1.648438-5.214844-6.816407-9-12.285157-9h-2.75v-1.925782c15.332032-9.683594 26.730469-25.011718 31.226563-43.042968zm-32.265625-133.574219h3.855468c12.476563 0 22.625 10.09375 22.625 22.5v33.550781c-4.28125-15.425781-14.390624-27.140625-29.625-34.585938v-8.480468c0-4.316406-.59375-8.488282-1.679687-12.464844 1.554687-.335938 3.167969-.519531 4.824219-.519531zm-128.640625 12.984375c0-17.871094 14.613281-32.410156 32.574219-32.410156h45.347656c17.960937 0 32.574218 14.539062 32.574218 32.410156v2.976562c-9.644531-2.5625-20.648437-3.898437-32.933593-3.898437-42.4375 0-69.734375 15.796875-77.5625 43.988281zm12.65625 103.394531v-42.292969c0-21.453125 11.261719-47.027344 64.90625-47.027344 53.640625 0 64.902343 25.574219 64.902343 47.027344v42.292969c0 31.03125-25.332031 56.277344-56.46875 56.277344h-16.867187c-31.140625 0-56.472656-25.246094-56.472656-56.277344zm82.972656 97.222656 17.851563-7.386719v23.375l-17.851563-7.386718zm-1.335937-15.679687 8.917968-12.371094c2.007813-.496094 3.976563-1.085938 5.914063-1.75v7.996094c-.082031.035156-.167969.058594-.25.089844zm-16.730469-2.441406-5.644531-7.824219h11.285156zm3.066406 18.992187v6.863281h-6.421875v-6.863281zm-34.382813-22.585937c-.085937-.03125-.167968-.054688-.25-.089844v-7.996094c1.9375.664062 3.90625 1.253906 5.914063 1.75l8.917969 12.371094zm12.960938 21.597656v8.839844l-17.570312 7.269531v-23.378907zm-47.8125 77.082031-3.132812-5.261719 18.140624-10.308594c3.328126-1.894531 5.265626-5.109374 5.175782-8.605468-.085938-3.496094-2.179688-6.609375-5.601563-8.335938l-14.242187-7.179687.855468-2.652344c1.269532-3.941406-.898437-8.167969-4.84375-9.4375-3.941406-1.261719-8.167968.898437-9.433593 4.84375l-1.613281 5.007813c-1.804688 5.621093.808593 11.863281 6.082031 14.523437l7.464843 3.765625-12.621093 7.171875c-2.679688 1.523437-4.585938 4-5.375 6.976563-.785157 2.976562-.351563 6.074218 1.226562 8.71875l.460938.773437h-36.839844v-57.808594c0-15.5 12.679687-28.109375 28.265625-28.109375h25.488281l-1.601562 4.980469c-1.269531 3.941406.898437 8.167969 4.84375 9.4375 3.941406 1.265625 8.167969-.898437 9.433593-4.84375l3.132813-9.730469c-.003906.167969-.019531.332032-.019531.503906v25.816407c0 8.332031 5.660156 14.378906 13.460937 14.378906 1.203125 0 2.414063-.167969 3.625-.460937l9.265625 45.835937zm75.433594 0h-18.535156l-10.40625-51.464844 9.015624-3.730469c1.480469.621094 3.105469.964844 4.804688.964844h11.421875c1.753906 0 3.425781-.367187 4.941406-1.023437l9.160157 3.789062zm56.898437 0h-41.59375l9.265625-45.835937c1.207032.292968 2.417969.460937 3.621094.460937 3.875 0 7.390625-1.550781 9.890625-4.363281 2.335937-2.628906 3.570313-6.089844 3.570313-10.015625v-25.816407c0-.578124-.027344-1.148437-.082032-1.699218l15.015625 47.5625-14.269531 7.195312c-3.421875 1.722656-5.515625 4.835938-5.601562 8.332032-.089844 3.496093 1.84375 6.710937 5.175781 8.605468l18.140625 10.3125zm20.183594-29.703125v29.703125h-2.722656l.460937-.773437c1.574219-2.648438 2.007813-5.746094 1.222656-8.722657-.785156-2.976562-2.695312-5.453125-5.375-6.972656l-12.621093-7.175781 7.46875-3.765625c5.257812-2.648438 7.882812-8.882813 6.109375-14.488281l-13.898438-44.023438h25.203125c9.339844 0 17.613281 4.539062 22.765625 11.503906-16.875 7.820313-28.613281 24.917969-28.613281 44.714844zm182.15625 29.703125h-8.109375c-4.195312-21.957031-23.351562-38.265625-46.402344-38.265625-10.554687 0-20.8125 3.585938-29.066406 10.015625-8.253906-6.429687-18.511719-10.015625-29.0625-10.015625-23.054688 0-42.207031 16.308594-46.402344 38.265625h-8.113281v-29.703125c0-18.890625 15.355469-34.257812 34.230469-34.257812h22.527344c-1.746094 3.179687-.976563 7.234374 1.984374 9.519531 3.148438 2.441406 7.628907 1.980469 10.21875-.96875-.617187 3.878906 1.890626 7.628906 5.78125 8.5 3.890626.859375 7.75-1.460938 8.839844-5.238281.929688 3.25 3.910156 5.417968 7.199219 5.417968.539063 0 1.078125-.058594 1.628906-.179687 3.890625-.871094 6.402344-4.621094 5.78125-8.5 2.589844 2.949219 7.078125 3.417969 10.230469.980469 2.949219-2.292969 3.71875-6.351563 1.972656-9.53125h22.535156c18.875 0 34.226563 15.367187 34.226563 34.257812zm0 0"/><path d="m189.480469 330.839844c0 4.144531-3.359375 7.5-7.5 7.5-4.144531 0-7.5-3.355469-7.5-7.5 0-4.140625 3.355469-7.5 7.5-7.5 4.140625 0 7.5 3.359375 7.5 7.5zm0 0"/><path d="m189.480469 359.800781c0 4.140625-3.359375 7.5-7.5 7.5-4.144531 0-7.5-3.359375-7.5-7.5 0-4.144531 3.355469-7.5 7.5-7.5 4.140625 0 7.5 3.355469 7.5 7.5zm0 0"/></svg>