<svg width="65" height="45" viewBox="0 0 65 45" fill="none" xmlns="http://www.w3.org/2000/svg">
<rect x="0.5" y="0.5" width="64" height="44" rx="2.5" stroke="#747576" stroke-linejoin="round" stroke-dasharray="5 2"/>
<path d="M37.839 13.1201C36.7289 13.1201 35.8258 14.0232 35.8258 15.1333C35.8258 16.2433 36.7289 17.1464 37.839 17.1464C38.949 17.1464 39.8522 16.2434 39.8522 15.1333C39.8522 14.0232 38.9491 13.1201 37.839 13.1201ZM37.839 16.3652C37.1597 16.3652 36.6071 15.8126 36.6071 15.1333C36.6071 14.454 37.1597 13.9014 37.839 13.9014C38.5183 13.9014 39.0709 14.454 39.0709 15.1333C39.0709 15.8125 38.5183 16.3652 37.839 16.3652Z" fill="#9B9C9D"/>
<path d="M37.8527 25.625C37.843 25.6012 37.8309 25.5785 37.8168 25.5574C37.8027 25.5359 37.7863 25.516 37.7684 25.498C37.7504 25.4801 37.7305 25.4637 37.709 25.4496C37.6879 25.4355 37.6652 25.4234 37.6414 25.4137C37.618 25.4039 37.5934 25.3961 37.5684 25.3914C37.518 25.3813 37.4664 25.3813 37.416 25.3914C37.391 25.3961 37.3664 25.4039 37.343 25.4137C37.3191 25.4234 37.2965 25.4355 37.2754 25.4496C37.2539 25.4637 37.234 25.4801 37.216 25.498C37.198 25.516 37.1816 25.5359 37.1676 25.5574C37.1535 25.5785 37.1414 25.6012 37.1316 25.625C37.1219 25.6484 37.1141 25.673 37.1094 25.698C37.1043 25.723 37.1016 25.7488 37.1016 25.7742C37.1016 25.7996 37.1043 25.8254 37.1094 25.8504C37.1141 25.8754 37.1219 25.9 37.1316 25.9234C37.1414 25.9473 37.1535 25.9699 37.1676 25.991C37.1816 26.0125 37.198 26.0324 37.216 26.0504C37.225 26.0593 37.2344 26.0679 37.2443 26.076C37.2542 26.0841 37.2646 26.0918 37.2754 26.0988C37.2965 26.1129 37.3191 26.125 37.343 26.1348C37.3664 26.1445 37.391 26.1523 37.416 26.157C37.441 26.1621 37.4668 26.1648 37.4922 26.1648C37.5176 26.1648 37.5434 26.1621 37.5684 26.157C37.5934 26.1523 37.618 26.1445 37.6414 26.1348C37.6652 26.125 37.6879 26.1129 37.709 26.0988C37.7198 26.0918 37.7302 26.0841 37.7401 26.076C37.75 26.0679 37.7594 26.0593 37.7684 26.0504C37.7863 26.0324 37.8027 26.0125 37.8168 25.991C37.8309 25.9699 37.843 25.9473 37.8527 25.9234C37.8625 25.9 37.8703 25.8754 37.8754 25.8504C37.8805 25.8254 37.8828 25.7996 37.8828 25.7742C37.8828 25.7488 37.8805 25.723 37.8754 25.698C37.8703 25.673 37.8625 25.6484 37.8527 25.625Z" fill="#9B9C9D"/>
<path d="M31.7051 10.166C31.6953 10.1426 31.6832 10.1199 31.6692 10.0984C31.6551 10.0773 31.6387 10.057 31.6207 10.0391C31.6027 10.0211 31.5828 10.0047 31.5613 9.99062C31.5402 9.97656 31.5176 9.96445 31.4938 9.95469C31.4703 9.94492 31.4457 9.9375 31.4207 9.93242C31.3703 9.92227 31.3188 9.92227 31.2684 9.93242C31.2434 9.9375 31.2188 9.94492 31.1949 9.95469C31.1715 9.96445 31.1488 9.97656 31.1277 9.99062C31.1063 10.0047 31.0863 10.0211 31.0684 10.0391C31.0504 10.057 31.034 10.0773 31.0195 10.0984C31.0055 10.1199 30.9938 10.1426 30.984 10.166C30.9742 10.1895 30.9664 10.2141 30.9617 10.2391C30.9567 10.2645 30.9539 10.2898 30.9539 10.3156C30.9539 10.341 30.9567 10.3664 30.9617 10.3918C30.9664 10.4168 30.9742 10.4414 30.984 10.4648C30.9938 10.4883 31.0055 10.5109 31.0195 10.5324C31.034 10.5535 31.0504 10.5738 31.0684 10.5918C31.0863 10.6098 31.1063 10.6262 31.1277 10.6402C31.1488 10.6543 31.1715 10.6664 31.1949 10.6762C31.2188 10.6859 31.2434 10.6934 31.2684 10.6984C31.2934 10.7035 31.3192 10.7062 31.3445 10.7062C31.3699 10.7062 31.3957 10.7035 31.4207 10.6984C31.4457 10.6934 31.4703 10.6859 31.4938 10.6762C31.5176 10.6664 31.5402 10.6543 31.5613 10.6402C31.5828 10.6262 31.6027 10.6098 31.6207 10.5918C31.6387 10.5738 31.6551 10.5535 31.6692 10.5324C31.6832 10.5109 31.6953 10.4883 31.7051 10.4648C31.7149 10.4414 31.7227 10.4168 31.7274 10.3918C31.7324 10.3664 31.7352 10.341 31.7352 10.3156C31.7352 10.2898 31.7324 10.2645 31.7274 10.2391C31.7227 10.2141 31.7149 10.1895 31.7051 10.166Z" fill="#9B9C9D"/>
<path d="M40.8175 9.92672C40.5833 8.93652 39.6925 8.19727 38.6317 8.19727H26.3757C24.5143 8.19723 23 9.71156 23 11.5729V23.8289C23 25.0462 23.9733 26.0397 25.1825 26.0738C25.4167 27.064 26.3075 27.8032 27.3683 27.8032H40.7535C41.9922 27.8032 43 26.7955 43 25.5568V22.6092V12.1715C43 10.9543 42.0267 9.96082 40.8175 9.92672ZM42.2188 25.5568C42.2188 26.3648 41.5614 27.0221 40.7535 27.0221H27.3683C26.7429 27.0221 26.208 26.6281 25.9982 26.0755C25.9369 25.9141 25.903 25.7394 25.903 25.5568V25.2942V23.4845L30.3845 15.8859C30.5209 15.6546 30.7643 15.5195 31.0312 15.5238C31.2998 15.5284 31.5368 15.6719 31.6652 15.9078L33.5947 19.4509L36.3995 24.601C36.4703 24.7311 36.6044 24.8048 36.7429 24.8048C36.806 24.8048 36.87 24.7895 36.9293 24.7572C37.1188 24.654 37.1888 24.4168 37.0856 24.2273L36.1754 22.556C36.575 22.5745 36.9681 22.445 37.2811 22.1854L39.0378 20.7281C39.3195 20.4944 39.7355 20.5047 40.0053 20.7521L40.097 20.8361L40.8783 21.5523L42.2188 22.7811V25.5568ZM42.2188 21.7212L40.8782 20.4924L40.097 19.8975C39.588 19.6846 38.9827 19.7587 38.5389 20.1268L36.7823 21.5841C36.5891 21.7444 36.3368 21.8091 36.0902 21.7618C35.8437 21.7144 35.6334 21.5607 35.5133 21.3403L34.2808 19.0771L33.5926 17.8134V17.8134L32.3513 15.5341C32.0866 15.048 31.598 14.7521 31.0446 14.7426C30.4912 14.7339 29.9928 15.0122 29.7116 15.489L25.903 21.9466V12.1715C25.903 11.3636 26.5603 10.7063 27.3682 10.7063H29.782C29.9977 10.7063 30.1726 10.5314 30.1726 10.3157C30.1726 10.0999 29.9977 9.92504 29.782 9.92504H27.3682C26.1295 9.92504 25.1218 10.9328 25.1218 12.1715V23.3779V25.2885C24.372 25.2249 23.7812 24.5948 23.7812 23.8289V11.5729C23.7812 10.1423 24.9451 8.97848 26.3757 8.97848H38.6317C39.2571 8.97848 39.792 9.37242 40.0018 9.92508H32.907C32.6912 9.92508 32.5164 10.1 32.5164 10.3157C32.5164 10.5314 32.6912 10.7063 32.907 10.7063H40.097L40.8782 10.712C41.628 10.7755 42.2188 11.4056 42.2188 12.1715V21.7212Z" fill="#9B9C9D"/>
<path d="M19.793 33.9297H17.9648V39H17.2188V33.9297H15.3945V33.3125H19.793V33.9297ZM21.2461 35.2852C21.5664 34.8919 21.9831 34.6953 22.4961 34.6953C23.3893 34.6953 23.8398 35.1992 23.8477 36.207V39H23.125V36.2031C23.1224 35.8984 23.0521 35.6732 22.9141 35.5273C22.7786 35.3815 22.5664 35.3086 22.2773 35.3086C22.043 35.3086 21.8372 35.3711 21.6602 35.4961C21.4831 35.6211 21.3451 35.7852 21.2461 35.9883V39H20.5234V33H21.2461V35.2852ZM26.6836 39.0781C26.1107 39.0781 25.6445 38.8906 25.2852 38.5156C24.9258 38.138 24.7461 37.6341 24.7461 37.0039V36.8711C24.7461 36.4518 24.8255 36.0781 24.9844 35.75C25.1458 35.4193 25.3698 35.1615 25.6562 34.9766C25.9453 34.7891 26.2578 34.6953 26.5938 34.6953C27.1432 34.6953 27.5703 34.8763 27.875 35.2383C28.1797 35.6003 28.332 36.1185 28.332 36.793V37.0938H25.4688C25.4792 37.5104 25.6003 37.8477 25.832 38.1055C26.0664 38.3607 26.3633 38.4883 26.7227 38.4883C26.9779 38.4883 27.194 38.4362 27.3711 38.332C27.5482 38.2279 27.7031 38.0898 27.8359 37.918L28.2773 38.2617C27.9232 38.806 27.3919 39.0781 26.6836 39.0781ZM26.5938 35.2891C26.3021 35.2891 26.0573 35.3958 25.8594 35.6094C25.6615 35.8203 25.5391 36.1172 25.4922 36.5H27.6094V36.4453C27.5885 36.0781 27.4896 35.7943 27.3125 35.5938C27.1354 35.3906 26.8958 35.2891 26.5938 35.2891ZM27.7734 34.0703V34.1094H27.1758L26.5898 33.4453L26.0078 34.1094H25.4102V34.0625L26.3711 33H26.8086L27.7734 34.0703ZM29.8516 34.7734L29.8711 35.2422C30.181 34.8776 30.599 34.6953 31.125 34.6953C31.7161 34.6953 32.1185 34.9219 32.332 35.375C32.4727 35.1719 32.6549 35.0078 32.8789 34.8828C33.1055 34.7578 33.3724 34.6953 33.6797 34.6953C34.6068 34.6953 35.0781 35.1862 35.0938 36.168V39H34.3711V36.2109C34.3711 35.9089 34.3021 35.6836 34.1641 35.5352C34.026 35.3841 33.7943 35.3086 33.4688 35.3086C33.2005 35.3086 32.9779 35.3893 32.8008 35.5508C32.6237 35.7096 32.5208 35.9245 32.4922 36.1953V39H31.7656V36.2305C31.7656 35.6159 31.4648 35.3086 30.8633 35.3086C30.3893 35.3086 30.0651 35.5104 29.8906 35.9141V39H29.168V34.7734H29.8516ZM40.7812 39C40.7396 38.9167 40.7057 38.7682 40.6797 38.5547C40.3438 38.9036 39.9427 39.0781 39.4766 39.0781C39.0599 39.0781 38.7174 38.9609 38.4492 38.7266C38.1836 38.4896 38.0508 38.1901 38.0508 37.8281C38.0508 37.388 38.2174 37.0469 38.5508 36.8047C38.8867 36.5599 39.3581 36.4375 39.9648 36.4375H40.668V36.1055C40.668 35.8529 40.5924 35.6523 40.4414 35.5039C40.2904 35.3529 40.0677 35.2773 39.7734 35.2773C39.5156 35.2773 39.2995 35.3424 39.125 35.4727C38.9505 35.6029 38.8633 35.7604 38.8633 35.9453H38.1367C38.1367 35.7344 38.2109 35.5312 38.3594 35.3359C38.5104 35.138 38.7135 34.9818 38.9688 34.8672C39.2266 34.7526 39.5091 34.6953 39.8164 34.6953C40.3034 34.6953 40.6849 34.8177 40.9609 35.0625C41.237 35.3047 41.3802 35.6393 41.3906 36.0664V38.0117C41.3906 38.3997 41.4401 38.7083 41.5391 38.9375V39H40.7812ZM39.582 38.4492C39.8086 38.4492 40.0234 38.3906 40.2266 38.2734C40.4297 38.1562 40.5768 38.0039 40.668 37.8164V36.9492H40.1016C39.2161 36.9492 38.7734 37.2083 38.7734 37.7266C38.7734 37.9531 38.849 38.1302 39 38.2578C39.151 38.3854 39.3451 38.4492 39.582 38.4492ZM39.6523 34.0898L39.6484 33.4922C39.8438 33.4792 39.987 33.4531 40.0781 33.4141C40.1693 33.375 40.2148 33.3047 40.2148 33.2031C40.2148 33.1016 40.1549 33.026 40.0352 32.9766C39.918 32.9245 39.7617 32.8984 39.5664 32.8984L39.5938 32.4844C39.9818 32.4844 40.276 32.5521 40.4766 32.6875C40.6771 32.8203 40.7773 32.9974 40.7773 33.2188C40.7773 33.3776 40.7266 33.5091 40.625 33.6133C40.5234 33.7174 40.3724 33.7839 40.1719 33.8125L40.168 34.0898H39.6523ZM43.207 34.7734L43.2305 35.3047C43.5534 34.8984 43.9753 34.6953 44.4961 34.6953C45.3893 34.6953 45.8398 35.1992 45.8477 36.207V39H45.125V36.2031C45.1224 35.8984 45.0521 35.6732 44.9141 35.5273C44.7786 35.3815 44.5664 35.3086 44.2773 35.3086C44.043 35.3086 43.8372 35.3711 43.6602 35.4961C43.4831 35.6211 43.3451 35.7852 43.2461 35.9883V39H42.5234V34.7734H43.207ZM47.6602 35.2852C47.9805 34.8919 48.3971 34.6953 48.9102 34.6953C49.8034 34.6953 50.2539 35.1992 50.2617 36.207V39H49.5391V36.2031C49.5365 35.8984 49.4661 35.6732 49.3281 35.5273C49.1927 35.3815 48.9805 35.3086 48.6914 35.3086C48.457 35.3086 48.2513 35.3711 48.0742 35.4961C47.8971 35.6211 47.7591 35.7852 47.6602 35.9883V39H46.9375V33H47.6602V35.2852Z" fill="#9B9C9D"/>
</svg>
