<svg id="Layer_1" height="512" viewBox="0 0 128 128" width="512" xmlns="http://www.w3.org/2000/svg" data-name="Layer 1"><path d="m63.982 53.885-27.664 14.637v43.978h18.206v-19.646h18.916v19.646h18.206v-43.843z" fill="#ffd89e"/><path d="m54.524 92.854h18.915v19.646h-18.915z" fill="#cb6f2c"/><path d="m65.696 92.854h7.743v19.646h-7.743z" fill="#af5819"/><path d="m82 62.833 9.646 5.824v43.484h-9.646z" fill="#ffc65c"/><path d="m44.667 92.854h9.858v19.646h-9.858z" fill="#ffc65c"/><path d="m99.34 74.485a1.742 1.742 0 0 1 -.817-.2l-34.752-18.416-34.285 18.4a1.75 1.75 0 1 1 -1.655-3.084l35.107-18.842a1.753 1.753 0 0 1 1.647 0l35.576 18.849a1.75 1.75 0 0 1 -.821 3.3z" fill="#ff6100"/><path d="m78.761 15.5a23.525 23.525 0 0 0 -23.525 23.525c0 12.993 23.525 33.709 23.525 33.709s23.525-20.717 23.525-33.709a23.525 23.525 0 0 0 -23.525-23.525zm0 33.986a10.461 10.461 0 1 1 10.46-10.461 10.46 10.46 0 0 1 -10.46 10.461z" fill="#ff6100"/><path d="m112.5 110.75h-97a1.75 1.75 0 0 0 0 3.5h97a1.75 1.75 0 0 0 0-3.5z" fill="#292929"/><g fill="#ef3f00"><path d="m78.761 72.734s23.525-20.717 23.525-33.709a23.525 23.525 0 0 0 -23.525-23.525s34.094 17.469 0 57.234z"/><path d="m80.022 49.4a10.457 10.457 0 1 1 -1.261-20.838c-5.781 0-15.886 1.623-15.886 10.468 0 8.655 10.1 10.468 15.886 10.468a8.467 8.467 0 0 0 1.261-.098z"/></g></svg>