<svg width="30" height="30" viewBox="0 0 30 30" fill="none" xmlns="http://www.w3.org/2000/svg">
<path d="M16.5752 0H13.8975C11.0236 0 8.69385 2.32704 8.69385 5.19745V8.39447C8.79776 8.03947 9.13055 7.77901 9.52492 7.77901H10.2834V7.1125C10.2834 6.96098 10.4068 6.83762 10.5583 6.83762H11.2656C11.32 6.83762 11.3741 6.82365 11.4219 6.79733L13.642 5.56526C13.6828 5.5426 13.729 5.5307 13.7757 5.5307C13.8247 5.5307 13.873 5.54375 13.9151 5.56847C13.9986 5.61768 14.0506 5.70854 14.0506 5.80536V6.15234C14.0506 6.26495 14.1078 6.36726 14.2035 6.42654C14.2545 6.4579 14.3131 6.47461 14.3729 6.47461C14.4228 6.47461 14.4724 6.46294 14.5171 6.44073L16.5276 5.4364C17.1611 5.12718 17.7514 4.97017 18.2815 4.97017C19.4485 4.97017 20.0054 5.72319 20.1482 5.9539C20.175 5.99739 20.1892 6.04729 20.1892 6.09833V7.77901H20.9477C21.3421 7.77901 21.6749 8.03947 21.7788 8.39424V5.19745C21.7788 2.32704 19.449 0 16.5752 0V0Z" fill="#F39600"/>
<path d="M9.52492 7.77901H9.94698V5.19745C9.94698 2.32704 12.2768 0 15.1506 0H13.8975C11.0236 0 8.69385 2.32704 8.69385 5.19745V8.39447C8.79776 8.0397 9.13055 7.77901 9.52492 7.77901Z" fill="#CE7A00"/>
<path d="M9.59677 12.4256C9.50545 12.6531 9.45464 12.901 9.45464 13.1612C9.45464 13.8245 9.78217 14.4112 10.2843 14.7694C10.4658 14.7364 10.6517 14.719 10.8398 14.719H11.355L12.0943 12.9923C11.2715 12.4068 10.6798 11.5543 10.4242 10.5765H9.5249C9.06943 10.5765 8.69589 10.229 8.66293 9.79004C8.43497 10.0718 8.2981 10.4302 8.2981 10.8207C8.29832 11.6092 8.85474 12.2675 9.59677 12.4256Z" fill="#F39600"/>
<path d="M9.59677 12.4256C9.50545 12.6531 9.45464 12.901 9.45464 13.1612C9.45464 13.8245 9.78217 14.4112 10.2843 14.7694C10.4658 14.7364 10.6517 14.719 10.8398 14.719H11.355L11.4722 14.4453C10.8469 14.2022 10.4024 13.5947 10.4024 12.8852C10.4024 12.6707 10.4429 12.4611 10.5231 12.2622C10.5562 12.1796 10.5512 12.0864 10.5093 12.0079C10.4674 11.9292 10.3931 11.8731 10.3058 11.8546C9.69176 11.7236 9.24635 11.1729 9.24635 10.5449C9.24635 10.5401 9.24681 10.5355 9.24681 10.5307C8.92546 10.4231 8.68903 10.1352 8.66293 9.79004C8.43497 10.0718 8.2981 10.4302 8.2981 10.8207C8.29832 11.6092 8.85474 12.2675 9.59677 12.4256Z" fill="#CE7A00"/>
<path d="M22.1743 10.8207C22.1743 10.4302 22.0376 10.0718 21.8097 9.79004C21.7767 10.229 21.4032 10.5765 20.9477 10.5765H20.0482C19.7946 11.5472 19.2096 12.394 18.3964 12.979L18.8086 13.9697L19.0633 13.9188H20.8669C20.964 13.6856 21.018 13.4295 21.018 13.161C21.018 12.901 20.9672 12.6531 20.8758 12.4256C21.6179 12.2675 22.1743 11.6092 22.1743 10.8207V10.8207Z" fill="#F39600"/>
<path d="M13.4951 16.4763H16.9778V30H13.4951V16.4763Z" fill="#E0AA68"/>
<path d="M13.4951 17.0674V29.9999H14.1802V19.1058L13.4951 17.0674Z" fill="#B57A4E"/>
<path d="M13.4951 16.4763V17.0675L14.9588 21.4229C14.9989 21.5422 15.1106 21.6225 15.2364 21.6225C15.3623 21.6225 15.474 21.5422 15.5141 21.4229L16.9776 17.0675V16.4763H13.4951Z" fill="#FE3745"/>
<path d="M13.4951 16.4763V17.0675L14.9588 21.4229C14.9989 21.5422 15.1106 21.6225 15.2364 21.6225C15.3623 21.6225 15.474 21.5422 15.5141 21.4229L15.7079 20.8459L14.2394 16.4763H13.4951Z" fill="#E62937"/>
<path d="M22.1466 20.7556L22.0935 20.8048C21.9736 20.9158 21.8186 20.9769 21.6575 20.9769H19.6745L16.9192 26.5134V29.9999H22.4041C22.5966 29.9999 22.7525 29.8447 22.7525 29.6536V21.7764L22.1466 20.7556Z" fill="#383838"/>
<path d="M16.9189 26.7954V30H18.1657V24.2905L16.9189 26.7954Z" fill="#282828"/>
<path d="M19.0633 20.9771C18.709 20.9771 18.4209 20.6907 18.4209 20.3389V14.5569C18.4209 14.274 18.6072 14.0342 18.864 13.9506L18.4456 12.9426C18.0535 13.2331 17.607 13.4624 17.1172 13.6133C17.0261 13.6412 16.956 13.7062 16.9189 13.7883V26.7955L19.8148 20.9768H19.0633V20.9771Z" fill="#6D6E71"/>
<path d="M13.495 26.5201V26.546L11.7367 23.0132L11.6257 23.0393V26.6279C11.6257 26.762 11.5166 26.8712 11.3822 26.8712H7.72009V29.6535C7.72009 29.8446 7.87596 29.9996 8.06822 29.9996H13.5536V26.6373L13.495 26.5201Z" fill="#383838"/>
<path d="M10.1347 17.6537L11.0457 15.4633L11.3796 14.6602H10.8399C9.15053 14.6602 7.77129 15.995 7.72253 17.6537H10.1347Z" fill="#383838"/>
<path d="M8.98253 17.6537C9.02396 16.252 10.015 15.082 11.3409 14.7531L11.3796 14.6602H10.8399C9.15053 14.6602 7.77129 15.995 7.72253 17.6537H8.98253Z" fill="#282828"/>
<path d="M8.98019 29.6536V26.8713H7.71997V29.6536C7.71997 29.8447 7.87607 29.9999 8.06833 29.9999H9.32855C9.13606 29.9999 8.98019 29.8447 8.98019 29.6536Z" fill="#282828"/>
<path d="M13.3554 13.6131C12.8665 13.4625 12.4211 13.2339 12.0295 12.9443L10.0712 17.6536H11.382C11.5163 17.6536 11.6257 17.7628 11.6257 17.8969V22.9218L13.5536 26.7954V13.7882C13.5165 13.7061 13.4463 13.6411 13.3554 13.6131V13.6131Z" fill="#6D6E71"/>
<path d="M20.9478 7.72046H20.1893V9.48033C20.1893 9.87859 20.1346 10.2659 20.0325 10.635H20.9478C21.4579 10.635 21.8715 10.2285 21.8715 9.72707V8.6282C21.8715 8.12672 21.4579 7.72046 20.9478 7.72046Z" fill="#F8D5AB"/>
<path d="M10.2835 9.48033V7.72046H9.52496C9.01479 7.72046 8.6012 8.12695 8.6012 8.6282V9.72707C8.6012 10.2285 9.01479 10.635 9.52496 10.635H10.44C10.338 10.2659 10.2835 9.87859 10.2835 9.48033Z" fill="#FFE2B8"/>
<path d="M13.5537 16.5349V13.9213C13.5537 13.7927 13.4697 13.6792 13.3468 13.6412C11.4972 13.0713 10.2542 11.3993 10.2542 9.48033V7.11255C10.2542 6.94501 10.3908 6.80859 10.5583 6.80859H11.2656C11.3152 6.80859 11.3642 6.79578 11.4077 6.77174L13.6281 5.53967C13.6732 5.5145 13.724 5.50145 13.7757 5.50145C13.8297 5.50145 13.8833 5.51587 13.93 5.54333C14.0225 5.59781 14.0801 5.69829 14.0801 5.8054V6.15262C14.0801 6.25401 14.1326 6.34831 14.2191 6.40164C14.266 6.43071 14.3195 6.44559 14.3731 6.44559C14.4177 6.44559 14.4626 6.43529 14.5038 6.41469L16.5145 5.41035C17.1515 5.0993 17.7468 4.94092 18.2817 4.94092C19.4639 4.94092 20.0283 5.7047 20.173 5.93861C20.203 5.98668 20.2185 6.04207 20.2185 6.0986V9.48056C20.2185 11.3993 18.9757 13.0715 17.1256 13.6414C17.0027 13.6794 16.9192 13.7929 16.9192 13.9213V16.5349H13.5537Z" fill="#FFE2B8"/>
<path d="M14.4589 16.5349V13.4333C14.4589 13.3047 14.3752 13.1912 14.2523 13.1534C12.4024 12.5835 11.1596 10.9113 11.1596 8.99257V6.80835H10.5583C10.3908 6.80835 10.2542 6.94476 10.2542 7.11253V9.48032C10.2542 11.3993 11.4972 13.0712 13.3468 13.6412C13.4699 13.6789 13.5537 13.7927 13.5537 13.9211V16.5349H14.4589Z" fill="#FFC987"/>
<path d="M12.7002 8.92815C12.4574 8.92815 12.2607 8.73131 12.2607 8.48869V7.65991C12.2607 7.41707 12.4574 7.22046 12.7002 7.22046C12.9428 7.22046 13.1396 7.41707 13.1396 7.65991V8.48869C13.1396 8.73131 12.9428 8.92815 12.7002 8.92815Z" fill="#72563C"/>
<path d="M17.7725 8.92815C17.5298 8.92815 17.333 8.73131 17.333 8.48869V7.65991C17.333 7.41707 17.5298 7.22046 17.7725 7.22046C18.0153 7.22046 18.2119 7.41707 18.2119 7.65991V8.48869C18.2119 8.73131 18.0153 8.92815 17.7725 8.92815Z" fill="#72563C"/>
<path d="M15.6374 9.61491H15.0902C14.7073 9.61491 14.3958 9.30478 14.3958 8.92346V8.02441C14.3958 7.78157 14.5926 7.58496 14.8352 7.58496C15.078 7.58496 15.2747 7.78157 15.2747 8.02441V8.73601H15.6374C15.8803 8.73601 16.0769 8.93262 16.0769 9.17546C16.0769 9.41808 15.8803 9.61491 15.6374 9.61491Z" fill="#72563C"/>
<path d="M15.2364 12.6498C14.2925 12.6498 13.5244 11.8916 13.5244 10.9593C13.5244 10.7824 13.6704 10.6384 13.8497 10.6384H16.6232C16.8025 10.6384 16.948 10.7824 16.948 10.9593C16.948 11.8913 16.1804 12.6498 15.2364 12.6498Z" fill="#FFA05F"/>
<path d="M14.7817 10.9593C14.7817 10.7824 14.9275 10.6382 15.1067 10.6382H13.8497C13.6704 10.6382 13.5244 10.7824 13.5244 10.9593C13.5244 11.8913 14.2925 12.6498 15.2364 12.6498C15.4585 12.6498 15.6702 12.6073 15.8652 12.5313C15.2312 12.2832 14.7817 11.6723 14.7817 10.9593Z" fill="#FF812C"/>
<path d="M11.382 17.5952H4.90515C4.73898 17.5952 4.60303 17.7309 4.60303 17.8971V21.7558H5.70189C6.04727 21.7558 6.32811 22.0341 6.32811 22.3766V22.6558C6.32811 22.8405 6.24571 23.0145 6.10175 23.1332L6.04704 23.1783L6.10175 23.2236C6.24571 23.3422 6.32811 23.5162 6.32811 23.7009V23.9803C6.32811 24.1653 6.24571 24.3392 6.10175 24.4578L6.04681 24.5029L6.10175 24.5482C6.24571 24.6667 6.32811 24.8405 6.32811 25.0254V25.3049C6.32811 25.647 6.04727 25.9254 5.70189 25.9254H4.60303V26.6285C4.60303 26.7944 4.73898 26.9302 4.90515 26.9302H11.382C11.5484 26.9302 11.6844 26.7944 11.6844 26.6285V17.8971C11.6844 17.7309 11.5484 17.5952 11.382 17.5952Z" fill="#A7A9AC"/>
<path d="M5.70189 21.7558C5.74858 21.7558 5.7939 21.7613 5.83762 21.7709V17.8971C5.83762 17.7309 5.97357 17.5952 6.13997 17.5952H4.90515C4.73898 17.5952 4.60303 17.7309 4.60303 17.8971V21.7558H5.70189Z" fill="#8A8C8E"/>
<path d="M5.83762 26.6281V25.9099C5.7939 25.9195 5.74858 25.925 5.70189 25.925H4.60303V26.6281C4.60303 26.7941 4.73898 26.9298 4.90515 26.9298H6.13997C5.97357 26.9298 5.83762 26.7941 5.83762 26.6281Z" fill="#8A8C8E"/>
<path d="M9.10766 20.6254C9.10766 21.1543 8.67599 21.5832 8.14361 21.5832C7.61124 21.5832 7.17957 21.1543 7.17957 20.6254C7.17957 20.0964 7.61124 19.6675 8.14361 19.6675C8.67599 19.6675 9.10766 20.0964 9.10766 20.6254V20.6254Z" fill="#6D6E71"/>
<path d="M3.96629 25.9837C3.58841 25.9837 3.28125 25.6793 3.28125 25.3044V22.3761C3.28125 22.0017 3.58841 21.697 3.96629 21.697H5.7019C6.07956 21.697 6.38672 22.0017 6.38672 22.3761V22.6556C6.38672 22.8655 6.29036 23.0534 6.13907 23.1781C6.29036 23.3029 6.38672 23.4908 6.38672 23.7007V23.9801C6.38672 24.19 6.29036 24.3781 6.13907 24.5027C6.29036 24.6274 6.38672 24.8153 6.38672 25.0252V25.3047C6.38672 25.6793 6.07956 25.9837 5.7019 25.9837H3.96629Z" fill="#FFE2B8"/>
<path d="M4.58611 25.3044V22.3761C4.58611 22.0017 4.89326 21.697 5.27115 21.697H3.96629C3.58841 21.697 3.28125 22.0017 3.28125 22.3761V25.3044C3.28125 25.6793 3.58841 25.9837 3.96629 25.9837H5.27115C4.89326 25.9837 4.58611 25.6793 4.58611 25.3044Z" fill="#FFC987"/>
<path d="M21.9616 20.4441H21.4173C21.0721 20.4441 20.7913 20.1656 20.7913 19.8234V19.5439C20.7913 19.3592 20.8737 19.185 21.0174 19.0665L21.0724 19.0214L21.0174 18.9761C20.8737 18.8577 20.7913 18.6836 20.7913 18.4989V18.2194C20.7913 18.0345 20.8737 17.8605 21.0174 17.7422L21.0726 17.6969L21.0174 17.6515C20.8737 17.5332 20.7913 17.3593 20.7913 17.1743V16.8951C20.7913 16.5527 21.0721 16.2741 21.4173 16.2741H22.3587V14.5566C22.3587 14.1734 22.0431 13.8601 21.6574 13.8601H19.0632C18.6776 13.8601 18.3622 14.1734 18.3622 14.5566V20.3388C18.3622 20.722 18.6776 21.0356 19.0632 21.0356H21.6574C21.8627 21.0356 22.0474 20.9461 22.176 20.8053L21.9616 20.4441Z" fill="#C7C8CA"/>
<path d="M19.616 20.3388V14.5568C19.616 14.1737 19.9314 13.8601 20.3171 13.8601H19.0635C18.6778 13.8601 18.3622 14.1737 18.3622 14.5568V20.3388C18.3622 20.722 18.6778 21.0356 19.0635 21.0356H20.3171C19.9314 21.0356 19.616 20.722 19.616 20.3388Z" fill="#A7A9AC"/>
<path d="M20.3605 16.1806C20.1179 16.1806 19.921 15.9838 19.921 15.7412V15.2534C19.921 15.0108 20.1179 14.814 20.3605 14.814C20.6033 14.814 20.7999 15.0108 20.7999 15.2534V15.7412C20.7999 15.9838 20.6033 16.1806 20.3605 16.1806V16.1806Z" fill="#6D6E71"/>
<path d="M26.5177 22.5352L23.7798 17.9141V19.8234C23.7798 20.1656 23.4987 20.4441 23.1533 20.4441H21.8938L24.0075 24.0057C24.4161 24.6944 25.3094 24.9236 26.0027 24.5173C26.6957 24.1113 26.9262 23.2237 26.5177 22.5352V22.5352Z" fill="#383838"/>
<path d="M24.9537 23.6912L23.0265 20.4441H21.8933L24.0073 24.0057C24.4158 24.6944 25.3091 24.9233 26.0024 24.5173C26.0617 24.4825 26.1173 24.444 26.1695 24.4028C25.685 24.3893 25.218 24.1366 24.9537 23.6912V23.6912Z" fill="#282828"/>
<path d="M23.1533 16.2158C23.531 16.2158 23.8384 16.5205 23.8384 16.8951V19.8235C23.8384 20.1979 23.531 20.5028 23.1533 20.5028H21.4175C21.0398 20.5028 20.7329 20.1979 20.7329 19.8235V19.544C20.7329 19.3341 20.829 19.1462 20.9806 19.0215C20.829 18.8967 20.7329 18.7088 20.7329 18.4989V18.2195C20.7329 18.0096 20.829 17.8217 20.9806 17.6969C20.829 17.5724 20.7329 17.3843 20.7329 17.1744V16.8951C20.7329 16.5205 21.0398 16.2158 21.4175 16.2158H23.1533Z" fill="#FFE2B8"/>
<path d="M22.0204 19.8234V19.544C22.0204 19.3341 22.1167 19.1462 22.268 19.0214C22.1167 18.8967 22.0204 18.7088 22.0204 18.4989V18.2194C22.0204 18.0096 22.1167 17.8214 22.268 17.6969C22.1167 17.5722 22.0204 17.3842 22.0204 17.1744V16.8951C22.0204 16.5202 22.3275 16.2156 22.7052 16.2156H21.4175C21.0398 16.2156 20.7329 16.5202 20.7329 16.8951V17.1744C20.7329 17.3842 20.829 17.5722 20.9806 17.6969C20.829 17.8214 20.7329 18.0096 20.7329 18.2194V18.4989C20.7329 18.7088 20.829 18.8967 20.9806 19.0214C20.829 19.1462 20.7329 19.3341 20.7329 19.544V19.8234C20.7329 20.1979 21.0398 20.5028 21.4175 20.5028H22.7052C22.3275 20.5028 22.0204 20.1979 22.0204 19.8234V19.8234Z" fill="#FFC987"/>
</svg>
