<?xml version="1.0"?>
<svg xmlns="http://www.w3.org/2000/svg" id="Capa_1" enable-background="new 0 0 510.202 510.202"  viewBox="0 0 510.202 510.202" ><g><g><path d="m245.679 397.142h-201.427c-16.129 0-29.252-13.122-29.252-29.252v-230.893h49.893c4.142 0 7.5-3.357 7.5-7.5s-3.358-7.5-7.5-7.5h-49.893v-20.985c0-16.13 13.123-29.252 29.252-29.252h37.313v8.638c0 12.682 10.317 22.998 22.999 22.998 12.681 0 22.998-10.316 22.998-22.998v-8.638h18.762v8.638c0 12.682 10.317 22.998 22.998 22.998s22.998-10.316 22.998-22.998v-8.638h18.762v8.638c0 12.682 10.317 22.998 22.999 22.998 12.681 0 22.998-10.316 22.998-22.998v-8.638h18.762v8.638c0 12.682 10.317 22.998 22.998 22.998s22.998-10.316 22.998-22.998v-8.638h18.763v8.638c0 12.682 10.317 22.998 22.998 22.998s22.998-10.316 22.998-22.998v-8.638h37.313c16.129 0 29.252 13.122 29.252 29.252v20.985h-356.306c-4.142 0-7.5 3.357-7.5 7.5s3.358 7.5 7.5 7.5h356.305v97.384c0 4.143 3.358 7.5 7.5 7.5s7.5-3.357 7.5-7.5v-133.37c0-24.4-19.852-44.252-44.252-44.252h-37.313v-8.637c0-12.682-10.317-22.998-22.998-22.998s-22.998 10.316-22.998 22.998v8.637h-18.763v-8.637c0-12.682-10.317-22.998-22.998-22.998s-22.998 10.317-22.998 22.999v8.637h-18.762v-8.637c0-12.682-10.317-22.998-22.998-22.998-12.682 0-22.999 10.316-22.999 22.998v8.637h-18.762v-8.637c0-12.682-10.317-22.998-22.998-22.998s-22.998 10.316-22.998 22.998v8.637h-18.762v-8.637c0-12.682-10.317-22.998-22.998-22.998-12.682 0-22.999 10.316-22.999 22.998v8.637h-37.312c-24.4 0-44.252 19.851-44.252 44.251v266.879c0 24.4 19.852 44.252 44.252 44.252h201.427c4.142 0 7.5-3.357 7.5-7.5s-3.358-7.5-7.5-7.5zm109.92-349.019c0-4.41 3.588-7.998 7.998-7.998s7.998 3.588 7.998 7.998v32.274c0 4.41-3.588 7.998-7.998 7.998s-7.998-3.588-7.998-7.998zm-64.759 0c0-4.41 3.588-7.998 7.998-7.998s7.998 3.588 7.998 7.998v32.274c0 4.41-3.588 7.998-7.998 7.998s-7.998-3.588-7.998-7.998zm-64.758 0c0-4.41 3.588-7.998 7.999-7.998s7.998 3.588 7.998 7.998v32.274c0 4.41-3.588 7.998-7.998 7.998s-7.999-3.588-7.999-7.998zm-64.759 0c0-4.41 3.588-7.998 7.998-7.998s7.998 3.588 7.998 7.998v32.274c0 4.41-3.588 7.998-7.998 7.998s-7.998-3.588-7.998-7.998zm-64.759 0c0-4.41 3.588-7.998 7.999-7.998 4.41 0 7.998 3.588 7.998 7.998v32.274c0 4.41-3.588 7.998-7.998 7.998-4.411 0-7.999-3.588-7.999-7.998z" data-original="#000000" class="active-path" data-old_color="#000000" fill="#3E3F3F"/><path d="m385.833 236.34c-44.158 0-85.387 23.746-107.6 61.972-2.081 3.582-.865 8.172 2.717 10.253 3.581 2.083 8.172.866 10.253-2.716 19.537-33.622 55.797-54.509 94.63-54.509 60.306 0 109.368 49.063 109.368 109.369s-49.063 109.368-109.368 109.368c-60.306 0-109.369-49.063-109.369-109.368 0-9.163 1.137-18.273 3.38-27.078 1.022-4.015-1.403-8.098-5.417-9.119-4.016-1.027-8.097 1.402-9.119 5.416-2.55 10.015-3.844 20.371-3.844 30.781 0 68.577 55.792 124.368 124.369 124.368s124.368-55.791 124.368-124.368-55.791-124.369-124.368-124.369z" data-original="#000000" class="active-path" data-old_color="#000000" fill="#3E3F3F"/><path d="m393.333 281.467v-6.505c0-4.143-3.358-7.5-7.5-7.5s-7.5 3.357-7.5 7.5v6.505c0 4.143 3.358 7.5 7.5 7.5s7.5-3.358 7.5-7.5z" data-original="#000000" class="active-path" data-old_color="#000000" fill="#3E3F3F"/><path d="m329.801 312.177c1.919 0 3.838-.732 5.303-2.196 2.929-2.929 2.93-7.677.001-10.606l-4.6-4.601c-2.928-2.929-7.677-2.93-10.606-.001s-2.93 7.677-.001 10.606l4.6 4.601c1.463 1.464 3.383 2.197 5.303 2.197z" data-original="#000000" class="active-path" data-old_color="#000000" fill="#3E3F3F"/><path d="m306.591 368.209c4.142 0 7.5-3.357 7.5-7.5s-3.358-7.5-7.5-7.5h-6.505c-4.142 0-7.5 3.357-7.5 7.5s3.358 7.5 7.5 7.5z" data-original="#000000" class="active-path" data-old_color="#000000" fill="#3E3F3F"/><path d="m319.898 426.644c1.464 1.464 3.384 2.196 5.303 2.196s3.839-.732 5.303-2.196l4.6-4.6c2.929-2.93 2.929-7.678 0-10.607-2.929-2.928-7.678-2.928-10.606 0l-4.6 4.6c-2.929 2.93-2.929 7.678 0 10.607z" data-original="#000000" class="active-path" data-old_color="#000000" fill="#3E3F3F"/><path d="m378.333 439.951v6.505c0 4.143 3.358 7.5 7.5 7.5s7.5-3.357 7.5-7.5v-6.505c0-4.143-3.358-7.5-7.5-7.5s-7.5 3.357-7.5 7.5z" data-original="#000000" class="active-path" data-old_color="#000000" fill="#3E3F3F"/><path d="m436.563 422.045 4.6 4.6c1.465 1.464 3.384 2.196 5.303 2.196s3.839-.732 5.304-2.197c2.929-2.929 2.928-7.678 0-10.606l-4.6-4.6c-2.93-2.928-7.678-2.929-10.607.001-2.93 2.928-2.929 7.677 0 10.606z" data-original="#000000" class="active-path" data-old_color="#000000" fill="#3E3F3F"/><path d="m471.58 368.209c4.142 0 7.5-3.357 7.5-7.5s-3.358-7.5-7.5-7.5h-6.505c-4.142 0-7.5 3.357-7.5 7.5s3.358 7.5 7.5 7.5z" data-original="#000000" class="active-path" data-old_color="#000000" fill="#3E3F3F"/><path d="m441.866 312.177c1.919 0 3.839-.732 5.304-2.197l4.6-4.601c2.929-2.929 2.928-7.678 0-10.606-2.93-2.928-7.678-2.929-10.607.001l-4.6 4.601c-2.929 2.929-2.928 7.678 0 10.606 1.464 1.463 3.383 2.196 5.303 2.196z" data-original="#000000" class="active-path" data-old_color="#000000" fill="#3E3F3F"/><path d="m357.286 317.746c-2.77-3.081-7.513-3.331-10.591-.563-3.08 2.77-3.332 7.512-.562 10.592l17.156 19.078c-2.488 4.033-3.927 8.779-3.927 13.855 0 14.597 11.875 26.472 26.472 26.472s26.472-11.875 26.472-26.472c0-3.638-.738-7.106-2.072-10.265l13.798-11.283c3.206-2.622 3.68-7.347 1.058-10.554-2.621-3.207-7.347-3.681-10.554-1.058l-13.806 11.29c-4.247-2.901-9.376-4.602-14.896-4.602-4.078 0-7.942.928-11.396 2.583zm40.019 42.963c0 6.325-5.146 11.472-11.472 11.472s-11.472-5.146-11.472-11.472c0-3.361 1.462-6.379 3.772-8.479.014-.013.029-.023.043-.036.016-.015.03-.031.046-.046 2.028-1.805 4.689-2.911 7.61-2.911 6.327 0 11.473 5.147 11.473 11.472z" data-original="#000000" class="active-path" data-old_color="#000000" fill="#3E3F3F"/><path d="m102.799 180.347c0-9.582-7.795-17.377-17.377-17.377h-22.24c-9.582 0-17.377 7.795-17.377 17.377v22.24c0 9.582 7.795 17.377 17.377 17.377h22.24c9.582 0 17.377-7.795 17.377-17.377zm-15 22.241c0 1.311-1.066 2.377-2.377 2.377h-22.24c-1.311 0-2.377-1.066-2.377-2.377v-22.24c0-1.311 1.066-2.377 2.377-2.377h22.24c1.311 0 2.377 1.066 2.377 2.377z" data-original="#000000" class="active-path" data-old_color="#000000" fill="#3E3F3F"/><path d="m182.32 180.347c0-9.582-7.795-17.377-17.377-17.377h-22.24c-9.582 0-17.377 7.795-17.377 17.377v22.24c0 9.582 7.795 17.377 17.377 17.377h22.24c9.582 0 17.377-7.795 17.377-17.377zm-15 22.241c0 1.311-1.066 2.377-2.377 2.377h-22.24c-1.311 0-2.377-1.066-2.377-2.377v-22.24c0-1.311 1.066-2.377 2.377-2.377h22.24c1.311 0 2.377 1.066 2.377 2.377z" data-original="#000000" class="active-path" data-old_color="#000000" fill="#3E3F3F"/><path d="m222.224 162.97c-9.582 0-17.377 7.795-17.377 17.377v22.24c0 9.582 7.795 17.377 17.377 17.377h22.24c9.582 0 17.377-7.795 17.377-17.377v-22.24c0-9.582-7.795-17.377-17.377-17.377zm24.617 17.377v22.24c0 1.311-1.066 2.377-2.377 2.377h-22.24c-1.311 0-2.377-1.066-2.377-2.377v-22.24c0-1.311 1.066-2.377 2.377-2.377h22.24c1.311 0 2.377 1.067 2.377 2.377z" data-original="#000000" class="active-path" data-old_color="#000000" fill="#3E3F3F"/><path d="m301.745 162.97c-9.582 0-17.377 7.795-17.377 17.377v22.24c0 9.582 7.795 17.377 17.377 17.377h22.24c9.582 0 17.377-7.795 17.377-17.377v-22.24c0-9.582-7.795-17.377-17.377-17.377zm24.617 17.377v22.24c0 1.311-1.066 2.377-2.377 2.377h-22.24c-1.311 0-2.377-1.066-2.377-2.377v-22.24c0-1.311 1.066-2.377 2.377-2.377h22.24c1.311 0 2.377 1.067 2.377 2.377z" data-original="#000000" class="active-path" data-old_color="#000000" fill="#3E3F3F"/><path d="m381.266 162.97c-9.582 0-17.376 7.795-17.376 17.377v22.24c0 9.582 7.795 17.377 17.376 17.377h22.241c9.582 0 17.377-7.795 17.377-17.377v-22.24c0-9.582-7.795-17.377-17.377-17.377zm24.618 17.377v22.24c0 1.311-1.066 2.377-2.377 2.377h-22.241c-1.311 0-2.376-1.066-2.376-2.377v-22.24c0-1.311 1.066-2.377 2.376-2.377h22.241c1.31 0 2.377 1.067 2.377 2.377z" data-original="#000000" class="active-path" data-old_color="#000000" fill="#3E3F3F"/><path d="m102.799 256.108c0-9.582-7.795-17.377-17.377-17.377h-22.24c-9.582 0-17.377 7.795-17.377 17.377v22.24c0 9.582 7.795 17.377 17.377 17.377h22.24c9.582 0 17.377-7.795 17.377-17.377zm-15 22.24c0 1.311-1.066 2.377-2.377 2.377h-22.24c-1.311 0-2.377-1.066-2.377-2.377v-22.24c0-1.311 1.066-2.377 2.377-2.377h22.24c1.311 0 2.377 1.066 2.377 2.377z" data-original="#000000" class="active-path" data-old_color="#000000" fill="#3E3F3F"/><path d="m182.32 256.108c0-9.582-7.795-17.377-17.377-17.377h-22.24c-9.582 0-17.377 7.795-17.377 17.377v22.24c0 9.582 7.795 17.377 17.377 17.377h22.24c9.582 0 17.377-7.795 17.377-17.377zm-15 22.24c0 1.311-1.066 2.377-2.377 2.377h-22.24c-1.311 0-2.377-1.066-2.377-2.377v-22.24c0-1.311 1.066-2.377 2.377-2.377h22.24c1.311 0 2.377 1.066 2.377 2.377z" data-original="#000000" class="active-path" data-old_color="#000000" fill="#3E3F3F"/><path d="m261.841 256.108c0-9.582-7.795-17.377-17.377-17.377h-22.24c-9.582 0-17.377 7.795-17.377 17.377v22.24c0 9.582 7.795 17.377 17.377 17.377h22.24c9.582 0 17.377-7.795 17.377-17.377zm-15 22.24c0 1.311-1.066 2.377-2.377 2.377h-22.24c-1.311 0-2.377-1.066-2.377-2.377v-22.24c0-1.311 1.066-2.377 2.377-2.377h22.24c1.311 0 2.377 1.066 2.377 2.377z" data-original="#000000" class="active-path" data-old_color="#000000" fill="#3E3F3F"/><path d="m85.422 314.492h-22.24c-9.582 0-17.377 7.795-17.377 17.377v22.24c0 9.582 7.795 17.377 17.377 17.377h22.24c9.582 0 17.377-7.795 17.377-17.377v-22.24c0-9.582-7.795-17.377-17.377-17.377zm2.377 39.617c0 1.311-1.066 2.377-2.377 2.377h-22.24c-1.311 0-2.377-1.066-2.377-2.377v-22.24c0-1.311 1.066-2.377 2.377-2.377h22.24c1.311 0 2.377 1.066 2.377 2.377z" data-original="#000000" class="active-path" data-old_color="#000000" fill="#3E3F3F"/><path d="m164.943 314.492h-22.24c-9.582 0-17.377 7.795-17.377 17.377v22.24c0 9.582 7.795 17.377 17.377 17.377h22.24c9.582 0 17.377-7.795 17.377-17.377v-22.24c0-9.582-7.795-17.377-17.377-17.377zm2.377 39.617c0 1.311-1.066 2.377-2.377 2.377h-22.24c-1.311 0-2.377-1.066-2.377-2.377v-22.24c0-1.311 1.066-2.377 2.377-2.377h22.24c1.311 0 2.377 1.066 2.377 2.377z" data-original="#000000" class="active-path" data-old_color="#000000" fill="#3E3F3F"/></g></g> </svg>
