<svg width="50" height="50" viewBox="0 0 50 50" fill="none" xmlns="http://www.w3.org/2000/svg">
<defs>
<linearGradient id="paint0_linear" x1="25.2108" y1="48.9316" x2="25.2108" y2="1.06837" gradientUnits="userSpaceOnUse">
<stop stop-color="#E93E3A"/>
<stop offset="0.328125" stop-color="#ED683C"/>
<stop offset="0.651042" stop-color="#F3903F"/>
<stop offset="1" stop-color="#FDC70C"/>
</linearGradient>
</defs>
<path d="M24.9999 0C11.215 0 0 11.2148 0 24.9999C0 38.785 11.215 50 24.9999 50C38.7847 50 49.9997 38.785 49.9997 24.9999C49.9997 11.2148 38.785 0 24.9999 0ZM39.3552 20.7772L23.6491 36.4833C22.9813 37.1512 22.0935 37.5187 21.1492 37.5187C20.2048 37.5187 19.3171 37.1512 18.6493 36.4833L10.6445 28.4786C9.97668 27.8107 9.60885 26.923 9.60885 25.9787C9.60885 25.034 9.97668 24.1463 10.6445 23.4785C11.3121 22.8107 12.1998 22.4428 13.1444 22.4428C14.0888 22.4428 14.9768 22.8107 15.6443 23.4787L21.1489 28.9831L34.3549 15.7771C35.0227 15.1093 35.9105 14.7417 36.8548 14.7417C37.7991 14.7417 38.6869 15.1093 39.3547 15.7771C40.7337 17.1561 40.7337 19.3988 39.3552 20.7772Z" fill="url(#paint0_linear)"/>
</svg>
