<svg width="10" height="10" viewBox="0 0 10 10" fill="none" xmlns="http://www.w3.org/2000/svg">
<g clip-path="url(#clip0)">
<path d="M9.84016 2.54054L9.5126 2.2107C9.40951 2.10769 9.27235 2.05094 9.12577 2.05094C8.97926 2.05094 8.84194 2.10769 8.73885 2.2107L5.00224 5.94748L1.26131 2.20655C1.15838 2.10354 1.02107 2.04688 0.87456 2.04688C0.728055 2.04688 0.590655 2.10354 0.487646 2.20655L0.160001 2.53436C-0.0533338 2.74753 -0.0533338 3.09477 0.160001 3.30794L4.61402 7.77798C4.71695 7.88091 4.8541 7.95343 5.00191 7.95343H5.00362C5.1502 7.95343 5.28736 7.88082 5.39029 7.77798L9.84016 3.32006C9.94325 3.21713 9.99984 3.07583 10 2.92932C10 2.78273 9.94325 2.64338 9.84016 2.54054Z" fill="#3E3F3F"/>
</g>
<defs>
<clipPath id="clip0">
<path d="M0 0H10V10H0V0Z" fill="white"/>
</clipPath>
</defs>
</svg>
