<?xml version="1.0" encoding="iso-8859-1"?>
<!-- Generator: Adobe Illustrator 19.0.0, SVG Export Plug-In . SVG Version: 6.00 Build 0)  -->
<svg version="1.1" id="Capa_1" xmlns="http://www.w3.org/2000/svg" xmlns:xlink="http://www.w3.org/1999/xlink" x="0px" y="0px"
	 viewBox="0 0 512 512" style="enable-background:new 0 0 512 512;" xml:space="preserve">
<g>
	<path style="fill:#FF5364;" d="M506.086,194.207l2.207-2.825l3.708,2.825v300.138c-0.029,9.739-7.917,17.626-17.655,17.655H17.655
		C7.917,511.971,0.029,504.083,0,494.345V194.207l3.708-2.825l2.207,2.825H506.086z"/>
	<path style="fill:#802D40;" d="M508.292,191.382l-2.207,2.825L264.828,379.586h-17.655L5.914,194.207l-2.207-2.825l84.568-65.766
		L204.623,35.31l40.695-31.603c6.263-4.943,15.1-4.943,21.363,0l40.695,31.603l116.348,90.306L508.292,191.382z"/>
	<path style="fill:#F0C419;" d="M423.724,52.965v204.535L264.828,379.586h-17.655L88.276,257.501V52.965
		c0.029-9.739,7.917-17.626,17.655-17.655h300.138C415.808,35.339,423.695,43.227,423.724,52.965z"/>
	<g>
		<path style="fill:#DF4D60;" d="M508.557,504.761c-3.295,4.561-8.586,7.255-14.212,7.239H17.655
			c-5.627,0.017-10.917-2.678-14.212-7.239l202.24-157.043l39.636-30.808c6.263-4.943,15.1-4.943,21.363,0l39.636,30.808
			L508.557,504.761z"/>
		<path style="fill:#DF4D60;" d="M256,61.793c-58.504,0-105.931,47.427-105.931,105.931S197.496,273.655,256,273.655
			c4.875,0,8.828-3.952,8.828-8.828S260.875,256,256,256c-48.753,0-88.276-39.522-88.276-88.276S207.247,79.448,256,79.448
			s88.276,39.522,88.276,88.276v35.31c0,9.751-7.905,17.655-17.655,17.655s-17.655-7.904-17.655-17.655v-35.31
			c0-4.875-3.952-8.828-8.828-8.828s-8.828,3.952-8.828,8.828c0,19.501-15.809,35.31-35.31,35.31s-35.31-15.809-35.31-35.31
			s15.809-35.31,35.31-35.31c4.875,0,8.828-3.952,8.828-8.828s-3.952-8.828-8.828-8.828c-23.705-0.053-44.559,15.652-51.056,38.449
			c-6.497,22.798,2.946,47.136,23.118,59.587c20.172,12.451,46.161,9.982,63.628-6.044c1.922,18.668,18.148,32.549,36.889,31.557
			c18.741-0.992,33.411-16.507,33.353-35.274v-35.31C361.868,109.246,314.478,61.856,256,61.793z"/>
	</g>
</g>
<g>
</g>
<g>
</g>
<g>
</g>
<g>
</g>
<g>
</g>
<g>
</g>
<g>
</g>
<g>
</g>
<g>
</g>
<g>
</g>
<g>
</g>
<g>
</g>
<g>
</g>
<g>
</g>
<g>
</g>
</svg>
