<svg width="15" height="15" viewBox="0 0 15 15" fill="none" xmlns="http://www.w3.org/2000/svg">
<g clip-path="url(#clip0)">
<path d="M2.95898 7.41455C1.32741 7.41455 0 8.74196 0 10.3735C0 11.0491 0.233584 11.7093 0.657949 12.2337C0.658711 12.2347 0.659502 12.2358 0.660293 12.2368L0.885586 12.5255C0.985078 12.653 1.16921 12.6758 1.29677 12.5763C1.42433 12.4767 1.44706 12.2926 1.34751 12.165L1.12825 11.884C1.12515 11.8798 1.12189 11.8756 1.11855 11.8714C0.775107 11.4501 0.585938 10.9181 0.585938 10.3735C0.585938 9.06501 1.6505 8.00049 2.95898 8.00049C4.26747 8.00049 5.33203 9.06501 5.33203 10.3735C5.33203 10.9239 5.13935 11.4603 4.78942 11.8838C4.78195 11.8929 4.77513 11.9022 4.76892 11.9119L2.95904 14.2306L2.82709 14.0615C2.72754 13.9339 2.54347 13.9111 2.41588 14.0107C2.28832 14.1102 2.26559 14.2943 2.36511 14.4219L2.72801 14.887C2.78355 14.9582 2.86875 14.9998 2.95898 14.9998C2.95898 14.9998 2.95898 14.9998 2.95901 14.9998C3.04925 14.9998 3.13444 14.9582 3.18996 14.8871L5.2478 12.2507C5.25193 12.2455 5.2558 12.2401 5.25949 12.2346C5.6843 11.7099 5.91797 11.0502 5.91797 10.3735C5.91797 8.74193 4.59056 7.41455 2.95898 7.41455Z" fill="#3E3F3F"/>
<path d="M2.11469 13.1488L2.10514 13.1365C2.00556 13.009 1.8214 12.9864 1.69393 13.0861C1.5664 13.1857 1.54381 13.3698 1.64342 13.4973L1.65297 13.5095C1.71074 13.5835 1.79693 13.6221 1.88403 13.6221C1.94708 13.6221 2.01065 13.6019 2.06418 13.56C2.19171 13.4604 2.2143 13.2763 2.11469 13.1488Z" fill="#3E3F3F"/>
<path d="M2.95898 8.71729C2.02204 8.71729 1.25977 9.47956 1.25977 10.4165C1.25977 11.3534 2.02204 12.1157 2.95898 12.1157C3.89593 12.1157 4.6582 11.3534 4.6582 10.4165C4.6582 9.47956 3.89593 8.71729 2.95898 8.71729ZM2.95898 11.5298C2.34513 11.5298 1.8457 11.0304 1.8457 10.4165C1.8457 9.80265 2.34513 9.30322 2.95898 9.30322C3.57284 9.30322 4.07227 9.80265 4.07227 10.4165C4.07227 11.0304 3.57284 11.5298 2.95898 11.5298Z" fill="#3E3F3F"/>
<path d="M14.8536 1.66306L12.0411 0.0392541C11.9504 -0.0130994 11.8388 -0.0130701 11.7481 0.0392541C11.6575 0.0915784 11.6016 0.188287 11.6016 0.292965V5.30273H11.1165C10.9547 5.30273 10.8235 5.43389 10.8235 5.5957C10.8235 5.75751 10.9547 5.88867 11.1165 5.88867H12.6727C12.8345 5.88867 12.9657 5.75751 12.9657 5.5957C12.9657 5.43389 12.8345 5.30273 12.6727 5.30273H12.1875V3.70971L14.8536 2.17048C14.9442 2.11816 15.0001 2.02145 15.0001 1.91677C15.0001 1.8121 14.9442 1.71539 14.8536 1.66306ZM12.1876 3.03313V2.59336V0.800416L14.1212 1.91677L12.1876 3.03313Z" fill="#3E3F3F"/>
<path d="M9.32629 2.7085H9.25305C9.09127 2.7085 8.96008 2.83966 8.96008 3.00146C8.96008 3.16327 9.09127 3.29443 9.25305 3.29443H9.32629C9.48807 3.29443 9.61926 3.16327 9.61926 3.00146C9.61926 2.83966 9.48804 2.7085 9.32629 2.7085Z" fill="#3E3F3F"/>
<path d="M6.18229 7.1238C6.1413 7.1114 6.1002 7.09746 6.06012 7.08237C5.90857 7.0253 5.7397 7.10188 5.68269 7.25329C5.62568 7.40469 5.70217 7.57367 5.85361 7.63071C5.90576 7.65034 5.95928 7.66851 6.01263 7.68465C6.04093 7.6932 6.06947 7.69727 6.09756 7.69727C6.22333 7.69727 6.33961 7.61563 6.37788 7.48904C6.42475 7.33417 6.33715 7.17064 6.18229 7.1238Z" fill="#3E3F3F"/>
<path d="M6.72251 2.98252C6.69992 2.82233 6.55165 2.71076 6.39146 2.73338C6.33635 2.74117 6.28074 2.7509 6.22616 2.7623C6.06781 2.79546 5.9663 2.95071 5.99943 3.10908C6.02835 3.24722 6.15017 3.34208 6.2859 3.34208C6.30579 3.34208 6.32598 3.34006 6.34622 3.33581C6.3882 3.32702 6.43098 3.31952 6.47334 3.31355C6.63357 3.29096 6.7451 3.14272 6.72251 2.98252Z" fill="#3E3F3F"/>
<path d="M5.15338 6.38198C5.12847 6.34694 5.10448 6.31067 5.08207 6.27422C4.99731 6.13644 4.81676 6.09349 4.67906 6.17822C4.54125 6.263 4.49824 6.44344 4.58303 6.58125C4.61218 6.62863 4.64335 6.67573 4.67566 6.72123C4.73279 6.80168 4.82309 6.8446 4.91478 6.8446C4.97344 6.8446 5.03267 6.82702 5.08415 6.79046C5.21607 6.69677 5.24707 6.5139 5.15338 6.38198Z" fill="#3E3F3F"/>
<path d="M5.33759 3.47558C5.2214 3.36306 5.03592 3.36596 4.92333 3.48221C4.8844 3.5224 4.84646 3.56424 4.8106 3.60651C4.70598 3.72988 4.72118 3.91477 4.84458 4.01942C4.89966 4.06612 4.96695 4.08894 5.03393 4.08894C5.11701 4.08894 5.19954 4.05378 5.25752 3.98546C5.28503 3.953 5.31424 3.92083 5.34421 3.88987C5.4568 3.77365 5.45384 3.58817 5.33759 3.47558Z" fill="#3E3F3F"/>
<path d="M4.54516 4.7141C4.38494 4.69687 4.2398 4.81297 4.22237 4.97382C4.21636 5.02922 4.21211 5.08541 4.20974 5.1409C4.20289 5.30259 4.32834 5.4392 4.49003 5.44608C4.49427 5.44626 4.49849 5.44635 4.50271 5.44635C4.65875 5.44635 4.7885 5.32324 4.79518 5.16583C4.797 5.12305 4.80028 5.07967 4.80491 5.03692C4.82231 4.87605 4.70603 4.73153 4.54516 4.7141Z" fill="#3E3F3F"/>
<path d="M7.91632 2.7085H7.76782C7.60604 2.7085 7.47485 2.83966 7.47485 3.00146C7.47485 3.16327 7.60604 3.29443 7.76782 3.29443H7.91632C8.07809 3.29443 8.20928 3.16327 8.20928 3.00146C8.20928 2.83966 8.07809 2.7085 7.91632 2.7085Z" fill="#3E3F3F"/>
<path d="M7.5 7.20703H7.42676C7.26498 7.20703 7.13379 7.33819 7.13379 7.5C7.13379 7.66181 7.26498 7.79297 7.42676 7.79297H7.5C7.66178 7.79297 7.79297 7.66178 7.79297 7.5C7.79297 7.33819 7.66178 7.20703 7.5 7.20703Z" fill="#3E3F3F"/>
<path d="M6.43066 11.7056H6.35742C6.19564 11.7056 6.06445 11.8367 6.06445 11.9985C6.06445 12.1603 6.19564 12.2915 6.35742 12.2915H6.43066C6.59244 12.2915 6.72363 12.1603 6.72363 11.9985C6.72363 11.8367 6.59244 11.7056 6.43066 11.7056Z" fill="#3E3F3F"/>
<path d="M9.32822 11.7056H9.18335C9.02157 11.7056 8.89038 11.8367 8.89038 11.9985C8.89038 12.1603 9.02157 12.2915 9.18335 12.2915H9.32822C9.49 12.2915 9.62119 12.1603 9.62119 11.9985C9.62119 11.8367 9.49003 11.7056 9.32822 11.7056Z" fill="#3E3F3F"/>
<path d="M11.9159 10.5473C11.7731 10.471 11.5957 10.5251 11.5196 10.6678C11.4998 10.7048 11.4787 10.7415 11.4567 10.777C11.3716 10.9146 11.4141 11.0951 11.5517 11.1803C11.5997 11.21 11.6529 11.2242 11.7056 11.2242C11.8037 11.2242 11.8995 11.1749 11.955 11.0854C11.9835 11.0393 12.0109 10.9917 12.0365 10.9437C12.1126 10.8009 12.0587 10.6234 11.9159 10.5473Z" fill="#3E3F3F"/>
<path d="M7.87948 11.7056H7.73461C7.57284 11.7056 7.44165 11.8367 7.44165 11.9985C7.44165 12.1603 7.57284 12.2915 7.73461 12.2915H7.87948C8.04126 12.2915 8.17244 12.1603 8.17244 11.9985C8.17244 11.8367 8.04129 11.7056 7.87948 11.7056Z" fill="#3E3F3F"/>
<path d="M12.3237 9.52006C12.3189 9.46592 12.3123 9.41122 12.3039 9.35752C12.2792 9.19762 12.1292 9.08811 11.9696 9.11287C11.8097 9.13765 11.7002 9.28736 11.7249 9.44723C11.7313 9.48854 11.7365 9.53055 11.7402 9.57218C11.7538 9.72446 11.8816 9.8391 12.0316 9.8391C12.0404 9.8391 12.0492 9.83872 12.058 9.83793C12.2192 9.82352 12.3382 9.68122 12.3237 9.52006Z" fill="#3E3F3F"/>
<path d="M11.6788 8.04557C11.6424 8.00523 11.6042 7.96562 11.5654 7.92783C11.4495 7.81492 11.264 7.81738 11.1511 7.93331C11.0382 8.04923 11.0406 8.23471 11.1566 8.34759C11.1865 8.37674 11.216 8.40733 11.2441 8.43847C11.302 8.50248 11.3816 8.535 11.4616 8.535C11.5316 8.53497 11.6019 8.51001 11.6579 8.45936C11.778 8.35087 11.7873 8.1656 11.6788 8.04557Z" fill="#3E3F3F"/>
<path d="M10.2781 7.25347C10.2248 7.24313 10.1704 7.23443 10.1165 7.22752C9.95588 7.20689 9.80928 7.32051 9.78877 7.481C9.76826 7.64149 9.88176 7.78824 10.0422 7.80875C10.0838 7.81405 10.1256 7.82076 10.1665 7.82873C10.1854 7.83239 10.2041 7.83415 10.2226 7.83415C10.3601 7.83412 10.4828 7.73685 10.51 7.59687C10.5408 7.43802 10.437 7.28429 10.2781 7.25347Z" fill="#3E3F3F"/>
<path d="M11.0111 11.6622C10.9424 11.5157 10.7679 11.4527 10.6214 11.5215C10.5837 11.5392 10.5448 11.556 10.5058 11.5713C10.3551 11.6304 10.2809 11.8004 10.34 11.951C10.3853 12.0665 10.4958 12.1371 10.6129 12.1371C10.6484 12.1371 10.6846 12.1305 10.7197 12.1168C10.7706 12.0968 10.8213 12.075 10.8705 12.0519C11.0169 11.9832 11.0799 11.8087 11.0111 11.6622Z" fill="#3E3F3F"/>
<path d="M8.77405 7.20703H8.70081C8.53903 7.20703 8.40784 7.33819 8.40784 7.5C8.40784 7.66181 8.53903 7.79297 8.70081 7.79297H8.77405C8.93585 7.79297 9.06702 7.66178 9.06702 7.5C9.06702 7.33819 8.93583 7.20703 8.77405 7.20703Z" fill="#3E3F3F"/>
</g>
<defs>
<clipPath id="clip0">
<path d="M0 0H15V15H0V0Z" fill="white"/>
</clipPath>
</defs>
</svg>
