<svg viewBox="0 0 15 15" fill="none" xmlns="http://www.w3.org/2000/svg">
<defs>
<linearGradient id="paint0_linear" x1="7.55561" y1="14.6795" x2="7.55561" y2="0.320512" gradientUnits="userSpaceOnUse">
<stop stop-color="#E93E3A"/>
<stop offset="0.328125" stop-color="#ED683C"/>
<stop offset="0.651042" stop-color="#F3903F"/>
<stop offset="1" stop-color="#FDC70C"/>
</linearGradient>
</defs>
<path d="M12.7734 0H2.22656C1.49962 0 0.908203 0.591416 0.908203 1.31836C0.908203 1.97845 1.39585 2.52668 2.0298 2.62198L6.18164 6.77382V11.0449C6.18164 11.3729 6.52784 11.5829 6.81762 11.438L8.57543 10.5591C8.72432 10.4846 8.81836 10.3325 8.81836 10.166V6.77382L12.9702 2.62198C13.6042 2.52668 14.0918 1.97845 14.0918 1.31836C14.0918 0.591416 13.5004 0 12.7734 0V0ZM8.06818 6.28104C7.98574 6.36346 7.93945 6.47525 7.93945 6.5918V9.8944L7.06055 10.3339V6.5918C7.06055 6.47525 7.01426 6.36346 6.93182 6.28104L3.28749 2.63672H11.7125L8.06818 6.28104ZM12.7735 1.75781C12.7734 1.75781 2.22656 1.75781 2.22653 1.75781C1.98422 1.75778 1.78711 1.56067 1.78711 1.31836C1.78711 1.07604 1.98425 0.878906 2.22656 0.878906H12.7734C13.0158 0.878906 13.2129 1.07604 13.2129 1.31836C13.2129 1.56067 13.0158 1.75778 12.7735 1.75781ZM7.86158 11.6741C7.77952 11.5553 7.64437 11.4844 7.5 11.4844C7.35563 11.4844 7.22048 11.5553 7.13842 11.6741C7.12904 11.6876 6.90624 12.0109 6.68042 12.4002C6.23335 13.1709 6.18164 13.5006 6.18164 13.6816C6.18164 14.4086 6.77306 15 7.5 15C8.22694 15 8.81836 14.4086 8.81836 13.6816C8.81836 13.5006 8.76665 13.1709 8.31958 12.4002C8.09376 12.0109 7.87096 11.6876 7.86158 11.6741ZM7.5 14.1211C7.25769 14.1211 7.06055 13.924 7.06055 13.6822C7.06412 13.5478 7.2469 13.1649 7.5 12.7385C7.75298 13.1648 7.9357 13.5475 7.93945 13.682C7.93925 13.9241 7.7422 14.1211 7.5 14.1211Z" 
fill="url(#paint0_linear)"/>
</svg>

