<svg width="20" height="20" viewBox="0 0 20 20" fill="none" xmlns="http://www.w3.org/2000/svg">
<path d="M15.6485 10.4141C14.1225 10.4141 12.7776 11.2037 12.0006 12.3959C11.3675 10.8611 10.1389 9.63251 8.60413 8.99957C9.79614 8.22244 10.5859 6.87753 10.5859 5.3515C10.5859 2.95206 8.63388 1 6.23444 1C3.83499 1 1.88278 2.95206 1.88278 5.3515C1.88278 6.87753 2.67258 8.22244 3.86475 8.99957C1.59897 9.93402 0 12.1664 0 14.7656V16.9622C0 18.1504 0.966644 19.1171 2.15485 19.1171H10.3137C11.273 19.1171 12.0874 18.4872 12.366 17.6193C13.1644 18.5365 14.3398 19.1171 15.6483 19.1171C18.0479 19.1171 20 17.165 20 14.7656C20 12.3661 18.0479 10.4141 15.6485 10.4141ZM3.05466 5.3515C3.05466 3.59827 4.48105 2.17188 6.23428 2.17188C7.98767 2.17188 9.41406 3.59827 9.41406 5.3515C9.41406 7.10489 7.98767 8.53113 6.23428 8.53113C4.48105 8.53113 3.05466 7.10474 3.05466 5.3515ZM11.2968 16.9622C11.2968 17.5042 10.8559 17.9452 10.3137 17.9452H2.15485C1.61285 17.9452 1.17188 17.5042 1.17188 16.9622V14.7656C1.17188 11.9741 3.44284 9.703 6.23444 9.703C9.02588 9.703 11.297 11.9741 11.297 14.7656V16.9622H11.2968ZM15.6485 17.9452C13.8953 17.9452 12.4689 16.5188 12.4689 14.7656C12.4689 13.0123 13.8953 11.5859 15.6485 11.5859C17.4017 11.5859 18.8281 13.0123 18.8281 14.7656C18.8281 16.5188 17.4017 17.9452 15.6485 17.9452Z" fill="#0DAEE1"/>
<path d="M15.5391 18.0234C17.4721 18.0234 19.0391 16.4564 19.0391 14.5234C19.0391 12.5904 17.4721 11.0234 15.5391 11.0234C13.6061 11.0234 12.0391 12.5904 12.0391 14.5234C12.0391 16.4564 13.6061 18.0234 15.5391 18.0234Z" fill="#0DAEE1"/>
<path d="M18.4737 14.019C18.6055 13.8872 18.5936 13.6616 18.4472 13.5152C18.3007 13.3687 18.0752 13.3568 17.9434 13.4886L15.2387 16.1933C15.1069 16.3251 15.1187 16.5507 15.2652 16.6971C15.4116 16.8436 15.6372 16.8555 15.769 16.7237L18.4737 14.019Z" fill="white"/>
<path d="M13.8346 14.2885C13.6881 14.1421 13.4507 14.1421 13.3042 14.2885C13.1578 14.435 13.1578 14.6724 13.3042 14.8189L15.1988 16.6068L15.5 16.5C15.5 16.5 16 16.5 15.7791 16.2331L13.8346 14.2885Z" fill="white"/>
</svg>
