<svg id="svg" version="1.1" xmlns="http://www.w3.org/2000/svg" xmlns:xlink="http://www.w3.org/1999/xlink" width="400" height="400" viewBox="0, 0, 400,400"><g id="svgg"><path id="path0" d="M361.758 266.009 C 360.899 266.275,352.460 274.449,334.312 292.596 C 318.164 308.743,307.817 318.800,307.352 318.800 C 306.893 318.800,301.038 313.228,292.399 304.571 C 275.729 287.866,275.221 287.505,270.733 289.185 C 266.483 290.775,264.475 295.606,266.486 299.400 C 267.204 300.755,301.070 334.883,303.214 336.411 C 305.239 337.856,309.143 337.814,311.400 336.324 C 313.247 335.105,369.932 278.348,370.934 276.714 C 374.338 271.164,368.211 264.016,361.758 266.009 " stroke="none" fill="#f9fbfb" fill-rule="evenodd"></path><path id="path1" d="M112.200 18.800 C 112.064 19.020,110.894 19.200,109.600 19.200 C 108.306 19.200,107.136 19.380,107.000 19.600 C 106.864 19.820,106.223 20.000,105.576 20.000 C 104.929 20.000,104.400 20.180,104.400 20.400 C 104.400 20.620,103.601 20.800,102.624 20.800 C 101.647 20.800,100.736 20.980,100.600 21.200 C 100.464 21.420,99.834 21.600,99.200 21.600 C 98.566 21.600,97.936 21.780,97.800 22.000 C 97.664 22.220,97.124 22.400,96.600 22.400 C 96.076 22.400,95.536 22.580,95.400 22.800 C 95.264 23.020,94.623 23.200,93.976 23.200 C 93.329 23.200,92.800 23.380,92.800 23.600 C 92.800 23.820,92.440 24.000,92.000 24.000 C 91.560 24.000,91.200 24.180,91.200 24.400 C 91.200 24.620,90.660 24.800,90.000 24.800 C 89.340 24.800,88.800 24.980,88.800 25.200 C 88.800 25.420,88.423 25.600,87.963 25.600 C 87.450 25.600,87.040 25.924,86.907 26.434 C 86.740 27.074,86.607 27.143,86.337 26.734 C 86.053 26.303,85.882 26.334,85.453 26.894 C 85.160 27.275,84.821 27.488,84.699 27.366 C 84.362 27.028,81.192 28.756,80.939 29.416 C 80.816 29.735,80.570 29.905,80.390 29.794 C 80.211 29.683,79.793 29.864,79.461 30.196 C 79.129 30.528,78.664 30.800,78.429 30.800 C 78.193 30.800,78.000 30.980,78.000 31.200 C 78.000 31.420,77.717 31.600,77.371 31.600 C 76.714 31.600,75.513 32.580,75.809 32.876 C 75.903 32.970,75.354 33.273,74.590 33.549 C 73.825 33.826,73.200 34.220,73.200 34.426 C 73.200 34.632,72.930 34.800,72.600 34.800 C 72.270 34.800,72.000 34.980,72.000 35.200 C 72.000 35.420,71.770 35.600,71.488 35.600 C 71.207 35.600,70.717 35.960,70.400 36.400 C 70.083 36.840,69.593 37.200,69.312 37.200 C 69.030 37.200,68.800 37.380,68.800 37.600 C 68.800 37.820,68.615 38.000,68.389 38.000 C 67.813 38.000,64.404 41.471,64.695 41.761 C 64.826 41.893,64.543 42.000,64.067 42.000 C 63.590 42.000,63.200 42.180,63.200 42.400 C 63.200 42.620,62.991 42.800,62.736 42.800 C 62.230 42.800,60.000 45.141,60.000 45.672 C 60.000 45.852,59.790 45.955,59.533 45.900 C 59.276 45.845,58.828 46.250,58.539 46.800 C 58.249 47.350,58.009 47.652,58.006 47.471 C 57.998 47.038,56.800 48.242,56.800 48.683 C 56.800 48.870,56.440 49.283,56.000 49.600 C 55.560 49.917,55.200 50.295,55.200 50.439 C 55.200 50.583,54.480 51.466,53.600 52.400 C 52.720 53.334,52.000 54.347,52.000 54.649 C 52.000 54.952,51.820 55.200,51.600 55.200 C 51.380 55.200,51.200 55.399,51.200 55.642 C 51.200 55.886,50.660 56.767,50.000 57.600 C 49.340 58.433,48.800 59.314,48.800 59.558 C 48.800 59.801,48.649 60.000,48.464 60.000 C 48.279 60.000,47.892 60.714,47.604 61.587 C 47.316 62.459,46.928 63.079,46.740 62.963 C 46.553 62.847,46.400 63.123,46.400 63.576 C 46.400 64.029,46.220 64.400,46.000 64.400 C 45.780 64.400,45.600 64.662,45.600 64.982 C 45.600 65.303,45.065 66.473,44.410 67.582 C 43.756 68.692,43.351 69.603,43.510 69.606 C 43.670 69.609,43.616 69.744,43.392 69.906 C 42.825 70.314,42.000 72.278,42.000 73.219 C 42.000 73.648,41.820 74.000,41.600 74.000 C 41.380 74.000,41.200 74.540,41.200 75.200 C 41.200 75.860,41.020 76.400,40.800 76.400 C 40.580 76.400,40.400 76.749,40.400 77.176 C 40.400 77.603,40.220 78.064,40.000 78.200 C 39.780 78.336,39.600 79.077,39.600 79.847 C 39.600 80.679,39.438 81.147,39.200 81.000 C 38.962 80.853,38.800 81.329,38.800 82.176 C 38.800 82.959,38.620 83.600,38.400 83.600 C 38.180 83.600,38.000 84.410,38.000 85.400 C 38.000 86.390,37.827 87.200,37.615 87.200 C 37.403 87.200,37.245 88.009,37.265 88.998 C 37.285 89.988,37.054 91.094,36.751 91.459 C 36.448 91.824,36.245 92.185,36.300 92.261 C 36.619 92.704,36.342 96.811,36.007 96.604 C 35.172 96.088,35.987 121.301,36.834 122.180 C 37.035 122.389,37.200 123.298,37.200 124.200 C 37.200 125.102,37.374 126.014,37.587 126.227 C 37.799 126.439,38.016 127.183,38.069 127.879 C 38.123 128.575,38.309 129.056,38.483 128.949 C 38.657 128.841,38.800 129.393,38.800 130.176 C 38.800 130.959,38.980 131.600,39.200 131.600 C 39.420 131.600,39.600 132.320,39.600 133.200 C 39.600 134.080,39.780 134.800,40.000 134.800 C 40.220 134.800,40.400 135.149,40.400 135.576 C 40.400 136.003,40.580 136.464,40.800 136.600 C 41.020 136.736,41.200 137.287,41.200 137.824 C 41.200 138.361,41.380 138.800,41.600 138.800 C 41.820 138.800,42.000 139.340,42.000 140.000 C 42.000 140.660,42.142 141.200,42.315 141.200 C 42.488 141.200,42.659 141.589,42.695 142.064 C 42.731 142.539,42.994 143.076,43.280 143.258 C 43.566 143.439,43.665 143.591,43.501 143.594 C 42.955 143.605,48.871 154.277,50.267 155.800 C 50.670 156.240,51.255 157.095,51.568 157.700 C 51.880 158.305,52.285 158.800,52.468 158.800 C 52.650 158.800,52.800 159.038,52.800 159.329 C 52.800 159.620,54.865 162.005,57.390 164.629 C 59.914 167.253,62.315 169.760,62.725 170.200 C 63.135 170.640,64.691 172.080,66.182 173.400 C 67.673 174.720,69.264 176.205,69.718 176.700 C 70.173 177.195,70.705 177.600,70.901 177.600 C 71.477 177.600,72.400 178.691,72.400 179.371 C 72.400 179.918,71.684 180.203,70.700 180.047 C 70.535 180.021,70.400 180.180,70.400 180.400 C 70.400 180.620,70.158 180.800,69.861 180.800 C 69.565 180.800,68.907 181.160,68.400 181.600 C 67.893 182.040,67.271 182.400,67.019 182.400 C 66.331 182.400,64.407 183.356,64.403 183.700 C 64.401 183.865,64.062 184.000,63.649 184.000 C 63.236 184.000,62.676 184.268,62.404 184.596 C 62.132 184.923,61.750 185.093,61.555 184.972 C 61.360 184.851,61.200 184.943,61.200 185.176 C 61.200 185.409,61.003 185.600,60.762 185.600 C 60.521 185.600,59.833 185.949,59.234 186.376 C 58.634 186.803,57.888 187.208,57.576 187.276 C 57.263 187.344,56.529 187.895,55.943 188.500 C 55.358 189.105,54.668 189.600,54.411 189.600 C 53.789 189.600,52.772 190.638,53.086 190.952 C 53.222 191.089,53.061 191.200,52.728 191.200 C 51.812 191.200,49.600 192.399,49.600 192.896 C 49.600 193.137,49.491 193.224,49.357 193.090 C 49.223 192.957,48.640 193.287,48.061 193.824 C 47.482 194.361,46.861 194.800,46.680 194.800 C 46.500 194.800,46.446 194.951,46.560 195.135 C 46.674 195.320,46.052 195.873,45.178 196.364 C 44.304 196.856,43.692 197.425,43.818 197.629 C 43.944 197.833,43.864 198.000,43.640 198.000 C 43.416 198.000,42.498 198.720,41.600 199.600 C 40.702 200.480,39.705 201.200,39.384 201.200 C 39.063 201.200,38.800 201.560,38.800 202.000 C 38.800 202.497,38.533 202.800,38.096 202.800 C 37.413 202.800,36.144 204.296,36.315 204.900 C 36.362 205.065,36.265 205.179,36.100 205.153 C 35.210 205.012,34.800 205.287,34.800 206.024 C 34.800 206.477,34.643 206.750,34.452 206.632 C 34.260 206.513,33.692 206.773,33.190 207.208 C 32.688 207.644,32.440 208.006,32.639 208.013 C 32.837 208.021,32.631 208.336,32.181 208.713 C 31.730 209.091,31.225 209.755,31.059 210.189 C 30.823 210.806,30.684 210.860,30.422 210.436 C 30.166 210.021,30.023 210.096,29.813 210.758 C 29.663 211.233,29.105 211.906,28.573 212.254 C 28.042 212.603,27.706 213.048,27.827 213.244 C 27.948 213.440,27.857 213.600,27.624 213.600 C 27.391 213.600,27.200 213.881,27.200 214.224 C 27.200 214.567,27.034 214.744,26.831 214.619 C 26.627 214.493,26.049 214.978,25.545 215.695 C 25.041 216.413,24.487 217.060,24.314 217.133 C 24.142 217.207,24.000 217.501,24.000 217.788 C 24.000 218.075,23.462 218.735,22.804 219.255 C 21.616 220.193,21.141 221.089,22.100 220.583 C 22.375 220.438,22.015 220.857,21.300 221.513 C 20.585 222.169,20.000 222.957,20.000 223.264 C 20.000 223.572,19.640 224.083,19.200 224.400 C 18.760 224.717,18.400 225.257,18.400 225.600 C 18.400 225.943,18.040 226.483,17.600 226.800 C 17.160 227.117,16.800 227.607,16.800 227.888 C 16.800 228.170,16.649 228.400,16.464 228.400 C 16.279 228.400,15.890 229.120,15.600 230.000 C 15.310 230.880,14.932 231.600,14.762 231.600 C 14.591 231.600,14.224 232.230,13.946 233.000 C 13.667 233.770,13.311 234.400,13.154 234.400 C 12.768 234.400,9.799 240.446,9.815 241.200 C 9.822 241.530,9.506 242.091,9.114 242.447 C 8.721 242.803,8.400 243.388,8.400 243.747 C 8.400 244.106,8.220 244.400,8.000 244.400 C 7.780 244.400,7.600 244.839,7.600 245.376 C 7.600 245.913,7.420 246.464,7.200 246.600 C 6.980 246.736,6.800 247.163,6.800 247.548 C 6.800 247.934,6.440 248.995,6.000 249.906 C 5.560 250.816,5.200 251.829,5.200 252.157 C 5.200 252.485,5.020 252.864,4.800 253.000 C 4.580 253.136,4.400 253.676,4.400 254.200 C 4.400 254.724,4.240 255.252,4.044 255.373 C 3.849 255.494,3.599 256.179,3.489 256.896 C 3.161 259.039,2.842 260.118,2.409 260.551 C 2.184 260.776,2.000 261.655,2.000 262.504 C 2.000 263.431,1.840 263.948,1.600 263.800 C 1.345 263.642,1.200 264.870,1.200 267.200 C 1.200 269.279,1.044 270.751,0.837 270.623 C -0.202 269.980,-0.335 351.665,0.703 353.480 C 0.980 353.964,1.258 354.864,1.320 355.480 C 1.479 357.044,3.013 360.177,4.203 361.367 C 4.751 361.915,5.200 362.642,5.200 362.982 C 5.200 363.322,5.380 363.600,5.600 363.600 C 5.820 363.600,6.000 363.879,6.000 364.219 C 6.000 364.560,6.900 365.738,8.000 366.838 C 9.100 367.938,10.000 369.090,10.000 369.399 C 10.000 369.707,10.672 370.463,11.494 371.080 C 12.316 371.696,13.412 372.695,13.930 373.300 C 14.447 373.905,15.125 374.400,15.436 374.400 C 15.746 374.400,16.000 374.580,16.000 374.800 C 16.000 375.020,16.405 375.203,16.900 375.206 C 17.554 375.211,17.653 375.306,17.260 375.555 C 16.857 375.810,17.035 376.037,17.960 376.446 C 18.642 376.748,19.200 377.131,19.200 377.298 C 19.200 377.464,19.343 377.555,19.519 377.500 C 19.914 377.376,23.750 379.288,23.933 379.700 C 24.007 379.865,24.472 380.000,24.967 380.000 C 25.462 380.000,25.990 380.123,26.141 380.274 C 26.580 380.713,29.319 381.587,30.276 381.594 C 30.758 381.597,31.264 381.780,31.400 382.000 C 31.536 382.220,32.436 382.400,33.400 382.400 C 34.364 382.400,35.264 382.580,35.400 382.800 C 35.744 383.356,212.166 383.353,213.205 382.797 C 213.619 382.576,214.462 382.374,215.079 382.350 C 215.695 382.325,216.560 382.167,217.000 381.998 C 218.628 381.373,221.409 380.606,221.700 380.701 C 221.865 380.756,222.000 380.620,222.000 380.400 C 222.000 380.180,222.360 380.000,222.800 380.000 C 223.240 380.000,223.600 379.820,223.600 379.600 C 223.600 379.380,223.842 379.200,224.139 379.200 C 225.002 379.200,227.239 377.963,227.472 377.356 C 227.590 377.050,227.949 376.800,228.271 376.800 C 228.942 376.800,232.400 374.511,232.400 374.067 C 232.400 373.905,232.916 373.467,233.547 373.095 C 234.840 372.331,239.200 368.150,239.200 367.674 C 239.200 367.503,240.100 366.390,241.200 365.200 C 242.300 364.010,243.200 362.803,243.200 362.518 C 243.200 362.233,243.391 362.000,243.624 362.000 C 243.857 362.000,243.950 361.843,243.832 361.652 C 243.714 361.461,244.063 360.786,244.608 360.152 C 245.153 359.518,245.599 358.595,245.600 358.100 C 245.600 357.605,245.780 357.200,246.000 357.200 C 246.220 357.200,246.403 356.705,246.406 356.100 C 246.411 355.243,246.498 355.132,246.800 355.600 C 247.053 355.992,247.190 356.028,247.194 355.705 C 247.197 355.433,248.570 356.558,250.244 358.205 C 251.918 359.852,253.495 361.200,253.748 361.200 C 254.001 361.200,254.432 361.560,254.707 362.000 C 254.982 362.440,255.388 362.800,255.609 362.800 C 255.830 362.800,256.546 363.385,257.200 364.100 C 258.196 365.190,258.453 365.303,258.788 364.800 C 259.136 364.278,259.189 364.286,259.194 364.857 C 259.200 365.520,260.261 366.209,261.000 366.030 C 261.220 365.977,261.274 366.060,261.119 366.214 C 260.735 366.599,261.542 367.335,263.100 368.022 C 263.815 368.337,264.405 368.776,264.411 368.998 C 264.423 369.426,268.452 372.000,269.111 372.000 C 269.326 372.000,269.721 372.264,269.989 372.587 C 270.257 372.910,270.594 373.142,270.738 373.102 C 270.882 373.063,271.381 373.242,271.847 373.501 C 272.313 373.760,272.808 373.888,272.947 373.786 C 273.086 373.684,273.113 373.717,273.006 373.860 C 272.681 374.297,274.138 375.174,275.212 375.187 C 275.768 375.194,276.483 375.560,276.800 376.000 C 277.139 376.470,277.835 376.800,278.488 376.800 C 279.100 376.800,279.600 376.980,279.600 377.200 C 279.600 377.420,279.949 377.600,280.376 377.600 C 280.803 377.600,281.264 377.780,281.400 378.000 C 281.536 378.220,282.277 378.400,283.047 378.400 C 283.879 378.400,284.347 378.562,284.200 378.800 C 284.060 379.026,284.388 379.200,284.953 379.200 C 285.503 379.200,286.064 379.380,286.200 379.600 C 286.336 379.820,287.157 380.000,288.024 380.000 C 288.891 380.000,289.600 380.180,289.600 380.400 C 289.600 380.620,290.320 380.800,291.200 380.800 C 292.080 380.800,292.800 380.980,292.800 381.200 C 292.800 381.420,293.610 381.600,294.600 381.600 C 295.590 381.600,296.400 381.753,296.400 381.940 C 296.400 382.127,297.523 382.314,298.895 382.355 C 300.267 382.396,301.563 382.603,301.775 382.815 C 302.306 383.346,322.400 383.331,322.400 382.800 C 322.400 382.574,323.533 382.400,325.000 382.400 C 326.467 382.400,327.600 382.226,327.600 382.000 C 327.600 381.780,328.399 381.600,329.376 381.600 C 330.353 381.600,331.264 381.420,331.400 381.200 C 331.536 380.980,332.346 380.800,333.200 380.800 C 334.054 380.800,334.864 380.620,335.000 380.400 C 335.136 380.180,335.766 380.000,336.400 380.000 C 337.034 380.000,337.664 379.820,337.800 379.600 C 337.936 379.380,338.566 379.200,339.200 379.200 C 339.834 379.200,340.464 379.020,340.600 378.800 C 340.736 378.580,341.259 378.400,341.762 378.400 C 342.265 378.400,343.002 378.040,343.400 377.600 C 343.798 377.160,344.559 376.800,345.091 376.800 C 345.622 376.800,346.311 376.546,346.622 376.236 C 346.932 375.925,347.549 375.766,347.993 375.882 C 348.447 376.001,348.800 375.898,348.800 375.647 C 348.800 375.401,349.072 375.200,349.405 375.200 C 349.992 375.200,351.594 374.440,352.000 373.968 C 352.110 373.840,352.785 373.481,353.500 373.170 C 354.215 372.859,354.800 372.483,354.800 372.334 C 354.800 372.185,355.340 371.945,356.000 371.800 C 356.660 371.655,357.200 371.371,357.200 371.168 C 357.200 370.966,357.470 370.800,357.800 370.800 C 358.130 370.800,358.400 370.640,358.400 370.443 C 358.400 370.247,358.850 369.974,359.400 369.836 C 359.950 369.698,360.400 369.330,360.400 369.019 C 360.400 368.708,360.760 368.340,361.200 368.200 C 361.640 368.060,362.000 367.748,362.000 367.506 C 362.000 367.265,362.106 367.173,362.236 367.303 C 362.366 367.432,363.022 367.012,363.695 366.369 C 364.368 365.726,365.162 365.200,365.459 365.200 C 365.757 365.200,366.000 365.020,366.000 364.800 C 366.000 364.580,366.225 364.399,366.500 364.398 C 366.775 364.397,367.575 363.857,368.278 363.198 C 368.981 362.539,369.677 362.000,369.825 362.000 C 369.972 362.000,370.750 361.325,371.554 360.500 C 372.357 359.675,373.371 358.800,373.807 358.556 C 374.243 358.312,374.575 357.952,374.545 357.756 C 374.487 357.374,376.110 355.772,377.530 354.812 C 378.009 354.488,378.400 353.983,378.400 353.688 C 378.400 353.394,378.580 353.264,378.800 353.400 C 379.020 353.536,379.200 353.432,379.200 353.169 C 379.200 352.907,379.605 352.306,380.100 351.834 C 381.451 350.548,383.997 347.444,383.999 347.083 C 383.999 346.908,384.456 346.278,385.012 345.683 C 385.569 345.087,386.139 344.150,386.278 343.600 C 386.418 343.050,387.061 341.939,387.708 341.130 C 388.355 340.322,388.777 339.486,388.645 339.272 C 388.513 339.059,388.682 338.777,389.020 338.648 C 389.586 338.430,390.792 336.108,390.975 334.883 C 391.017 334.598,391.310 334.054,391.626 333.674 C 391.942 333.293,392.261 332.626,392.337 332.191 C 392.412 331.756,392.637 331.340,392.837 331.267 C 393.036 331.193,393.200 330.778,393.200 330.343 C 393.200 329.908,393.380 329.664,393.600 329.800 C 393.833 329.944,394.000 329.537,394.000 328.824 C 394.000 328.151,394.180 327.600,394.400 327.600 C 394.620 327.600,394.800 327.060,394.800 326.400 C 394.800 325.740,394.980 325.200,395.200 325.200 C 395.420 325.200,395.600 324.739,395.600 324.176 C 395.600 323.596,395.773 323.260,396.000 323.400 C 396.242 323.550,396.400 322.996,396.400 322.000 C 396.400 321.004,396.558 320.450,396.800 320.600 C 397.038 320.747,397.200 320.271,397.200 319.424 C 397.200 318.641,397.380 318.000,397.600 318.000 C 397.820 318.000,398.000 317.381,398.000 316.624 C 398.000 315.867,398.156 315.151,398.347 315.033 C 398.538 314.915,398.728 313.149,398.769 311.109 C 398.810 309.069,399.013 307.229,399.222 307.020 C 399.748 306.492,399.727 282.800,399.200 282.800 C 398.960 282.800,398.800 281.200,398.800 278.800 C 398.800 276.400,398.640 274.800,398.400 274.800 C 398.180 274.800,398.000 274.080,398.000 273.200 C 398.000 272.320,397.820 271.600,397.600 271.600 C 397.380 271.600,397.200 271.060,397.200 270.400 C 397.200 269.740,397.020 269.200,396.800 269.200 C 396.580 269.200,396.400 268.660,396.400 268.000 C 396.400 267.340,396.220 266.800,396.000 266.800 C 395.780 266.800,395.600 266.260,395.600 265.600 C 395.600 264.940,395.420 264.400,395.200 264.400 C 394.980 264.400,394.800 264.076,394.800 263.680 C 394.800 262.786,393.906 260.807,393.500 260.803 C 393.335 260.801,393.200 260.386,393.200 259.880 C 393.200 258.826,392.347 256.808,391.900 256.803 C 391.735 256.801,391.600 256.518,391.600 256.174 C 391.600 255.829,390.776 253.903,389.768 251.893 C 388.096 248.558,387.136 247.061,385.415 245.100 C 385.077 244.715,384.800 244.174,384.800 243.898 C 384.800 243.622,384.080 242.631,383.200 241.697 C 382.320 240.763,381.600 239.729,381.600 239.399 C 381.600 239.067,381.244 238.800,380.800 238.800 C 380.360 238.800,380.000 238.545,380.000 238.234 C 380.000 237.548,377.370 234.764,377.036 235.097 C 376.906 235.227,376.800 235.159,376.800 234.946 C 376.800 234.364,372.366 229.974,372.004 230.197 C 371.832 230.304,371.597 230.033,371.483 229.596 C 371.369 229.158,370.988 228.800,370.637 228.800 C 370.287 228.800,370.000 228.530,370.000 228.200 C 370.000 227.870,369.811 227.600,369.580 227.600 C 369.349 227.600,368.512 226.970,367.719 226.200 C 366.926 225.430,366.056 224.800,365.785 224.800 C 365.515 224.800,365.206 224.465,365.099 224.057 C 364.992 223.648,364.341 223.064,363.652 222.759 C 362.964 222.454,362.400 222.069,362.400 221.902 C 362.400 221.736,362.196 221.600,361.947 221.600 C 361.698 221.600,361.201 221.285,360.843 220.900 C 360.005 220.000,358.578 219.200,357.809 219.200 C 357.478 219.200,356.982 218.840,356.707 218.400 C 356.432 217.960,355.981 217.600,355.704 217.600 C 355.427 217.600,355.200 217.443,355.200 217.252 C 355.200 217.061,354.393 216.678,353.407 216.402 C 352.421 216.126,351.712 215.743,351.831 215.550 C 351.950 215.358,351.777 215.200,351.446 215.200 C 351.116 215.200,350.198 214.818,349.406 214.350 C 348.614 213.883,347.862 213.605,347.735 213.731 C 347.609 213.858,347.267 213.724,346.976 213.433 C 346.352 212.809,337.761 209.802,336.600 209.801 C 336.160 209.800,335.701 209.668,335.580 209.506 C 335.459 209.344,334.695 209.164,333.881 209.106 C 333.067 209.048,332.398 208.820,332.395 208.600 C 332.391 208.380,332.213 208.470,332.000 208.800 C 331.742 209.200,331.610 209.233,331.606 208.900 C 331.602 208.584,331.010 208.400,330.000 208.400 C 329.120 208.400,328.400 208.220,328.400 208.000 C 328.400 207.778,327.333 207.600,326.000 207.600 C 324.667 207.600,323.600 207.422,323.600 207.200 C 323.600 206.943,319.525 206.800,312.176 206.800 C 304.663 206.800,300.837 206.937,301.000 207.200 C 301.156 207.452,300.212 207.600,298.447 207.600 C 296.907 207.600,295.536 207.780,295.400 208.000 C 295.264 208.220,294.728 208.400,294.210 208.400 C 293.691 208.400,293.175 208.625,293.064 208.900 C 292.906 209.289,292.777 209.280,292.481 208.859 C 292.190 208.444,291.909 208.420,291.277 208.759 C 290.824 209.001,290.081 209.200,289.626 209.200 C 289.172 209.200,288.800 209.372,288.800 209.581 C 288.800 209.791,288.395 209.937,287.900 209.907 C 286.872 209.844,284.983 210.278,283.783 210.854 C 283.333 211.070,282.703 211.298,282.383 211.362 C 282.062 211.425,281.293 211.685,280.674 211.939 C 280.055 212.192,279.422 212.400,279.268 212.400 C 279.114 212.400,278.316 212.760,277.494 213.201 C 276.672 213.641,276.000 213.899,276.000 213.774 C 276.000 213.648,275.505 213.888,274.900 214.308 C 274.295 214.727,273.485 215.183,273.100 215.322 C 272.715 215.461,272.400 215.750,272.400 215.964 C 272.400 216.179,272.040 216.285,271.600 216.200 C 271.160 216.115,270.800 216.216,270.800 216.423 C 270.800 216.630,270.575 216.805,270.300 216.811 C 270.025 216.817,269.093 217.357,268.229 218.011 C 267.365 218.665,266.438 219.200,266.171 219.200 C 265.903 219.200,265.269 219.631,264.763 220.157 C 264.256 220.683,263.652 221.042,263.421 220.954 C 263.189 220.866,262.212 221.516,261.249 222.397 C 260.287 223.279,259.327 224.000,259.116 224.000 C 258.906 224.000,258.135 224.616,257.403 225.370 C 256.671 226.123,255.975 226.642,255.855 226.522 C 255.526 226.192,254.400 227.458,254.400 228.159 C 254.400 228.507,254.169 228.686,253.868 228.571 C 253.576 228.459,252.993 228.824,252.574 229.383 C 252.154 229.943,251.583 230.400,251.305 230.400 C 251.027 230.400,250.800 230.587,250.800 230.816 C 250.800 231.045,249.630 232.368,248.200 233.756 C 246.770 235.145,245.600 236.487,245.600 236.740 C 245.600 236.993,245.352 237.200,245.049 237.200 C 244.745 237.200,244.273 237.740,244.000 238.400 C 243.727 239.060,243.267 239.600,242.978 239.600 C 242.690 239.600,242.340 239.960,242.200 240.400 C 242.060 240.840,241.778 241.200,241.573 241.200 C 241.368 241.200,241.200 241.560,241.200 242.000 C 241.200 242.452,240.933 242.800,240.587 242.800 C 240.250 242.800,239.811 243.205,239.612 243.700 C 239.330 244.403,239.245 244.445,239.225 243.891 C 239.177 242.537,236.866 238.000,236.225 238.000 C 235.867 238.000,235.600 237.659,235.600 237.200 C 235.600 236.760,235.420 236.400,235.200 236.400 C 234.980 236.400,234.800 236.029,234.800 235.576 C 234.800 235.123,234.650 234.845,234.468 234.958 C 234.285 235.071,233.891 234.542,233.593 233.782 C 233.295 233.022,232.904 232.400,232.725 232.400 C 232.546 232.400,232.400 231.950,232.400 231.400 C 232.400 230.850,232.220 230.400,232.000 230.400 C 231.780 230.400,231.600 230.166,231.600 229.880 C 231.600 229.144,230.659 227.207,230.300 227.203 C 230.135 227.201,230.000 227.007,230.000 226.772 C 230.000 226.265,227.591 222.659,227.123 222.467 C 226.945 222.393,226.800 222.149,226.800 221.924 C 226.800 221.318,224.730 218.982,224.306 219.110 C 224.105 219.170,224.057 219.032,224.199 218.802 C 224.487 218.336,221.754 214.400,221.142 214.400 C 220.928 214.400,220.864 214.220,221.000 214.000 C 221.136 213.780,221.094 213.600,220.906 213.600 C 220.718 213.600,219.882 212.705,219.048 211.611 C 218.214 210.518,217.330 209.663,217.084 209.711 C 216.838 209.760,216.628 209.601,216.618 209.359 C 216.591 208.705,213.354 205.200,212.777 205.200 C 212.504 205.200,211.451 204.345,210.438 203.300 C 209.425 202.255,207.967 200.926,207.198 200.348 C 206.429 199.769,205.134 198.644,204.320 197.848 C 203.506 197.051,202.733 196.400,202.603 196.400 C 202.312 196.400,201.566 195.790,199.792 194.100 C 199.041 193.385,198.241 192.800,198.013 192.800 C 197.786 192.800,197.600 192.620,197.600 192.400 C 197.600 192.180,197.330 192.000,197.000 192.000 C 196.670 192.000,196.400 191.809,196.400 191.576 C 196.400 191.343,196.220 191.264,196.000 191.400 C 195.780 191.536,195.600 191.367,195.600 191.024 C 195.600 190.681,195.364 190.400,195.075 190.400 C 194.787 190.400,194.164 190.040,193.692 189.600 C 193.220 189.160,192.571 188.800,192.250 188.800 C 191.929 188.800,191.607 188.655,191.533 188.477 C 191.341 188.009,187.735 185.600,187.228 185.600 C 186.993 185.600,186.800 185.441,186.800 185.247 C 186.800 185.052,186.485 184.793,186.100 184.671 C 185.715 184.549,184.950 184.187,184.400 183.867 C 183.850 183.547,182.140 182.681,180.600 181.944 C 179.060 181.207,177.740 180.468,177.667 180.302 C 177.593 180.136,177.224 180.000,176.847 180.000 C 176.133 180.000,175.200 179.275,175.200 178.720 C 175.200 178.544,175.475 178.400,175.811 178.400 C 176.146 178.400,177.231 177.590,178.221 176.600 C 179.211 175.610,180.196 174.800,180.411 174.800 C 180.625 174.800,180.800 174.530,180.800 174.200 C 180.800 173.870,181.083 173.600,181.429 173.600 C 182.174 173.600,183.269 172.603,182.914 172.248 C 182.778 172.111,182.887 172.000,183.157 172.000 C 183.427 172.000,183.533 171.816,183.394 171.590 C 183.255 171.365,183.289 171.220,183.470 171.269 C 184.143 171.451,185.440 170.776,186.011 169.946 C 186.335 169.475,187.005 168.673,187.500 168.163 C 187.995 167.653,188.400 166.958,188.400 166.618 C 188.400 166.278,188.681 166.000,189.024 166.000 C 189.367 166.000,189.536 165.820,189.400 165.600 C 189.264 165.380,189.442 165.200,189.795 165.200 C 190.566 165.200,191.986 163.814,192.768 162.300 C 193.080 161.695,193.485 161.200,193.668 161.200 C 193.850 161.200,194.000 160.906,194.000 160.547 C 194.000 160.188,194.372 159.571,194.826 159.177 C 195.281 158.783,195.596 158.375,195.526 158.270 C 195.457 158.164,195.985 157.436,196.700 156.650 C 197.415 155.864,198.000 155.072,198.000 154.890 C 198.000 154.302,198.991 152.406,199.300 152.403 C 199.465 152.401,199.600 152.130,199.600 151.800 C 199.600 151.470,199.768 151.200,199.974 151.200 C 200.180 151.200,200.576 150.570,200.854 149.800 C 201.133 149.030,201.505 148.400,201.680 148.400 C 201.856 148.400,202.000 148.034,202.000 147.587 C 202.000 147.141,202.284 146.666,202.631 146.533 C 203.196 146.316,204.028 144.854,204.184 143.800 C 204.259 143.295,204.981 141.567,206.189 139.000 C 206.960 137.362,208.025 134.509,208.206 133.600 C 208.526 131.982,208.955 130.520,209.201 130.200 C 209.371 129.980,209.613 129.080,209.740 128.200 C 210.234 124.758,210.502 123.584,210.844 123.373 C 211.040 123.252,211.200 122.094,211.200 120.800 C 211.200 119.506,211.380 118.336,211.600 118.200 C 211.851 118.045,212.000 113.729,212.000 106.576 C 212.000 99.259,211.857 95.200,211.600 95.200 C 211.375 95.200,211.200 94.075,211.200 92.624 C 211.200 91.207,211.020 89.936,210.800 89.800 C 210.580 89.664,210.400 88.843,210.400 87.976 C 210.400 87.109,210.220 86.400,210.000 86.400 C 209.780 86.400,209.600 85.590,209.600 84.600 C 209.600 83.610,209.420 82.800,209.200 82.800 C 208.980 82.800,208.800 82.290,208.800 81.667 C 208.800 81.043,208.675 80.408,208.522 80.255 C 208.369 80.102,208.203 79.698,208.153 79.357 C 208.103 79.016,207.931 78.437,207.771 78.069 C 207.611 77.701,207.417 77.078,207.340 76.684 C 207.263 76.291,206.859 75.301,206.443 74.484 C 206.027 73.668,205.645 72.820,205.595 72.600 C 205.340 71.478,204.778 70.400,204.447 70.400 C 204.242 70.400,204.168 70.046,204.281 69.613 C 204.416 69.095,204.095 68.426,203.343 67.659 C 202.005 66.294,201.200 65.025,201.200 64.281 C 201.200 63.989,200.885 63.402,200.500 62.975 C 199.771 62.168,199.220 61.103,198.392 58.900 C 198.123 58.185,197.745 57.600,197.551 57.600 C 197.358 57.600,197.200 57.330,197.200 57.000 C 197.200 56.670,197.020 56.400,196.800 56.400 C 196.580 56.400,196.400 56.170,196.400 55.888 C 196.400 55.607,196.040 55.117,195.600 54.800 C 195.160 54.483,194.800 53.943,194.800 53.600 C 194.800 53.257,194.440 52.717,194.000 52.400 C 193.560 52.083,193.200 51.593,193.200 51.312 C 193.200 51.030,193.020 50.800,192.800 50.800 C 192.580 50.800,192.397 50.485,192.394 50.100 C 192.389 49.502,192.331 49.487,192.000 50.000 C 191.657 50.530,191.612 50.528,191.606 49.986 C 191.597 49.061,185.428 42.000,184.628 42.000 C 184.485 42.000,183.683 41.280,182.846 40.400 C 182.009 39.520,181.026 38.800,180.662 38.800 C 180.298 38.800,180.000 38.620,180.000 38.400 C 180.000 38.180,179.719 38.000,179.376 38.000 C 179.033 38.000,178.856 37.834,178.981 37.631 C 179.224 37.237,177.174 35.600,176.438 35.600 C 176.197 35.600,176.000 35.420,176.000 35.200 C 176.000 34.980,175.807 34.800,175.572 34.800 C 175.065 34.800,171.459 32.391,171.267 31.923 C 171.193 31.745,170.828 31.600,170.456 31.600 C 170.083 31.600,169.480 31.285,169.117 30.900 C 167.622 29.316,164.194 27.433,163.540 27.837 C 163.252 28.015,163.185 27.949,163.362 27.662 C 163.533 27.385,163.386 27.200,162.995 27.200 C 162.636 27.200,162.064 26.921,161.723 26.580 C 161.382 26.240,160.585 25.857,159.952 25.730 C 159.318 25.604,158.800 25.343,158.800 25.150 C 158.800 24.957,158.445 24.800,158.012 24.800 C 157.579 24.800,156.583 24.440,155.800 24.000 C 155.017 23.560,154.032 23.200,153.611 23.200 C 153.191 23.200,152.736 23.020,152.600 22.800 C 152.464 22.580,151.913 22.400,151.376 22.400 C 150.839 22.400,150.400 22.220,150.400 22.000 C 150.400 21.780,149.871 21.600,149.224 21.600 C 148.577 21.600,147.936 21.420,147.800 21.200 C 147.664 20.980,146.944 20.800,146.200 20.800 C 145.456 20.800,144.736 20.620,144.600 20.400 C 144.464 20.180,143.564 20.000,142.600 20.000 C 141.636 20.000,140.736 19.820,140.600 19.600 C 140.464 19.380,139.294 19.200,138.000 19.200 C 136.706 19.200,135.536 19.020,135.400 18.800 C 135.245 18.549,130.937 18.400,123.800 18.400 C 116.663 18.400,112.355 18.549,112.200 18.800 M367.481 265.286 C 371.894 267.205,373.717 271.289,372.331 276.154 C 371.696 278.382,314.061 336.268,311.173 337.578 C 308.963 338.581,305.550 338.630,303.489 337.690 C 301.036 336.570,267.037 302.356,265.733 299.695 C 263.143 294.410,266.645 288.094,272.397 287.678 C 276.684 287.368,276.479 287.210,292.375 303.064 C 300.391 311.059,307.153 317.600,307.403 317.600 C 307.653 317.600,309.044 316.385,310.495 314.900 C 311.946 313.415,317.333 308.022,322.467 302.916 C 327.600 297.809,337.919 287.501,345.399 280.009 C 361.163 264.217,362.686 263.201,367.481 265.286 " stroke="none" fill="#0cace4" fill-rule="evenodd"></path><path id="path2" d="M362.538 265.106 C 362.284 265.268,363.122 265.400,364.400 265.400 C 365.678 265.400,366.516 265.268,366.262 265.106 C 366.008 264.944,365.170 264.812,364.400 264.812 C 363.630 264.812,362.792 264.944,362.538 265.106 M343.200 282.600 C 334.292 291.510,327.094 298.800,327.204 298.800 C 327.314 298.800,334.692 291.510,343.600 282.600 C 352.508 273.690,359.706 266.400,359.596 266.400 C 359.486 266.400,352.108 273.690,343.200 282.600 M370.038 267.377 C 370.388 267.830,370.973 268.645,371.338 269.189 C 371.702 269.733,372.000 269.988,372.000 269.756 C 372.000 269.523,371.415 268.708,370.700 267.943 C 369.985 267.179,369.687 266.924,370.038 267.377 M372.152 272.937 C 372.170 274.738,372.252 275.045,372.509 274.274 C 372.692 273.724,372.681 272.672,372.485 271.937 C 372.167 270.746,372.130 270.856,372.152 272.937 M369.000 279.788 C 368.340 280.329,367.943 280.778,368.117 280.786 C 368.292 280.794,368.920 280.350,369.513 279.800 C 370.898 278.516,370.561 278.508,369.000 279.788 M366.200 282.613 C 365.540 283.334,363.651 285.337,362.001 287.062 C 360.342 288.799,361.012 288.238,363.501 285.807 C 365.976 283.391,368.000 281.366,368.000 281.307 C 368.000 280.929,367.230 281.487,366.200 282.613 M268.960 289.133 C 268.102 289.757,267.130 290.609,266.800 291.027 C 266.470 291.445,267.003 291.111,267.984 290.284 C 268.965 289.456,270.315 288.620,270.984 288.426 C 271.877 288.166,271.977 288.063,271.360 288.036 C 270.898 288.016,269.818 288.510,268.960 289.133 M275.704 288.572 C 277.539 289.227,277.855 289.470,281.500 293.041 C 283.095 294.603,284.400 295.759,284.400 295.610 C 284.400 294.336,276.464 287.980,274.920 288.018 C 274.524 288.027,274.877 288.277,275.704 288.572 M355.642 293.160 C 354.959 293.799,354.400 294.454,354.400 294.617 C 354.400 294.873,357.184 292.366,357.196 292.100 C 357.208 291.810,356.762 292.115,355.642 293.160 M265.000 295.200 C 264.848 295.891,264.807 296.541,264.909 296.642 C 265.011 296.744,265.209 296.253,265.350 295.550 C 265.491 294.847,265.531 294.198,265.441 294.108 C 265.350 294.017,265.152 294.509,265.000 295.200 M352.172 296.600 C 351.331 297.370,350.814 297.998,351.022 297.996 C 351.230 297.993,352.010 297.363,352.756 296.596 C 354.509 294.792,354.143 294.795,352.172 296.600 M286.000 297.400 C 286.746 298.170,287.447 298.800,287.557 298.800 C 287.667 298.800,287.146 298.170,286.400 297.400 C 285.654 296.630,284.953 296.000,284.843 296.000 C 284.733 296.000,285.254 296.630,286.000 297.400 M348.368 300.516 C 347.141 301.662,345.881 302.960,345.568 303.400 C 345.256 303.840,346.305 302.944,347.900 301.410 C 350.528 298.881,351.009 298.367,350.700 298.416 C 350.645 298.424,349.596 299.369,348.368 300.516 M290.017 301.415 C 291.217 302.743,292.282 303.771,292.381 303.700 C 292.481 303.629,291.498 302.543,290.198 301.286 L 287.833 299.000 290.017 301.415 M317.200 308.600 C 307.326 318.481,307.345 318.466,306.200 317.200 C 305.802 316.760,305.310 316.400,305.107 316.400 C 304.905 316.400,305.273 316.850,305.927 317.400 C 307.591 318.800,306.858 319.349,317.400 308.800 C 322.677 303.520,326.904 299.200,326.794 299.200 C 326.684 299.200,322.366 303.430,317.200 308.600 M284.400 319.000 C 294.188 328.790,302.287 336.800,302.397 336.800 C 302.507 336.800,294.588 328.790,284.800 319.000 C 275.012 309.210,266.913 301.200,266.803 301.200 C 266.693 301.200,274.612 309.210,284.400 319.000 M296.200 307.600 C 298.171 309.580,299.873 311.200,299.983 311.200 C 300.093 311.200,298.571 309.580,296.600 307.600 C 294.629 305.620,292.927 304.000,292.817 304.000 C 292.707 304.000,294.229 305.620,296.200 307.600 M343.273 305.325 C 342.573 306.047,342.000 306.771,342.000 306.932 C 342.000 307.094,342.648 306.579,343.440 305.787 C 344.232 304.995,344.805 304.271,344.713 304.179 C 344.621 304.087,343.973 304.603,343.273 305.325 M339.439 309.249 C 338.408 310.156,337.641 310.975,337.735 311.068 C 337.828 311.161,338.758 310.419,339.802 309.419 C 342.171 307.149,341.945 307.044,339.439 309.249 M334.187 314.600 C 332.574 316.250,331.368 317.600,331.507 317.600 C 331.646 317.600,333.066 316.250,334.663 314.600 C 336.261 312.950,337.467 311.600,337.344 311.600 C 337.221 311.600,335.800 312.950,334.187 314.600 M303.200 314.600 C 303.946 315.370,304.647 316.000,304.757 316.000 C 304.867 316.000,304.346 315.370,303.600 314.600 C 302.854 313.830,302.153 313.200,302.043 313.200 C 301.933 313.200,302.454 313.830,303.200 314.600 M327.617 321.385 L 325.433 323.800 327.798 321.514 C 329.098 320.257,330.081 319.171,329.981 319.100 C 329.882 319.029,328.817 320.057,327.617 321.385 M320.643 328.227 C 319.127 329.654,317.958 330.891,318.044 330.977 C 318.130 331.064,319.461 329.890,321.000 328.368 C 324.530 324.882,324.298 324.790,320.643 328.227 M314.391 334.435 L 311.800 336.871 314.500 334.587 C 316.906 332.551,317.458 332.000,317.091 332.000 C 317.032 332.000,315.817 333.096,314.391 334.435 M307.200 338.000 C 305.833 338.288,305.828 338.295,307.000 338.319 C 307.660 338.333,308.560 338.189,309.000 338.000 C 309.962 337.587,309.164 337.587,307.200 338.000 " stroke="none" fill="#5bc9ec" fill-rule="evenodd"></path><path id="path3" d="M361.421 265.774 C 360.200 266.227,353.940 272.261,333.770 292.430 C 319.431 306.768,307.497 318.432,307.251 318.350 C 307.005 318.267,300.368 311.790,292.502 303.956 C 284.636 296.122,277.654 289.432,276.986 289.090 C 270.264 285.648,262.832 292.830,266.094 299.615 C 266.462 300.381,274.864 309.080,284.880 319.066 C 304.040 338.169,303.933 338.080,307.400 337.951 C 308.178 337.922,307.846 337.781,306.458 337.550 C 305.280 337.355,303.756 336.796,303.072 336.309 C 301.031 334.855,267.176 300.702,266.486 299.400 C 264.475 295.606,266.483 290.775,270.733 289.185 C 275.221 287.505,275.729 287.866,292.399 304.571 C 301.038 313.228,306.893 318.800,307.352 318.800 C 307.817 318.800,318.162 308.745,334.307 292.601 C 362.859 264.050,361.514 265.205,365.576 265.762 C 369.358 266.280,371.600 269.037,371.600 273.169 C 371.600 276.637,373.179 274.878,341.634 306.534 C 314.617 333.646,311.286 336.824,309.378 337.309 C 308.625 337.501,308.625 337.509,309.400 337.552 C 309.840 337.577,310.797 337.233,311.526 336.788 C 313.507 335.581,370.560 278.425,371.407 276.800 C 374.736 270.413,368.241 263.241,361.421 265.774 " stroke="none" fill="#abe4f4" fill-rule="evenodd"></path><path id="path4" d="M345.392 280.018 C 337.916 287.508,331.717 293.763,331.616 293.918 C 331.514 294.073,337.679 287.991,345.316 280.402 C 352.952 272.813,359.200 266.558,359.200 266.502 C 359.200 266.211,357.969 267.417,345.392 280.018 M372.068 270.000 C 372.088 271.039,372.718 272.746,372.732 271.800 C 372.738 271.360,372.589 270.640,372.400 270.200 C 372.189 269.710,372.061 269.632,372.068 270.000 M372.229 275.029 C 372.081 275.615,372.038 276.172,372.132 276.266 C 372.227 276.360,372.424 275.958,372.571 275.371 C 372.719 274.785,372.762 274.228,372.668 274.134 C 372.573 274.040,372.376 274.442,372.229 275.029 M370.815 278.176 C 370.332 278.957,369.638 279.763,369.272 279.968 C 368.906 280.172,368.720 280.453,368.859 280.592 C 368.997 280.730,369.786 280.019,370.612 279.012 C 371.437 278.004,372.018 277.085,371.902 276.969 C 371.786 276.853,371.297 277.396,370.815 278.176 M362.695 286.600 C 359.667 289.680,357.014 292.427,356.799 292.705 C 356.585 292.982,359.144 290.514,362.487 287.220 C 365.830 283.927,368.483 281.180,368.383 281.116 C 368.282 281.052,365.723 283.520,362.695 286.600 M271.900 287.889 C 272.615 287.978,273.785 287.978,274.500 287.889 C 275.215 287.801,274.630 287.728,273.200 287.728 C 271.770 287.728,271.185 287.801,271.900 287.889 M268.128 289.500 C 267.262 290.325,267.013 290.623,267.576 290.161 C 268.139 289.700,269.045 289.025,269.589 288.661 C 270.133 288.298,270.381 288.000,270.140 288.000 C 269.900 288.000,268.994 288.675,268.128 289.500 M276.033 288.121 C 276.125 288.188,276.740 288.558,277.400 288.945 L 278.600 289.647 277.656 288.824 C 277.136 288.371,276.521 288.000,276.289 288.000 C 276.057 288.000,275.942 288.054,276.033 288.121 M280.800 291.800 C 281.995 293.010,283.063 294.000,283.173 294.000 C 283.283 294.000,282.395 293.010,281.200 291.800 C 280.005 290.590,278.937 289.600,278.827 289.600 C 278.717 289.600,279.605 290.590,280.800 291.800 M265.359 293.037 C 265.028 293.828,264.813 294.640,264.881 294.842 C 264.948 295.044,265.295 294.397,265.652 293.405 C 266.425 291.256,266.214 290.991,265.359 293.037 M353.983 295.319 C 353.223 296.045,352.339 296.990,352.021 297.419 C 351.703 297.849,352.378 297.307,353.521 296.215 C 354.664 295.123,355.600 294.178,355.600 294.115 C 355.600 293.843,355.287 294.076,353.983 295.319 M328.985 296.500 L 327.000 298.600 329.100 296.615 C 331.051 294.771,331.383 294.400,331.085 294.400 C 331.022 294.400,330.077 295.345,328.985 296.500 M285.200 296.125 C 285.200 296.194,285.785 296.779,286.500 297.425 L 287.800 298.600 286.625 297.300 C 285.530 296.088,285.200 295.816,285.200 296.125 M349.625 299.769 L 348.250 301.400 349.805 299.913 C 350.660 299.096,351.279 298.362,351.180 298.283 C 351.081 298.203,350.381 298.872,349.625 299.769 M317.199 308.198 C 312.029 313.366,307.625 317.596,307.412 317.598 C 307.198 317.599,305.940 316.565,304.616 315.300 C 303.292 314.035,302.837 313.705,303.604 314.567 C 305.481 316.674,306.917 317.972,307.389 317.987 C 307.604 317.994,312.112 313.680,317.408 308.400 C 322.704 303.120,326.938 298.800,326.817 298.800 C 326.696 298.800,322.368 303.029,317.199 308.198 M269.602 304.518 C 276.127 311.303,301.988 336.961,302.672 337.328 C 303.072 337.542,303.305 337.646,303.189 337.559 C 303.072 337.472,294.793 329.300,284.791 319.400 C 274.788 309.500,267.953 302.803,269.602 304.518 M345.260 303.874 C 344.523 304.633,343.995 305.328,344.086 305.419 C 344.177 305.511,344.952 304.869,345.807 303.993 C 346.663 303.117,347.191 302.422,346.981 302.448 C 346.772 302.474,345.997 303.116,345.260 303.874 M340.800 308.303 C 339.810 309.300,339.360 309.925,339.800 309.691 C 340.776 309.172,343.507 306.382,342.978 306.444 C 342.770 306.469,341.790 307.305,340.800 308.303 M327.200 322.048 C 315.784 333.641,314.154 335.374,319.800 329.911 C 326.586 323.345,338.534 311.200,338.167 311.242 C 337.965 311.264,333.030 316.127,327.200 322.048 M312.800 336.074 C 311.810 336.976,311.360 337.520,311.800 337.282 C 313.019 336.623,315.362 334.308,314.700 334.416 C 314.645 334.425,313.790 335.171,312.800 336.074 M304.200 338.000 C 304.640 338.189,305.270 338.344,305.600 338.344 C 305.978 338.344,305.904 338.217,305.400 338.000 C 304.960 337.811,304.330 337.656,304.000 337.656 C 303.622 337.656,303.696 337.783,304.200 338.000 M309.000 338.000 C 308.496 338.217,308.422 338.344,308.800 338.344 C 309.130 338.344,309.760 338.189,310.200 338.000 C 310.704 337.783,310.778 337.656,310.400 337.656 C 310.070 337.656,309.440 337.811,309.000 338.000 " stroke="none" fill="#44c4ec" fill-rule="evenodd"></path></g></svg>