<?xml version="1.0"?>
<svg xmlns="http://www.w3.org/2000/svg" height="512px" viewBox="1 -24 511.999 511" width="512px"><g><path d="m400.601562 241.5c-39.066406 0-73.496093 20.214844-93.386718 50.734375-16.207032-39.289063-47.660156-70.742187-86.949219-86.945313 30.515625-19.894531 50.734375-54.324218 50.734375-93.390624 0-61.425782-49.972656-111.398438-111.398438-111.398438-61.425781 0-111.402343 49.972656-111.402343 111.398438 0 39.066406 20.21875 73.496093 50.738281 93.390624-58.003906 23.921876-98.9375 81.070313-98.9375 147.609376v56.234374c0 30.417969 24.746094 55.164063 55.164062 55.164063h208.867188c24.558594 0 45.40625-16.125 52.539062-38.34375 20.4375 23.480469 50.527344 38.34375 84.027344 38.34375 61.429688 0 111.402344-49.972656 111.402344-111.398437 0-61.425782-49.972656-111.398438-111.398438-111.398438zm-322.402343-129.601562c0-44.882813 36.515625-81.398438 81.398437-81.398438 44.886719 0 81.402344 36.515625 81.402344 81.398438 0 44.886718-36.515625 81.398437-81.402344 81.398437-44.882812 0-81.398437-36.515625-81.398437-81.398437zm211 297.234374c0 13.875-11.289063 25.164063-25.167969 25.164063h-208.867188c-13.875 0-25.164062-11.289063-25.164062-25.164063v-56.234374c0-71.460938 58.136719-129.601563 129.601562-129.601563 71.460938 0 129.601563 58.140625 129.601563 129.601563v56.234374zm111.402343 25.164063c-44.882812 0-81.398437-36.515625-81.398437-81.398437 0-44.882813 36.515625-81.398438 81.398437-81.398438 44.882813 0 81.398438 36.515625 81.398438 81.398438 0 44.882812-36.515625 81.398437-81.398438 81.398437zm0 0" data-original="#000000" class="active-path" data-old_color="#000000" fill="#00C2FF"/><path d="m432.734375 337.898438h-17.132813v-17.132813c0-8.285156-6.71875-15-15-15-8.285156 0-15 6.714844-15 15v17.132813h-17.132812c-8.285156 0-15 6.714843-15 15 0 8.285156 6.714844 15 15 15h17.132812v17.132812c0 8.285156 6.714844 15 15 15 8.28125 0 15-6.714844 15-15v-17.132812h17.132813c8.285156 0 15-6.714844 15-15 0-8.285157-6.714844-15-15-15zm0 0" data-original="#000000" class="active-path" data-old_color="#000000" fill="#00C2FF"/></g> </svg>
