<?xml version="1.0" encoding="iso-8859-1"?>
<!-- Generator: Adobe Illustrator 19.0.0, SVG Export Plug-In . SVG Version: 6.00 Build 0)  -->
<svg version="1.1" id="Capa_1" xmlns="http://www.w3.org/2000/svg" xmlns:xlink="http://www.w3.org/1999/xlink" x="0px" y="0px"
	 viewBox="0 0 512 512" style="enable-background:new 0 0 512 512;" xml:space="preserve">
<g>
	<path style="fill:#BC6829;" d="M170.581,248.569c-4.028-7.236-1.421-16.362,5.83-20.391l86.396-48.003
		c7.236-4.043,16.392-1.406,20.391,5.83c4.028,7.236,1.421,16.362-5.83,20.391l-86.396,48.003
		C183.836,258.399,174.636,255.876,170.581,248.569z"/>
	<path style="fill:#BC6829;" d="M315.278,418.975l-138.867-77.153c-7.251-4.028-9.858-13.154-5.83-20.391s13.154-9.902,20.391-5.83
		l138.867,77.153c7.251,4.028,9.858,13.154,5.83,20.391C331.614,420.451,322.414,422.974,315.278,418.975z"/>
</g>
<path style="fill:#FFDA45;" d="M210,285c0,29.399-12.001,56.1-31.8,75L105,345l-3.3-0.601L31.8,360C12.001,341.1,0,314.399,0,285
	c0-57.9,47.1-105,105-105S210,227.1,210,285z"/>
<path style="fill:#FFBC36;" d="M210,285c0,29.399-12.001,56.1-31.8,75L105,345V180C162.9,180,210,227.1,210,285z"/>
<path style="fill:#FFDA45;" d="M512,135c0,34.499-12.9,65.7-34.501,89.7L377,197.999l-5.7-1.5l-94.799,28.2
	C254.9,200.7,242,169.499,242,135C242,60.601,302.601,0,377,0S512,60.601,512,135z"/>
<path style="fill:#FFBC36;" d="M512,135c0,34.499-12.9,65.7-34.501,89.7L377,197.999V0C451.399,0,512,60.601,512,135z"/>
<path style="fill:#368DCF;" d="M453.199,182.699C433.1,161.7,406.099,150,377,150c-33.3,0-63.6,15.3-83.699,41.7
	c-7.8,9.899-13.2,21.299-16.8,32.999C299.9,251.999,336.2,270,377,270c40.201,0,77.401-18.3,100.499-45.3
	C473,209.099,464.9,194.7,453.199,182.699z"/>
<path style="fill:#FFDA45;" d="M375,362c-41.4,0-75,33.6-75,75s33.6,75,75,75s75-33.6,75-75S416.4,362,375,362z"/>
<path style="fill:#CF0404;" d="M163.5,327.9C149.099,310.199,127.8,300,105,300c-24.6,0-47.701,11.999-61.5,32.399
	c-6,8.401-9.9,17.7-11.7,27.601c20.099,19.2,46.199,30,73.2,30c27.299,0,54.3-11.1,73.2-30C176.1,348.3,171,337.2,163.5,327.9z"/>
<path style="fill:#FF3F2E;" d="M105,240c-24.901,0-45,20.099-45,45c0,24.899,20.099,45,45,45s45-20.101,45-45
	C150,260.099,129.901,240,105,240z"/>
<path style="fill:#4AB8F7;" d="M377,60c-32.999,0-60,27.001-60,60s27.001,60,60,60s60-27.001,60-60S409.999,60,377,60z"/>
<path style="fill:#FFBC36;" d="M450,437c0,41.4-33.6,75-75,75V362C416.4,362,450,395.6,450,437z"/>
<path style="fill:#2B75AD;" d="M477.499,224.7C454.401,251.7,417.201,270,377,270V150c29.099,0,56.1,11.7,76.199,32.699
	C464.9,194.7,473,209.099,477.499,224.7z"/>
<path style="fill:#1EA1E3;" d="M437,120c0,32.999-27.001,60-60,60V60C409.999,60,437,87.001,437,120z"/>
<path style="fill:#B80000;" d="M178.2,360c-18.9,18.9-45.901,30-73.2,30v-90c22.8,0,44.099,10.199,58.5,27.9
	C171,337.2,176.1,348.3,178.2,360z"/>
<path style="fill:#CF0404;" d="M150,285c0,24.899-20.099,45-45,45v-90C129.901,240,150,260.099,150,285z"/>
<g>
</g>
<g>
</g>
<g>
</g>
<g>
</g>
<g>
</g>
<g>
</g>
<g>
</g>
<g>
</g>
<g>
</g>
<g>
</g>
<g>
</g>
<g>
</g>
<g>
</g>
<g>
</g>
<g>
</g>
</svg>
