<svg width="20" height="20" viewBox="0 0 20 20" fill="none" xmlns="http://www.w3.org/2000/svg">
<path d="M15.6485 10.4141C14.1225 10.4141 12.7776 11.2037 12.0006 12.3959C11.3675 10.8611 10.1389 9.63251 8.60413 8.99957C9.79614 8.22244 10.5859 6.87753 10.5859 5.3515C10.5859 2.95206 8.63388 1 6.23444 1C3.83499 1 1.88278 2.95206 1.88278 5.3515C1.88278 6.87753 2.67258 8.22244 3.86475 8.99957C1.59897 9.93402 0 12.1664 0 14.7656V16.9622C0 18.1504 0.966644 19.1171 2.15485 19.1171H10.3137C11.273 19.1171 12.0874 18.4872 12.366 17.6193C13.1644 18.5365 14.3398 19.1171 15.6483 19.1171C18.0479 19.1171 20 17.165 20 14.7656C20 12.3661 18.0479 10.4141 15.6485 10.4141ZM3.05466 5.3515C3.05466 3.59827 4.48105 2.17188 6.23428 2.17188C7.98767 2.17188 9.41406 3.59827 9.41406 5.3515C9.41406 7.10489 7.98767 8.53113 6.23428 8.53113C4.48105 8.53113 3.05466 7.10474 3.05466 5.3515ZM11.2968 16.9622C11.2968 17.5042 10.8559 17.9452 10.3137 17.9452H2.15485C1.61285 17.9452 1.17188 17.5042 1.17188 16.9622V14.7656C1.17188 11.9741 3.44284 9.703 6.23444 9.703C9.02588 9.703 11.297 11.9741 11.297 14.7656V16.9622H11.2968ZM15.6485 17.9452C13.8953 17.9452 12.4689 16.5188 12.4689 14.7656C12.4689 13.0123 13.8953 11.5859 15.6485 11.5859C17.4017 11.5859 18.8281 13.0123 18.8281 14.7656C18.8281 16.5188 17.4017 17.9452 15.6485 17.9452Z" fill="#0DAEE1"/>
<path d="M16.9037 14.1796H16.2344V13.5104C16.2344 13.1867 15.972 12.9244 15.6485 12.9244C15.3249 12.9244 15.0626 13.1867 15.0626 13.5104V14.1796H14.3933C14.0697 14.1796 13.8074 14.4419 13.8074 14.7656C13.8074 15.0892 14.0697 15.3515 14.3933 15.3515H15.0626V16.0208C15.0626 16.3444 15.3249 16.6067 15.6485 16.6067C15.972 16.6067 16.2344 16.3444 16.2344 16.0208V15.3515H16.9037C17.2273 15.3515 17.4896 15.0892 17.4896 14.7656C17.4896 14.4419 17.2273 14.1796 16.9037 14.1796Z" fill="#0DAEE1"/>
</svg>
