<svg width="20" height="20" viewBox="0 0 20 20" fill="none" xmlns="http://www.w3.org/2000/svg">
<path d="M15.6485 10.4141C14.1225 10.4141 12.7776 11.2037 12.0006 12.3959C11.3675 10.8611 10.1389 9.63251 8.60413 8.99957C9.79614 8.22244 10.5859 6.87753 10.5859 5.3515C10.5859 2.95206 8.63388 1 6.23444 1C3.83499 1 1.88278 2.95206 1.88278 5.3515C1.88278 6.87753 2.67258 8.22244 3.86475 8.99957C1.59897 9.93402 0 12.1664 0 14.7656V16.9622C0 18.1504 0.966644 19.1171 2.15485 19.1171H10.3137C11.273 19.1171 12.0874 18.4872 12.366 17.6193C13.1644 18.5365 14.3398 19.1171 15.6483 19.1171C18.0479 19.1171 20 17.165 20 14.7656C20 12.3661 18.0479 10.4141 15.6485 10.4141ZM3.05466 5.3515C3.05466 3.59827 4.48105 2.17188 6.23428 2.17188C7.98767 2.17188 9.41406 3.59827 9.41406 5.3515C9.41406 7.10489 7.98767 8.53113 6.23428 8.53113C4.48105 8.53113 3.05466 7.10474 3.05466 5.3515ZM11.2968 16.9622C11.2968 17.5042 10.8559 17.9452 10.3137 17.9452H2.15485C1.61285 17.9452 1.17188 17.5042 1.17188 16.9622V14.7656C1.17188 11.9741 3.44284 9.703 6.23444 9.703C9.02588 9.703 11.297 11.9741 11.297 14.7656V16.9622H11.2968ZM15.6485 17.9452C13.8953 17.9452 12.4689 16.5188 12.4689 14.7656C12.4689 13.0123 13.8953 11.5859 15.6485 11.5859C17.4017 11.5859 18.8281 13.0123 18.8281 14.7656C18.8281 16.5188 17.4017 17.9452 15.6485 17.9452Z" fill="#0DAEE1"/>
<path d="M15.5391 18.0234C17.4721 18.0234 19.0391 16.4564 19.0391 14.5234C19.0391 12.5904 17.4721 11.0234 15.5391 11.0234C13.6061 11.0234 12.0391 12.5904 12.0391 14.5234C12.0391 16.4564 13.6061 18.0234 15.5391 18.0234Z" fill="#0DAEE1"/>
<path d="M18.1768 15.0178C18.2744 14.9201 18.2744 14.7618 18.1768 14.6642L16.5858 13.0732C16.4882 12.9756 16.3299 12.9756 16.2322 13.0732C16.1346 13.1709 16.1346 13.3291 16.2322 13.4268L17.6465 14.841L16.2322 16.2552C16.1346 16.3528 16.1346 16.5111 16.2322 16.6088C16.3299 16.7064 16.4882 16.7064 16.5858 16.6088L18.1768 15.0178ZM13 15.091H18V14.591H13V15.091Z" fill="white"/>
</svg>
