<svg width="20" height="20" viewBox="0 0 20 20" fill="none" xmlns="http://www.w3.org/2000/svg">
<rect width="20" height="20" fill="white"/>
<path d="M0 0V20H20V0H0ZM11.6591 10.8414C11.3171 13.0881 9.64207 14.3761 7.47346 14.3761C5.03645 14.3761 3.06067 12.4003 3.06067 9.96327C3.06067 7.52687 5.03645 5.55109 7.47346 5.55109C8.65232 5.55109 9.68525 5.97178 10.4371 6.70204L9.17069 7.96845C8.7418 7.53635 8.15487 7.30604 7.47346 7.30604C6.03893 7.30604 4.87591 8.5293 4.87591 9.96322C4.87591 11.3984 6.03893 12.5862 7.47346 12.5862C8.67579 12.5862 9.58629 12.005 9.84895 10.8414H7.47346V9.06927H11.6483C11.6985 9.35479 11.7238 9.65361 11.7238 9.96322C11.7238 10.2703 11.7016 10.5628 11.6591 10.8414ZM16.9582 10.2919H15.412V11.8375H14.3137V10.2919H12.7675V9.19299H14.3137V7.64676H15.412V9.19299H16.9582V10.2919V10.2919Z" fill="#DD4B39"/>
</svg>
