<svg width="15" height="15" viewBox="0 0 15 15" fill="none" xmlns="http://www.w3.org/2000/svg">
<path d="M7.5 3.69141C7.33829 3.69141 7.20703 3.82267 7.20703 3.98438C7.20703 4.14608 7.33829 4.27734 7.5 4.27734C7.66171 4.27734 7.79297 4.14608 7.79297 3.98438C7.79297 3.82267 7.66171 3.69141 7.5 3.69141Z" fill="#3E3F3F"/>
<path d="M2.63672 8.96484C2.79842 8.96484 2.92969 8.83358 2.92969 8.67188C2.92969 8.51017 2.79842 8.37891 2.63672 8.37891C2.47501 8.37891 2.34375 8.51017 2.34375 8.67188C2.34375 8.83358 2.47501 8.96484 2.63672 8.96484Z" fill="#3E3F3F"/>
<path d="M9.84375 0.761719C7.20623 0.761719 5.04147 2.58018 4.87404 4.87072C2.36217 4.99672 0 6.80798 0 9.25781C0 10.2816 0.405121 11.2736 1.14258 12.0596C1.28849 12.6611 1.11134 13.2986 0.671768 13.7382C0.587997 13.8219 0.562935 13.9479 0.608253 14.0575C0.653572 14.1669 0.760345 14.2383 0.878906 14.2383C1.71444 14.2383 2.51965 13.9106 3.11794 13.3333C3.70079 13.532 4.46125 13.6523 5.15625 13.6523C7.79343 13.6523 9.95796 11.8343 10.1258 9.54426C10.7393 9.51702 11.3773 9.40372 11.8821 9.23172C12.4804 9.80907 13.2856 10.1367 14.1211 10.1367C14.2397 10.1367 14.3464 10.0653 14.3917 9.9559C14.4371 9.84638 14.412 9.72038 14.3282 9.63661C13.8887 9.19704 13.7115 8.55949 13.8574 7.95799C14.5949 7.17201 15 6.18004 15 5.15625C15 2.61074 12.4559 0.761719 9.84375 0.761719ZM5.15625 13.0664C4.4648 13.0664 3.67687 12.9307 3.14907 12.7207C3.036 12.6756 2.9068 12.7052 2.82452 12.7951C2.47078 13.1818 2.01084 13.4514 1.5097 13.5753C1.78585 13.0463 1.85635 12.4226 1.68835 11.8316C1.67507 11.785 1.65047 11.7424 1.61671 11.7078C0.952034 11.0232 0.585938 10.1531 0.585938 9.25781C0.585938 7.1933 2.67883 5.44922 5.15625 5.44922C7.49565 5.44922 9.55078 7.076 9.55078 9.25781C9.55078 11.3579 7.57942 13.0664 5.15625 13.0664ZM13.3833 7.6062C13.3495 7.64099 13.3249 7.68356 13.3117 7.73003C13.1437 8.321 13.2141 8.9447 13.4903 9.47376C12.9892 9.34994 12.5292 9.0802 12.1755 8.6935C12.0932 8.60378 11.964 8.57403 11.8509 8.61912C11.3935 8.80108 10.741 8.92708 10.1249 8.95752C10.0393 7.84962 9.48669 6.80832 8.54187 6.03516H12.3633C12.5251 6.03516 12.6562 5.90401 12.6562 5.74219C12.6562 5.58037 12.5251 5.44922 12.3633 5.44922H7.64179C6.97678 5.1107 6.23005 4.91329 5.46146 4.87186C5.62981 2.90417 7.53101 1.34766 9.84375 1.34766C12.3212 1.34766 14.4141 3.09174 14.4141 5.15625C14.4141 6.05152 14.048 6.92162 13.3833 7.6062Z" fill="#3E3F3F"/>
<path d="M7.5 8.37891H3.80859C3.64677 8.37891 3.51562 8.51006 3.51562 8.67188C3.51562 8.83369 3.64677 8.96484 3.80859 8.96484H7.5C7.66182 8.96484 7.79297 8.83369 7.79297 8.67188C7.79297 8.51006 7.66182 8.37891 7.5 8.37891Z" fill="#3E3F3F"/>
<path d="M7.5 10.1367H2.63672C2.4749 10.1367 2.34375 10.2679 2.34375 10.4297C2.34375 10.5915 2.4749 10.7227 2.63672 10.7227H7.5C7.66182 10.7227 7.79297 10.5915 7.79297 10.4297C7.79297 10.2679 7.66182 10.1367 7.5 10.1367Z" fill="#3E3F3F"/>
<path d="M12.3633 3.69141H8.67188C8.51006 3.69141 8.37891 3.82256 8.37891 3.98438C8.37891 4.14619 8.51006 4.27734 8.67188 4.27734H12.3633C12.5251 4.27734 12.6562 4.14619 12.6562 3.98438C12.6562 3.82256 12.5251 3.69141 12.3633 3.69141Z" fill="#3E3F3F"/>
</svg>
