<svg width="20" height="20" viewBox="0 0 20 20" fill="none" xmlns="http://www.w3.org/2000/svg">
<g clip-path="url(#clip0)">
<path d="M19.4999 8.65997C19.4993 8.65952 19.4988 8.65891 19.4984 8.65845L11.3399 0.500336C10.9922 0.152435 10.5298 -0.0390625 10.0381 -0.0390625C9.54627 -0.0390625 9.08392 0.152435 8.73602 0.500336L0.581869 8.65433C0.579123 8.65707 0.576224 8.65997 0.57363 8.66272C-0.140483 9.38095 -0.139262 10.5463 0.577139 11.2627C0.904441 11.5901 1.33657 11.7796 1.79876 11.7996C1.81768 11.8015 1.8366 11.8024 1.85567 11.8024H2.18069V17.8061C2.18069 18.9943 3.14749 19.9609 4.33569 19.9609H7.52753C7.85117 19.9609 8.11346 19.6985 8.11346 19.375V14.668C8.11346 14.1258 8.5546 13.6848 9.09674 13.6848H10.9794C11.5215 13.6848 11.9625 14.1258 11.9625 14.668V19.375C11.9625 19.6985 12.2248 19.9609 12.5484 19.9609H15.7403C16.9286 19.9609 17.8953 18.9943 17.8953 17.8061V11.8024H18.1968C18.6884 11.8024 19.1508 11.6109 19.4988 11.2628C20.216 10.5453 20.2163 9.3779 19.4999 8.65997ZM18.6701 10.4343C18.5436 10.5608 18.3755 10.6305 18.1968 10.6305H17.3093C16.9857 10.6305 16.7234 10.8928 16.7234 11.2164V17.8061C16.7234 18.3481 16.2824 18.7891 15.7403 18.7891H13.1344V14.668C13.1344 13.4798 12.1677 12.513 10.9794 12.513H9.09674C7.90839 12.513 6.94159 13.4798 6.94159 14.668V18.7891H4.33569C3.7937 18.7891 3.35256 18.3481 3.35256 17.8061V11.2164C3.35256 10.8928 3.09026 10.6305 2.76663 10.6305H1.89443C1.88528 10.6299 1.87627 10.6294 1.86697 10.6293C1.69241 10.6262 1.52868 10.5569 1.406 10.4341C1.14507 10.1732 1.14507 9.74854 1.406 9.48746C1.40615 9.48746 1.40615 9.4873 1.4063 9.48715L1.40676 9.48669L9.56488 1.32889C9.69123 1.20239 9.85922 1.13281 10.0381 1.13281C10.2167 1.13281 10.3847 1.20239 10.5112 1.32889L18.6675 9.48502C18.6687 9.48624 18.6701 9.48746 18.6713 9.48868C18.9309 9.75006 18.9304 10.1738 18.6701 10.4343Z" fill="#3E3F3F"/>
</g>
<defs>
<clipPath id="clip0">
<path d="M0 0H20V20H0V0Z" fill="white"/>
</clipPath>
</defs>
</svg>
