<svg width="30" height="30" viewBox="0 0 30 30" fill="none" xmlns="http://www.w3.org/2000/svg">
<g clip-path="url(#clip0)">
<path d="M15.0001 22.9719C23.2864 22.9719 30.0001 24.5449 30.0001 26.4825C30.0001 28.4199 23.2864 29.9859 15.0001 29.9859C6.71342 29.9859 0 28.4129 0 26.4825C0 24.5521 6.71342 22.9719 15.0001 22.9719ZM20.3481 26.4753C20.3481 25.7818 17.9529 25.2241 15.0001 25.2241C12.0472 25.2241 9.65205 25.7818 9.65205 26.4753C9.65205 27.1618 12.0472 27.7265 15.0001 27.7265C17.9529 27.7265 20.3481 27.1687 20.3481 26.4753Z" fill="#00EFD1"/>
<path d="M20.7055 2.588C22.2231 4.19611 23.0652 6.32565 23.0576 8.53674C23.0688 10.742 22.2259 12.8662 20.7055 14.4637L15 20.4264L9.29454 14.471C6.15595 11.1749 6.15595 5.85562 9.29454 2.588C10.775 1.01339 12.8387 0.118569 15 0.11438C17.0734 0.11438 19.1326 0.943574 20.7055 2.588ZM18.3889 7.40704C18.3889 5.53528 16.8715 4.01793 15 4.01793C13.1283 4.01793 11.6109 5.53528 11.6109 7.40704C11.6109 9.27852 13.1283 10.7959 15 10.7959C15.899 10.7964 16.7612 10.4395 17.3968 9.80385C18.0325 9.1682 18.3894 8.30606 18.3889 7.40704Z" fill="#00ACEA"/>
</g>
<defs>
<clipPath id="clip0">
<rect width="30" height="30" fill="white"/>
</clipPath>
</defs>
</svg>
