<svg width="20" height="20" viewBox="0 0 20 20" fill="none" xmlns="http://www.w3.org/2000/svg">
<path d="M9.85748 9.63409C11.181 9.63409 12.327 9.15939 13.2635 8.22281C14.1998 7.28638 14.6747 6.14059 14.6747 4.81689C14.6747 3.49365 14.2 2.34772 13.2634 1.41098C12.3268 0.474701 11.1809 0 9.85748 0C8.53378 0 7.388 0.474701 6.45157 1.41113C5.51514 2.34756 5.04028 3.4935 5.04028 4.81689C5.04028 6.14059 5.51514 7.28653 6.45157 8.22296C7.38831 9.15924 8.53424 9.63409 9.85748 9.63409ZM7.28043 2.23984C7.99896 1.5213 8.84186 1.17203 9.85748 1.17203C10.873 1.17203 11.716 1.5213 12.4347 2.23984C13.1532 2.95853 13.5027 3.80157 13.5027 4.81689C13.5027 5.83252 13.1532 6.67542 12.4347 7.3941C11.716 8.11279 10.873 8.46207 9.85748 8.46207C8.84216 8.46207 7.99927 8.11264 7.28043 7.3941C6.56174 6.67557 6.21231 5.83252 6.21231 4.81689C6.21231 3.80157 6.56174 2.95853 7.28043 2.23984Z" fill="#3E3F3F"/>
<path d="M18.2864 15.3523C18.2594 14.9626 18.2048 14.5374 18.1244 14.0885C18.0432 13.6363 17.9387 13.2087 17.8135 12.8179C17.6841 12.414 17.5085 12.0152 17.2911 11.6329C17.0657 11.2362 16.8008 10.8907 16.5036 10.6065C16.1927 10.3091 15.8122 10.07 15.3721 9.89557C14.9336 9.72208 14.4476 9.63419 13.9277 9.63419C13.7236 9.63419 13.5261 9.71796 13.1448 9.96622C12.9101 10.1193 12.6356 10.2963 12.3292 10.492C12.0672 10.659 11.7123 10.8154 11.2739 10.957C10.8462 11.0954 10.412 11.1656 9.98318 11.1656C9.55472 11.1656 9.12045 11.0954 8.69244 10.957C8.25452 10.8155 7.89944 10.6591 7.63791 10.4922C7.33441 10.2982 7.05975 10.1212 6.82156 9.96606C6.44055 9.7178 6.2431 9.63403 6.03894 9.63403C5.51892 9.63403 5.03308 9.72208 4.5947 9.89572C4.15494 10.0698 3.77423 10.3089 3.4631 10.6066C3.16586 10.8911 2.90097 11.2364 2.67575 11.6329C2.45862 12.0152 2.28284 12.4139 2.15344 12.8181C2.02847 13.2089 1.92395 13.6363 1.84277 14.0885C1.76221 14.5368 1.70773 14.9621 1.68073 15.3527C1.65417 15.7346 1.64075 16.1321 1.64075 16.5338C1.64075 17.5778 1.97263 18.4229 2.62708 19.0463C3.27344 19.6613 4.12854 19.9732 5.16873 19.9732H14.7989C15.8387 19.9732 16.6938 19.6613 17.3404 19.0463C17.995 18.4234 18.3268 17.5779 18.3268 16.5336C18.3267 16.1306 18.3131 15.7331 18.2864 15.3523ZM16.5323 18.1971C16.1052 18.6036 15.5381 18.8012 14.7987 18.8012H5.16873C4.42914 18.8012 3.86212 18.6036 3.43518 18.1973C3.01633 17.7986 2.81277 17.2543 2.81277 16.5338C2.81277 16.159 2.82513 15.789 2.84985 15.4337C2.87396 15.0852 2.92325 14.7024 2.99634 14.2956C3.06851 13.8938 3.16037 13.5168 3.26962 13.1754C3.37445 12.8481 3.51743 12.524 3.69473 12.2119C3.86395 11.9143 4.05865 11.659 4.2735 11.4533C4.47446 11.2609 4.72775 11.1035 5.02621 10.9854C5.30225 10.8761 5.61246 10.8163 5.94922 10.8073C5.99026 10.8291 6.06335 10.8708 6.18176 10.948C6.4227 11.105 6.70041 11.2841 7.00742 11.4802C7.35349 11.7008 7.79935 11.9001 8.33203 12.0721C8.87662 12.2482 9.43204 12.3376 9.98334 12.3376C10.5346 12.3376 11.0902 12.2482 11.6345 12.0722C12.1676 11.9 12.6133 11.7008 12.9599 11.4799C13.274 11.2791 13.544 11.1051 13.7849 10.948C13.9033 10.8709 13.9764 10.8291 14.0175 10.8073C14.3544 10.8163 14.6646 10.8761 14.9408 10.9854C15.2391 11.1035 15.4924 11.2611 15.6933 11.4533C15.9082 11.6589 16.1029 11.9142 16.2721 12.212C16.4496 12.524 16.5927 12.8483 16.6974 13.1753C16.8068 13.5171 16.8988 13.894 16.9708 14.2954C17.0437 14.703 17.0932 15.086 17.1173 15.4339V15.4342C17.1422 15.7881 17.1547 16.1579 17.1548 16.5338C17.1547 17.2544 16.9511 17.7986 16.5323 18.1971Z" fill="#3E3F3F"/>
</svg>
