<svg width="24" height="20" viewBox="0 0 24 20" fill="none" xmlns="http://www.w3.org/2000/svg">
<path d="M10 0C4.47327 0 0 4.4725 0 10C0 11.754 0.457458 13.4671 1.32614 14.978L0.0376892 18.9792C-0.0521851 19.2581 0.0216675 19.5639 0.228882 19.7711C0.434113 19.9763 0.739136 20.0529 1.02081 19.9623L5.02197 18.6739C6.5329 19.5425 8.246 20 10 20C15.5267 20 20 15.5275 20 10C20 4.47327 15.5275 0 10 0ZM10 18.4375C8.41568 18.4375 6.87134 17.9955 5.53391 17.1591C5.34149 17.0389 5.10254 17.0064 4.88022 17.0779L1.99188 18.0081L2.92206 15.1198C2.99255 14.9007 2.9628 14.6614 2.84073 14.4661C2.00455 13.1287 1.5625 11.5843 1.5625 10C1.5625 5.3476 5.3476 1.5625 10 1.5625C14.6524 1.5625 18.4375 5.3476 18.4375 10C18.4375 14.6524 14.6524 18.4375 10 18.4375ZM10.9766 10C10.9766 10.5392 10.5394 10.9766 10 10.9766C9.4606 10.9766 9.02344 10.5392 9.02344 10C9.02344 9.4606 9.4606 9.02344 10 9.02344C10.5394 9.02344 10.9766 9.4606 10.9766 10ZM14.8828 10C14.8828 10.5392 14.4456 10.9766 13.9062 10.9766C13.3669 10.9766 12.9297 10.5392 12.9297 10C12.9297 9.4606 13.3669 9.02344 13.9062 9.02344C14.4456 9.02344 14.8828 9.4606 14.8828 10ZM7.07031 10C7.07031 10.5392 6.63315 10.9766 6.09375 10.9766C5.5545 10.9766 5.11719 10.5392 5.11719 10C5.11719 9.4606 5.5545 9.02344 6.09375 9.02344C6.63315 9.02344 7.07031 9.4606 7.07031 10Z" fill="#F41D00"/>
<path d="M23.85 4.5C23.85 6.90244 21.9024 8.85 19.5 8.85C17.0976 8.85 15.15 6.90244 15.15 4.5C15.15 2.09756 17.0976 0.15 19.5 0.15C21.9024 0.15 23.85 2.09756 23.85 4.5Z" fill="#FF3422" stroke="#FF5946" stroke-width="0.3"/>
<path d="M19.1204 6.57417C19.1204 6.42349 19.1756 6.29418 19.2861 6.18619C19.3966 6.07821 19.5297 6.02423 19.6854 6.02423C19.8411 6.02423 19.9742 6.08198 20.0846 6.19749C20.1951 6.31049 20.2504 6.44359 20.2504 6.59677C20.2504 6.74744 20.1951 6.87802 20.0846 6.98851C19.9767 7.09899 19.8461 7.15424 19.6929 7.15424C19.5347 7.15424 19.3991 7.09775 19.2861 6.98475C19.1756 6.87174 19.1204 6.73488 19.1204 6.57417ZM19.7155 1.89587C19.8411 1.89587 19.9503 1.94233 20.0432 2.03524C20.1361 2.12816 20.1826 2.25246 20.1826 2.40815C20.1826 2.5086 20.1424 2.94555 20.062 3.71898C19.9917 4.31412 19.9264 4.87662 19.8662 5.40648C19.8511 5.53455 19.7984 5.59858 19.708 5.59858C19.605 5.59858 19.546 5.53203 19.5309 5.39895C19.4531 4.8264 19.3891 4.29403 19.3388 3.80184C19.2585 3.04348 19.2183 2.5764 19.2183 2.40062C19.2183 2.24493 19.266 2.12188 19.3614 2.03148C19.4569 1.94108 19.5749 1.89587 19.7155 1.89587Z" fill="white"/>
</svg>
