<svg width="10" height="10" viewBox="0 0 10 10" fill="none" xmlns="http://www.w3.org/2000/svg">
<path d="M9.94252 0.0572069C9.90588 0.0205859 9.85619 0 9.80438 0L4.99981 0.000253906C4.89196 0.000253906 4.80452 0.0877147 4.80452 0.195566V0.7541L2.95318 1.25017C2.84898 1.2781 2.78714 1.38519 2.81507 1.48937L3.77458 5.07026L2.94453 5.90032C2.83888 5.74606 2.6615 5.64462 2.46085 5.64462H0.585917C0.262832 5.64462 0 5.90747 0 6.23054V9.41404C0 9.73713 0.262832 9.99998 0.585917 9.99998H2.46087C2.73535 9.99998 2.96624 9.81022 3.02953 9.55506L3.26175 9.75758C3.44103 9.91391 3.67072 10 3.90859 10H9.80441C9.91227 10 9.99973 9.91254 9.99973 9.80469V0.195312C9.99969 0.143515 9.97914 0.0938279 9.94252 0.0572069ZM2.65615 9.41406C2.65615 9.52174 2.56853 9.60938 2.46083 9.60938H0.585897C0.478202 9.60938 0.390585 9.52176 0.390585 9.41406V6.23055C0.390585 6.12286 0.478202 6.03524 0.585897 6.03524H1.32806V8.28514C1.32806 8.39299 1.41552 8.48045 1.52338 8.48045C1.63123 8.48045 1.71869 8.39299 1.71869 8.28514V6.03524H2.46085C2.56855 6.03524 2.65617 6.12286 2.65617 6.23055V9.41406H2.65615ZM3.24292 1.57693L4.80452 1.15849V1.88222L4.67362 1.9173C4.62357 1.93072 4.58093 1.96343 4.55503 2.0083C4.52913 2.05316 4.5221 2.10646 4.53552 2.1565C4.61058 2.4366 4.44376 2.72552 4.16366 2.80058C4.11357 2.81402 4.07085 2.84679 4.04497 2.89175C4.01909 2.93669 4.01212 2.99009 4.02566 3.04017L4.78696 5.85927H4.39497L4.19296 5.06896C4.18653 5.0438 4.17528 5.02062 4.16023 5.00046L3.24292 1.57693ZM4.80452 2.7779V4.42597L4.44829 3.10693C4.5971 3.03009 4.71888 2.91513 4.80452 2.7779ZM7.61045 9.60936H3.90855C3.76509 9.60936 3.62656 9.55744 3.51843 9.46317L3.04677 9.05182V6.35052L3.89947 5.49782L4.05411 6.1029C4.07622 6.18936 4.15409 6.24983 4.24333 6.24983L8.08325 6.25007C8.23403 6.25007 8.35668 6.37272 8.35668 6.5235C8.35668 6.67428 8.23403 6.79694 8.08325 6.79694H6.11567C6.00782 6.79694 5.92036 6.8844 5.92036 6.99225C5.92036 7.1001 6.00782 7.18756 6.11567 7.18756H8.69457C8.84536 7.18756 8.96801 7.31022 8.96801 7.461C8.96801 7.61178 8.84536 7.73444 8.69457 7.73444H6.11567C6.00782 7.73444 5.92036 7.8219 5.92036 7.92975C5.92036 8.0376 6.00782 8.12506 6.11567 8.12506H8.27666C8.42745 8.12506 8.5501 8.24772 8.5501 8.3985C8.5501 8.54928 8.42745 8.67194 8.27666 8.67194H6.11567C6.00782 8.67194 5.92036 8.7594 5.92036 8.86725C5.92036 8.9751 6.00782 9.06256 6.11567 9.06256H7.61045C7.76124 9.06256 7.88389 9.18522 7.88389 9.336C7.88387 9.4867 7.76122 9.60936 7.61045 9.60936ZM9.6091 9.60936H9.60908H8.21536C8.25323 9.5259 8.2745 9.43338 8.2745 9.33592C8.2745 9.23846 8.25323 9.14594 8.21536 9.06248H8.27666C8.64282 9.06248 8.94071 8.76459 8.94071 8.39844C8.94071 8.29164 8.91522 8.19073 8.87022 8.10123C9.15139 8.02401 9.3586 7.76629 9.3586 7.46096C9.3586 7.31284 9.30981 7.1759 9.22752 7.06536V4.58997C9.22752 4.48212 9.14006 4.39466 9.03221 4.39466C8.92436 4.39466 8.8369 4.48212 8.8369 4.58997V6.81247C8.791 6.80241 8.7434 6.79694 8.69453 6.79694H8.68813C8.726 6.71348 8.74727 6.62096 8.74727 6.5235C8.74727 6.15733 8.44938 5.85946 8.08323 5.85946H7.76926C8.10264 5.71649 8.33678 5.38513 8.33678 4.99999C8.33678 4.48458 7.91748 4.06527 7.40208 4.06527C6.88669 4.06527 6.46737 4.48458 6.46737 4.99999C6.46737 5.38513 6.70153 5.71649 7.03489 5.85946H5.96725V2.14576C6.31616 2.06972 6.59147 1.79443 6.66749 1.44551H8.13665C8.21266 1.79443 8.48797 2.06972 8.83688 2.14576V2.75298C8.83688 2.86083 8.92434 2.9483 9.03219 2.9483C9.14004 2.9483 9.2275 2.86083 9.2275 2.75298V1.97138C9.2275 1.86353 9.14004 1.77607 9.03219 1.77607C8.74221 1.77607 8.50633 1.54015 8.50633 1.25019C8.50633 1.14234 8.41887 1.05488 8.31102 1.05488H6.49313C6.38528 1.05488 6.29782 1.14234 6.29782 1.25019C6.29782 1.54017 6.06192 1.77607 5.77196 1.77607C5.66411 1.77607 5.57665 1.86353 5.57665 1.97138V5.85944H5.19517V0.390839L9.6091 0.390624V9.60936ZM7.40211 5.54409C7.1021 5.54409 6.85803 5.30001 6.85803 5.00001C6.85803 4.70001 7.10212 4.45591 7.40211 4.45591C7.70211 4.45591 7.9462 4.69999 7.9462 4.99999C7.9462 5.29999 7.70213 5.54409 7.40211 5.54409Z" fill="#3E3F3F"/>
</svg>
