<svg viewBox="0 0 30 30" fill="none" xmlns="http://www.w3.org/2000/svg">
<g clip-path="url(#clip0)">
<path d="M28.0051 15.3886C27.8844 15.1417 27.8844 14.8584 28.0051 14.6115L29.124 12.3225C29.7469 11.0481 29.2534 9.52902 28.0003 8.8641L25.7497 7.67008C25.5069 7.54123 25.3404 7.31207 25.2929 7.04143L24.8528 4.53192C24.6077 3.13464 23.3151 2.19608 21.9109 2.39448L19.3883 2.75132C19.1162 2.79005 18.8468 2.70227 18.6493 2.51114L16.8181 0.739796C15.7986 -0.246628 14.2012 -0.246569 13.1818 0.739796L11.3506 2.5112C11.153 2.70227 10.8837 2.78987 10.6116 2.75137L8.08892 2.39454C6.68478 2.19632 5.39215 3.13475 5.14705 4.53198L4.70689 7.04143C4.65943 7.31213 4.49291 7.54129 4.25016 7.67008L1.99958 8.86422C0.746433 9.52902 0.252841 11.0481 0.875867 12.3226L1.99477 14.6115C2.11547 14.8584 2.11547 15.1417 1.99477 15.3886L0.875867 17.6776C0.252899 18.952 0.746492 20.4711 1.99958 21.136L4.2501 22.33C4.49291 22.4589 4.65943 22.688 4.70689 22.9587L5.14705 25.4682C5.39215 26.8655 6.68466 27.8038 8.08892 27.6056L10.6116 27.2488C10.8838 27.2102 11.1531 27.2979 11.3506 27.489L13.1817 29.2603C13.6916 29.7536 14.3456 30.0002 14.9999 30.0001C15.654 30.0001 16.3084 29.7535 16.818 29.2604L18.6492 27.489C18.8468 27.2979 19.116 27.2103 19.3882 27.2488L21.9109 27.6056C22.037 27.6234 22.1619 27.6321 22.2856 27.6321C23.5388 27.632 24.6297 26.74 24.8528 25.4682L25.2929 22.9588C25.3404 22.6881 25.5069 22.4589 25.7497 22.3301L28.0003 21.136C29.2534 20.4712 29.747 18.9521 29.124 17.6776L28.0051 15.3886Z" fill="#E51D13"/>
<path d="M29.124 12.3226C29.747 11.0481 29.2534 9.52908 28.0003 8.86416L25.7498 7.67014C25.5069 7.54129 25.3404 7.31213 25.293 7.04149L24.8528 4.53198C24.6077 3.1347 23.3151 2.19615 21.9109 2.39455L19.3883 2.75138C19.1162 2.79011 18.8468 2.70234 18.6493 2.51121L16.8181 0.739862C16.3083 0.246621 15.6541 0 14.9999 0V29.9999C15.654 29.9999 16.3084 29.7533 16.818 29.2602L18.6492 27.4888C18.8468 27.2977 19.116 27.2101 19.3882 27.2486L21.9109 27.6055C22.037 27.6233 22.1619 27.6319 22.2856 27.6319C23.5388 27.6318 24.6297 26.7398 24.8528 25.4681L25.293 22.9586C25.3404 22.6879 25.5069 22.4588 25.7497 22.33L28.0003 21.1358C29.2534 20.471 29.747 18.9519 29.124 17.6774L28.0051 15.3886C27.8844 15.1417 27.8844 14.8584 28.0051 14.6114L29.124 12.3226Z" fill="#B50400"/>
<path d="M10.9626 10.6743C10.4848 10.6743 10.0974 11.0617 10.0974 11.5394V14.7958L8.27586 11.1525C8.09644 10.7936 7.69367 10.6052 7.30326 10.6974C6.91273 10.7897 6.63687 11.1382 6.63687 11.5394V18.4605C6.63687 18.9383 7.02423 19.3256 7.50201 19.3256C7.97978 19.3256 8.36714 18.9383 8.36714 18.4605V15.2042L10.1887 18.8474C10.3377 19.1453 10.6403 19.3257 10.9623 19.3257C11.0282 19.3257 11.0949 19.3181 11.1613 19.3025C11.5518 19.2103 11.8277 18.8617 11.8277 18.4605V11.5394C11.8277 11.0617 11.4404 10.6743 10.9626 10.6743Z" fill="#FDC377"/>
<path d="M16.7302 12.4045C17.2079 12.4045 17.5953 12.0171 17.5953 11.5393C17.5953 11.0616 17.2079 10.6742 16.7302 10.6742H13.2696C12.7919 10.6742 12.4045 11.0616 12.4045 11.5393V18.4604C12.4045 18.9382 12.7919 19.3255 13.2696 19.3255H16.7302C17.2079 19.3255 17.5953 18.9382 17.5953 18.4604C17.5953 17.9826 17.2079 17.5953 16.7302 17.5953H14.1348V15.865H16.1534C16.6312 15.865 17.0186 15.4776 17.0186 14.9999C17.0186 14.5221 16.6312 14.1347 16.1534 14.1347H14.1348V12.4045H16.7302Z" fill="#FDC377"/>
<path d="M17.0185 14.9999C17.0185 14.5221 16.6311 14.1348 16.1533 14.1348H14.9998V15.865H16.1533C16.6312 15.865 17.0185 15.4777 17.0185 14.9999Z" fill="#FFB255"/>
<path d="M16.7316 10.6743H15.0013V12.4046H16.7316C17.2093 12.4046 17.5967 12.0172 17.5967 11.5395C17.5967 11.0617 17.2094 10.6743 16.7316 10.6743Z" fill="#FFB255"/>
<path d="M17.5952 18.4605C17.5952 17.9827 17.2079 17.5953 16.7301 17.5953H14.9998V19.3256H16.7301C17.2079 19.3257 17.5952 18.9384 17.5952 18.4605Z" fill="#FFB255"/>
<path d="M22.4976 10.6743C22.0198 10.6743 21.6325 11.0617 21.6325 11.5395V14.7958L21.5412 14.6132C21.3946 14.3201 21.0951 14.1349 20.7673 14.1349C20.4396 14.1349 20.1401 14.3201 19.9935 14.6132L19.9022 14.7958V11.5395C19.9022 11.0617 19.5148 10.6743 19.0371 10.6743C18.5593 10.6743 18.1719 11.0617 18.1719 11.5395V18.4605C18.1719 18.8618 18.4478 19.2103 18.8383 19.3025C19.229 19.3948 19.6314 19.2064 19.8109 18.8474L20.7673 16.9345L21.7238 18.8474C21.8728 19.1453 22.1754 19.3258 22.4974 19.3258C22.5633 19.3257 22.63 19.3182 22.6964 19.3025C23.0869 19.2103 23.3627 18.8618 23.3627 18.4605V11.5395C23.3627 11.0617 22.9754 10.6743 22.4976 10.6743Z" fill="#FFB255"/>
</g>
<defs>
<clipPath id="clip0">
<path d="M0 0H30V30H0V0Z" fill="white"/>
</clipPath>
</defs>
</svg>
