<svg width="20" height="20" viewBox="0 0 20 20" fill="none" xmlns="http://www.w3.org/2000/svg">
<g clip-path="url(#clip0)">
<path d="M19.8443 14.0255C19.8234 13.9129 19.7984 13.7961 19.7609 13.6835C19.4022 12.6825 18.3762 12.0819 17.3294 12.2613C16.9832 12.3155 16.6579 12.0778 16.6037 11.7316L16.0781 8.36167C15.6402 5.50474 13.5757 3.16498 10.798 2.38089C10.5436 0.833561 9.08805 -0.213284 7.54073 0.0369575C6.01425 0.287199 4.9674 1.71358 5.18845 3.24422C2.79447 4.75819 1.52658 7.55256 1.97284 10.3553L2.54006 13.9462C2.59011 14.2924 2.35655 14.6177 2.01038 14.6719C0.959364 14.8221 0.166931 15.7063 0.129395 16.7698C0.116883 17.9501 1.06363 18.9135 2.24394 18.926C2.25228 18.926 2.26062 18.926 2.26479 18.926C2.3774 18.926 2.48584 18.9177 2.59845 18.901L4.78806 18.5549C5.5513 19.9145 7.26963 20.4025 8.63345 19.6392C9.35081 19.2347 9.85963 18.5423 10.0223 17.7332L18.0676 16.4653C19.2312 16.2818 20.0278 15.1891 19.8443 14.0255ZM7.24461 18.5799C6.94432 18.5799 6.6482 18.484 6.4063 18.3046L8.39989 17.9918C8.13297 18.363 7.70338 18.5799 7.24461 18.5799ZM9.16313 2.14316C8.8962 2.13482 8.63345 2.14316 8.36652 2.16401C8.08709 2.18904 7.81182 2.23492 7.53655 2.29331C7.47816 2.30582 7.41978 2.3225 7.36139 2.33501C7.13617 2.38923 6.91929 2.44762 6.70241 2.52269C6.68156 2.52686 6.65654 2.53103 6.63568 2.53938C6.78583 2.00136 7.23626 1.60097 7.7868 1.51756C7.86187 1.50504 7.93694 1.50087 8.01201 1.50087C8.48747 1.50504 8.93374 1.74277 9.19649 2.14316H9.16313Z" fill="#BD1700"/>
</g>
<defs>
<clipPath id="clip0">
<path d="M0 0H20V20H0V0Z" fill="white"/>
</clipPath>
</defs>
</svg>
