<?xml version="1.0"?>
<svg xmlns="http://www.w3.org/2000/svg" id="Layer_5" enable-background="new 0 0 64 64"  viewBox="0 0 64 64" ><g><path d="m48 25c2.757 0 5-2.243 5-5s-2.243-5-5-5-5 2.243-5 5 2.243 5 5 5zm0-8c1.654 0 3 1.346 3 3s-1.346 3-3 3-3-1.346-3-3 1.346-3 3-3z" data-original="#000000" class="active-path" data-old_color="#000000" fill="#3E3F3F"/><path d="m38.548 16.75-1.548.54v5.42l1.548.54c.134.392.291.771.468 1.138l-.711 1.475 3.833 3.832 1.474-.712c.366.179.746.335 1.136.469l.542 1.548h5.42l.541-1.549c.391-.134.771-.29 1.136-.469l1.474.712 3.833-3.832-.711-1.475c.178-.366.334-.746.468-1.138l1.549-.539v-5.42l-1.548-.54c-.134-.392-.291-.771-.468-1.138l.711-1.475-3.833-3.832-1.475.711c-.365-.178-.745-.334-1.136-.468l-.541-1.548h-5.42l-.541 1.549c-.392.134-.771.29-1.137.468l-1.474-.711-3.833 3.832.711 1.475c-.177.366-.334.745-.468 1.137zm1.766 1.053c.17-.597.404-1.164.695-1.686l.253-.454-.538-1.115 1.825-1.824 1.114.537.454-.252c.52-.29 1.087-.523 1.686-.694l.499-.143.408-1.172h2.58l.409 1.172.499.143c.598.17 1.165.404 1.687.694l.453.252 1.114-.537 1.825 1.824-.538 1.115.253.454c.291.521.525 1.089.695 1.686l.143.499 1.17.408v2.58l-1.171.408-.143.499c-.17.597-.404 1.164-.695 1.686l-.253.454.538 1.115-1.824 1.824-1.114-.538-.454.252c-.522.292-1.09.525-1.686.695l-.499.143-.409 1.172h-2.58l-.409-1.172-.499-.143c-.596-.17-1.164-.403-1.686-.695l-.454-.252-1.114.538-1.824-1.824.538-1.115-.253-.454c-.291-.521-.525-1.089-.695-1.686l-.143-.499-1.171-.408v-2.58l1.171-.408z" data-original="#000000" class="active-path" data-old_color="#000000" fill="#3E3F3F"/><path d="m22.41 25.673 10.637-6.648c.47 8.535 5.709 16.101 13.634 19.497l1.319.566 1.319-.565c8.311-3.562 13.681-11.706 13.681-20.748v-11.775h-1.19c-4.803 0-9.479-1.693-13.17-4.769l-.64-.533-.64.533c-3.691 3.076-8.367 4.769-13.17 4.769h-1.19v5.074c-.383.078-.752.214-1.087.421l-10.026 6.17c-1.197.736-2.547 1.16-3.938 1.281 1.266-1.267 2.051-3.017 2.051-4.946 0-3.859-3.14-7-7-7s-7 3.141-7 7c0 2.236 1.058 4.226 2.696 5.509-4.456 1.406-7.696 5.577-7.696 10.491v8c0 2.757 2.243 5 5 5v16c0 2.206 1.794 4 4 4s4-1.794 4-4v-17h6v9c0 .732.212 1.409.556 2h-2.556v8h-2v2h44v-2h-2v-20h-12v20h-2v-14h-12v14h-2v-8h-2.556c.344-.591.556-1.268.556-2v-12c0-2.757-2.243-5-5-5h-2.001l.001-5.783c0-1.041.527-1.992 1.41-2.544zm25.59-22.391c3.729 2.883 8.29 4.533 13 4.703v9.79c0 8.24-4.894 15.663-12.469 18.909l-.531.228-.531-.228c-7.566-3.242-12.456-10.652-12.468-18.881l.43-.268c.982-.614 1.569-1.672 1.569-2.831v-.366c0-1.364-.825-2.536-2-3.053v-3.3c4.71-.17 9.271-1.82 13-4.703zm-36 17.718h3.622l-2.622 3.371-2.514-3.233c.493-.084.997-.138 1.514-.138zm-4-7c0-2.757 2.243-5 5-5s5 2.243 5 5-2.243 5-5 5-5-2.243-5-5zm40 29h8v18h-8zm-14 6h8v12h-8zm-6 12h-8v-6h8zm-5-25c1.654 0 3 1.346 3 3v12c0 1.103-.897 2-2 2s-2-.897-2-2v-9c0-1.103-.897-2-2-2h-6v-4h-2v23c0 1.103-.897 2-2 2s-2-.897-2-2v-33h-2v15c-1.654 0-3-1.346-3-3v-8c0-3.692 2.236-6.869 5.424-8.255l4.576 5.884 5.212-6.701c1.669-.159 3.286-.676 4.722-1.56l10.026-6.17c.211-.13.454-.198.702-.198.737 0 1.338.601 1.338 1.338v.366c0 .465-.235.889-.629 1.135l-13.021 8.139c-1.472.918-2.35 2.503-2.35 4.239l-.001 7.783z" data-original="#000000" class="active-path" data-old_color="#000000" fill="#3E3F3F"/><path d="m52 45h2v2h-2z" data-original="#000000" class="active-path" data-old_color="#000000" fill="#3E3F3F"/><path d="m52 49h2v2h-2z" data-original="#000000" class="active-path" data-old_color="#000000" fill="#3E3F3F"/><path d="m52 53h2v2h-2z" data-original="#000000" class="active-path" data-old_color="#000000" fill="#3E3F3F"/><path d="m38 51h2v2h-2z" data-original="#000000" class="active-path" data-old_color="#000000" fill="#3E3F3F"/><path d="m38 55h2v2h-2z" data-original="#000000" class="active-path" data-old_color="#000000" fill="#3E3F3F"/><path d="m24 57h2v2h-2z" data-original="#000000" class="active-path" data-old_color="#000000" fill="#3E3F3F"/></g> </svg>
