<svg width="50" height="50" viewBox="0 0 50 50" fill="none" xmlns="http://www.w3.org/2000/svg">
<g clip-path="url(#clip0)">
<path d="M10.544 28.4436C10.3623 28.2618 10.1112 28.1572 9.8533 28.1572C9.59636 28.1572 9.34421 28.2618 9.16257 28.4436C8.98083 28.6252 8.87634 28.8772 8.87634 29.1342C8.87634 29.3922 8.98093 29.6433 9.16257 29.8259C9.34431 30.0076 9.59636 30.1111 9.8533 30.1111C10.1102 30.1111 10.3624 30.0076 10.544 29.8259C10.7258 29.6432 10.8302 29.3922 10.8302 29.1342C10.8302 28.8772 10.7258 28.6252 10.544 28.4436Z" fill="url(#paint0_linear)"/>
<path d="M19.7575 28.4436C19.5759 28.2618 19.3238 28.1572 19.0668 28.1572C18.8099 28.1572 18.5577 28.2618 18.3761 28.4436C18.1943 28.6252 18.0898 28.8772 18.0898 29.1342C18.0898 29.3922 18.1943 29.6433 18.3761 29.8259C18.5578 30.0076 18.8099 30.1111 19.0668 30.1111C19.3237 30.1111 19.5759 30.0076 19.7575 29.8259C19.9393 29.6432 20.0438 29.3911 20.0438 29.1342C20.0438 28.8772 19.9393 28.6252 19.7575 28.4436Z" fill="url(#paint1_linear)"/>
<path d="M17.9655 33.808C17.4442 33.6683 16.9087 33.9785 16.7694 34.4997C16.4902 35.5448 15.5407 36.2748 14.4602 36.2748C13.3798 36.2748 12.4303 35.5448 12.151 34.4997C12.0117 33.9783 11.4763 33.6681 10.9549 33.808C10.4336 33.9473 10.1239 34.4827 10.2632 35.004C10.7704 36.9028 12.4963 38.2289 14.4603 38.2289C16.4242 38.2289 18.15 36.9028 18.6573 35.004C18.7964 34.4828 18.4867 33.9472 17.9655 33.808Z" fill="url(#paint2_linear)"/>
<path d="M25.0118 3.90527C24.4722 3.90527 24.0348 4.34268 24.0348 4.88232V11.0849C24.0348 11.6245 24.4722 12.0619 25.0118 12.0619C25.5515 12.0619 25.9889 11.6245 25.9889 11.0849V4.88232C25.9889 4.34268 25.5515 3.90527 25.0118 3.90527Z" fill="url(#paint3_linear)"/>
<path d="M25.703 13.8468C25.5211 13.6641 25.2691 13.5605 25.0122 13.5605C24.7543 13.5605 24.5031 13.6642 24.3205 13.8468C24.1388 14.0285 24.0353 14.2806 24.0353 14.5375C24.0353 14.7944 24.1389 15.0466 24.3205 15.2282C24.5032 15.41 24.7543 15.5145 25.0122 15.5145C25.2692 15.5145 25.5213 15.41 25.703 15.2282C25.8846 15.0465 25.9892 14.7944 25.9892 14.5375C25.9892 14.2806 25.8846 14.0285 25.703 13.8468Z" fill="url(#paint4_linear)"/>
<path d="M19.0579 12.7878L16.5636 10.2956C16.182 9.91428 15.5632 9.91448 15.1819 10.2962C14.8005 10.678 14.8007 11.2965 15.1824 11.678L17.6768 14.1702C17.8675 14.3609 18.1174 14.4561 18.3673 14.4561C18.6175 14.4561 18.8678 14.3605 19.0585 14.1697C19.4399 13.7878 19.4397 13.1693 19.0579 12.7878Z" fill="url(#paint5_linear)"/>
<path d="M34.8438 10.2986C34.462 9.91716 33.8434 9.91746 33.462 10.2991L30.8102 12.9531C30.4288 13.3348 30.4291 13.9535 30.8107 14.3348C31.0014 14.5256 31.2513 14.6208 31.5012 14.6208C31.7514 14.6208 32.0016 14.5253 32.1923 14.3343L34.8442 11.6803C35.2257 11.2986 35.2254 10.68 34.8438 10.2986Z" fill="url(#paint6_linear)"/>
<path d="M49.5057 27.8853C47.442 20.1834 39.4973 15.5966 31.7956 17.6605C29.1522 18.3688 26.817 19.7771 24.993 21.7272C22.2639 18.8205 18.4869 17.1743 14.4602 17.1743C6.48682 17.1743 0 23.6612 0 31.6346C0 39.6079 6.48682 46.0947 14.4602 46.0947C18.4907 46.0947 22.2737 44.4435 25.0038 41.5298C27.7071 44.3961 31.5195 46.0898 35.5415 46.0898C36.7768 46.0898 38.0322 45.9299 39.2808 45.5954C46.9824 43.5317 51.5693 35.5868 49.5057 27.8853ZM14.4602 44.1406C7.56416 44.1406 1.954 38.5304 1.954 31.6345C1.954 24.7386 7.56416 19.1283 14.4602 19.1283C18.03 19.1283 21.3733 20.6243 23.7461 23.2574C23.4869 23.624 23.2426 24.004 23.0152 24.3977C21.084 27.7427 20.571 31.6396 21.5707 35.3703C22.0294 37.0825 22.7788 38.6405 23.7516 40.006C21.3783 42.6425 18.0312 44.1406 14.4602 44.1406ZM38.775 43.7079C32.1142 45.4922 25.243 41.5256 23.4582 34.8648C22.5937 31.6381 23.0373 28.2678 24.7075 25.3749C25.0157 24.8411 25.359 24.3357 25.7339 23.8604C25.7501 23.8417 25.7651 23.8224 25.7798 23.8028C27.4331 21.7321 29.694 20.2466 32.3013 19.548C33.3814 19.2586 34.4666 19.1204 35.5353 19.1204C41.0563 19.1204 46.1227 22.8104 47.618 28.391C49.4029 35.052 45.4358 41.9231 38.775 43.7079Z" fill="url(#paint7_linear)"/>
<path d="M32.6764 29.7117C32.3741 28.583 31.2102 27.9105 30.081 28.2131C28.9523 28.5157 28.2801 29.6799 28.5826 30.8086C28.6996 31.2451 29.0943 31.5331 29.5258 31.5331C29.6093 31.5331 29.6946 31.5222 29.7792 31.4995C30.3005 31.3597 30.6097 30.8242 30.47 30.3029C30.4464 30.215 30.4988 30.1242 30.5867 30.1007C30.6412 30.0862 30.6849 30.1016 30.712 30.1172C30.7389 30.1328 30.7743 30.1629 30.7889 30.2174C30.9286 30.7386 31.4641 31.048 31.9855 30.9082C32.5069 30.7686 32.8161 30.233 32.6764 29.7117Z" fill="url(#paint8_linear)"/>
<path d="M41.5205 27.3421C41.3739 26.7953 41.0233 26.3384 40.5331 26.0553C40.0429 25.7724 39.4718 25.6971 38.9251 25.8437C38.3783 25.9901 37.9213 26.3407 37.6384 26.831C37.3554 27.3212 37.2801 27.8922 37.4267 28.4391C37.5437 28.8756 37.9384 29.1635 38.3698 29.1635C38.4534 29.1634 38.5387 29.1526 38.6233 29.1299C39.1445 28.9901 39.4538 28.4545 39.3142 27.9332C39.2996 27.8787 39.315 27.8351 39.3307 27.808C39.3463 27.781 39.3763 27.7457 39.4309 27.7311C39.4854 27.7166 39.5292 27.7321 39.5562 27.7477C39.5831 27.7632 39.6184 27.7933 39.633 27.8478C39.7727 28.369 40.3082 28.6784 40.8296 28.5387C41.3509 28.399 41.6602 27.8634 41.5205 27.3421Z" fill="url(#paint9_linear)"/>
<path d="M40.6644 33.4725C40.5247 32.9513 39.9889 32.6419 39.4677 32.7816C38.9465 32.9214 38.6373 33.4569 38.7769 33.9782C39.1093 35.2189 38.3704 36.4989 37.1297 36.8313C36.5285 36.9925 35.9007 36.9097 35.362 36.5986C34.823 36.2874 34.4376 35.7851 34.2766 35.1841C34.1369 34.6629 33.6012 34.3532 33.0799 34.4932C32.5588 34.633 32.2495 35.1686 32.3891 35.6898C32.6853 36.7951 33.3941 37.7188 34.385 38.2909C35.045 38.672 35.7776 38.8667 36.5199 38.8667C36.8921 38.8667 37.2666 38.8179 37.6356 38.7188C39.917 38.1075 41.2757 35.7539 40.6644 33.4725Z" fill="url(#paint10_linear)"/>
</g>
<defs>
<linearGradient id="paint0_linear" x1="9.86154" y1="30.0694" x2="9.86154" y2="28.199" gradientUnits="userSpaceOnUse">
<stop stop-color="#E93E3A"/>
<stop offset="0.328125" stop-color="#ED683C"/>
<stop offset="0.651042" stop-color="#F3903F"/>
<stop offset="1" stop-color="#FDC70C"/>
</linearGradient>
<linearGradient id="paint1_linear" x1="19.075" y1="30.0694" x2="19.075" y2="28.199" gradientUnits="userSpaceOnUse">
<stop stop-color="#E93E3A"/>
<stop offset="0.328125" stop-color="#ED683C"/>
<stop offset="0.651042" stop-color="#F3903F"/>
<stop offset="1" stop-color="#FDC70C"/>
</linearGradient>
<linearGradient id="paint2_linear" x1="14.4959" y1="38.1337" x2="14.4959" y2="33.8696" gradientUnits="userSpaceOnUse">
<stop stop-color="#E93E3A"/>
<stop offset="0.328125" stop-color="#ED683C"/>
<stop offset="0.651042" stop-color="#F3903F"/>
<stop offset="1" stop-color="#FDC70C"/>
</linearGradient>
<linearGradient id="paint3_linear" x1="25.0201" y1="11.8876" x2="25.0201" y2="4.07956" gradientUnits="userSpaceOnUse">
<stop stop-color="#E93E3A"/>
<stop offset="0.328125" stop-color="#ED683C"/>
<stop offset="0.651042" stop-color="#F3903F"/>
<stop offset="1" stop-color="#FDC70C"/>
</linearGradient>
<linearGradient id="paint4_linear" x1="25.0205" y1="15.4727" x2="25.0205" y2="13.6023" gradientUnits="userSpaceOnUse">
<stop stop-color="#E93E3A"/>
<stop offset="0.328125" stop-color="#ED683C"/>
<stop offset="0.651042" stop-color="#F3903F"/>
<stop offset="1" stop-color="#FDC70C"/>
</linearGradient>
<linearGradient id="paint5_linear" x1="17.139" y1="14.3611" x2="17.139" y2="10.1048" gradientUnits="userSpaceOnUse">
<stop stop-color="#E93E3A"/>
<stop offset="0.328125" stop-color="#ED683C"/>
<stop offset="0.651042" stop-color="#F3903F"/>
<stop offset="1" stop-color="#FDC70C"/>
</linearGradient>
<linearGradient id="paint6_linear" x1="32.8467" y1="14.5223" x2="32.8467" y2="10.1112" gradientUnits="userSpaceOnUse">
<stop stop-color="#E93E3A"/>
<stop offset="0.328125" stop-color="#ED683C"/>
<stop offset="0.651042" stop-color="#F3903F"/>
<stop offset="1" stop-color="#FDC70C"/>
</linearGradient>
<linearGradient id="paint7_linear" x1="25.2109" y1="45.4766" x2="25.2109" y2="17.7841" gradientUnits="userSpaceOnUse">
<stop stop-color="#E93E3A"/>
<stop offset="0.328125" stop-color="#ED683C"/>
<stop offset="0.651042" stop-color="#F3903F"/>
<stop offset="1" stop-color="#FDC70C"/>
</linearGradient>
<linearGradient id="paint8_linear" x1="30.6278" y1="31.4606" x2="30.6278" y2="28.2131" gradientUnits="userSpaceOnUse">
<stop stop-color="#E93E3A"/>
<stop offset="0.328125" stop-color="#ED683C"/>
<stop offset="0.651042" stop-color="#F3903F"/>
<stop offset="1" stop-color="#FDC70C"/>
</linearGradient>
<linearGradient id="paint9_linear" x1="39.4715" y1="29.091" x2="39.4715" y2="25.843" gradientUnits="userSpaceOnUse">
<stop stop-color="#E93E3A"/>
<stop offset="0.328125" stop-color="#ED683C"/>
<stop offset="0.651042" stop-color="#F3903F"/>
<stop offset="1" stop-color="#FDC70C"/>
</linearGradient>
<linearGradient id="paint10_linear" x1="36.6189" y1="38.736" x2="36.6189" y2="32.8788" gradientUnits="userSpaceOnUse">
<stop stop-color="#E93E3A"/>
<stop offset="0.328125" stop-color="#ED683C"/>
<stop offset="0.651042" stop-color="#F3903F"/>
<stop offset="1" stop-color="#FDC70C"/>
</linearGradient>
<clipPath id="clip0">
<rect width="50" height="50" fill="white"/>
</clipPath>
</defs>
</svg>
