<svg width="13" height="15" viewBox="0 0 13 15" fill="none" xmlns="http://www.w3.org/2000/svg">
<path d="M12.1958 3.16066L5.10439 0.274414L6.06442 3.16066L5.10132 6.04383L12.1958 3.16066Z" fill="white"/>
<path d="M12.4748 3.16059C12.4748 3.14218 12.4717 3.12685 12.4687 3.11151C12.4687 3.10538 12.4656 3.10231 12.4656 3.09618C12.4625 3.08391 12.4595 3.07471 12.4564 3.06244C12.4533 3.0563 12.4533 3.05324 12.4503 3.0471C12.4441 3.03177 12.438 3.0195 12.4288 3.00416C12.4288 3.00416 12.4288 3.00416 12.4257 3.00109C12.4165 2.98882 12.4073 2.97656 12.3981 2.96735C12.3951 2.96429 12.392 2.96122 12.3889 2.95815C12.3797 2.94895 12.3705 2.94282 12.3613 2.93668C12.3583 2.93361 12.3521 2.93055 12.3491 2.92748C12.3399 2.92135 12.3276 2.91521 12.3153 2.90908C12.3123 2.90601 12.3092 2.90601 12.3061 2.90294L5.21473 0.0197665C5.11351 -0.0201073 5.00003 0.0013632 4.92028 0.0749762C4.84053 0.148589 4.81293 0.262076 4.84667 0.366361L5.77603 3.16366L4.84053 5.96095C4.80679 6.06523 4.8344 6.17872 4.91414 6.25233C4.96629 6.30141 5.03377 6.32901 5.10431 6.32901C5.13805 6.32901 5.17486 6.32288 5.2086 6.30754L12.3061 3.42437C12.3061 3.42437 12.3061 3.42437 12.3092 3.42437C12.3123 3.42437 12.3153 3.4213 12.3184 3.41823C12.3307 3.4121 12.3429 3.40596 12.3521 3.39983C12.3552 3.39676 12.3613 3.3937 12.3644 3.39063C12.3736 3.38449 12.3828 3.37529 12.392 3.36916C12.3951 3.36609 12.3981 3.36302 12.4012 3.35996C12.4135 3.34769 12.4227 3.33542 12.4319 3.32315C12.4411 3.31088 12.4472 3.29555 12.4533 3.28021C12.4564 3.27407 12.4564 3.27101 12.4595 3.26487C12.4625 3.2526 12.4656 3.2434 12.4687 3.23113C12.4687 3.225 12.4717 3.22193 12.4717 3.2158C12.4717 3.19433 12.4748 3.17592 12.4748 3.16059ZM5.55826 0.758964L10.7756 2.88147H6.26372L5.55826 0.758964ZM6.26372 3.43664H10.7725L5.55519 5.55915L6.26372 3.43664Z" fill="#3E3F3F"/>
<path d="M3.69342 14.9967C3.76703 14.9967 3.83758 14.966 3.88972 14.9139C3.94186 14.8618 3.97253 14.7912 3.97253 14.7176C3.97253 14.644 3.94186 14.5734 3.88972 14.5213C3.83758 14.4691 3.76703 14.4385 3.69342 14.4385C3.61981 14.4385 3.54926 14.4691 3.49712 14.5213C3.44498 14.5734 3.41431 14.644 3.41431 14.7176C3.41431 14.7912 3.44498 14.8618 3.49712 14.9139C3.54926 14.9691 3.61981 14.9967 3.69342 14.9967Z" fill="#3E3F3F"/>
<path d="M11.3093 14.1931C11.3798 14.1931 11.4473 14.1686 11.5025 14.1165C11.613 14.0091 11.616 13.8343 11.5087 13.7239C11.4013 13.6134 11.2265 13.6104 11.1161 13.7147C11.0056 13.822 11.0026 13.9968 11.1069 14.1073C11.1621 14.1625 11.2357 14.1931 11.3093 14.1931Z" fill="#3E3F3F"/>
<path d="M11.7633 13.3806C11.8031 13.4021 11.8461 13.4113 11.889 13.4113C11.9902 13.4113 12.0884 13.3561 12.1375 13.2579C12.208 13.1199 12.1528 12.9543 12.0148 12.8837C11.8767 12.8132 11.7111 12.8684 11.6406 13.0064C11.57 13.1444 11.6252 13.3101 11.7633 13.3806Z" fill="#3E3F3F"/>
<path d="M11.9196 10.5616C12.0515 10.4819 12.0914 10.3101 12.0116 10.1813C11.9319 10.0494 11.7601 10.0096 11.6282 10.0893C11.4963 10.169 11.4565 10.3408 11.5362 10.4727C11.5883 10.5586 11.6804 10.6046 11.7724 10.6046C11.8245 10.6015 11.8736 10.5893 11.9196 10.5616Z" fill="#3E3F3F"/>
<path d="M11.8613 11.2856C11.8889 11.4175 12.0055 11.5064 12.1313 11.5064C12.1497 11.5064 12.1711 11.5034 12.1895 11.5003C12.3398 11.4696 12.4349 11.3224 12.4042 11.1721C12.3736 11.0218 12.2263 10.9267 12.076 10.9574C11.9257 10.9881 11.8307 11.1353 11.8613 11.2856Z" fill="#3E3F3F"/>
<path d="M11.3492 9.7673C11.4473 9.64768 11.4289 9.47286 11.3093 9.37471C11.1897 9.27656 11.0149 9.29496 10.9167 9.41458C10.8185 9.5342 10.837 9.70903 10.9566 9.80717C11.0087 9.85011 11.0701 9.86852 11.1314 9.86852C11.2142 9.86852 11.294 9.83478 11.3492 9.7673Z" fill="#3E3F3F"/>
<path d="M0.528067 6.51599C0.549538 6.65401 0.669159 6.75523 0.804116 6.75523C0.816385 6.75523 0.831721 6.75523 0.84399 6.75216C0.99735 6.73069 1.10164 6.5896 1.08017 6.43624C1.05869 6.28288 0.917603 6.17859 0.764243 6.20006C0.610882 6.22154 0.506597 6.36263 0.528067 6.51599Z" fill="#3E3F3F"/>
<path d="M1.30719 4.35093C1.1753 4.27425 1.00354 4.31719 0.926859 4.44908C0.850179 4.58097 0.89312 4.75274 1.02501 4.82942C1.06795 4.85396 1.11703 4.86623 1.1661 4.86623C1.26118 4.86623 1.3532 4.81715 1.40534 4.7282C1.48509 4.59938 1.44215 4.42761 1.30719 4.35093Z" fill="#3E3F3F"/>
<path d="M1.69974 8.44834C1.77336 8.44834 1.85004 8.41766 1.90218 8.35939C2.00646 8.2459 2.00033 8.07106 1.88684 7.96677C1.77336 7.86249 1.59852 7.86862 1.49424 7.98211C1.38995 8.0956 1.39609 8.27043 1.50958 8.37472C1.56478 8.4238 1.63226 8.44834 1.69974 8.44834Z" fill="#3E3F3F"/>
<path d="M2.626 8.4485C2.48491 8.38716 2.32235 8.45157 2.261 8.59267C2.19966 8.73376 2.26407 8.89632 2.40516 8.95767C2.44197 8.973 2.47877 8.97914 2.51558 8.97914C2.62293 8.97914 2.72415 8.91779 2.77016 8.81044C2.8315 8.67241 2.76709 8.50985 2.626 8.4485Z" fill="#3E3F3F"/>
<path d="M2.00638 3.66676C1.90823 3.5502 1.73033 3.53487 1.61378 3.63608C1.49722 3.73423 1.48189 3.91213 1.58311 4.02869C1.63832 4.0931 1.71806 4.12684 1.79474 4.12684C1.85916 4.12684 1.9205 4.10536 1.97571 4.05936C2.0892 3.95814 2.10453 3.78331 2.00638 3.66676Z" fill="#3E3F3F"/>
<path d="M0.770407 5.77375C0.78881 5.77682 0.807214 5.77988 0.82255 5.77988C0.951372 5.77988 1.07099 5.68787 1.09553 5.55291C1.12314 5.40262 1.02498 5.2554 0.874692 5.22779C0.724399 5.20019 0.577174 5.29834 0.549569 5.44863C0.521964 5.59892 0.620114 5.74615 0.770407 5.77375Z" fill="#3E3F3F"/>
<path d="M1.10775 7.67835C1.1507 7.67835 1.1967 7.66915 1.23658 7.64768C1.37153 7.57714 1.42368 7.40844 1.35313 7.27348C1.28259 7.13853 1.11389 7.08639 0.978931 7.15693C0.843973 7.22748 0.791831 7.39617 0.862377 7.53113C0.911452 7.62314 1.00654 7.67835 1.10775 7.67835Z" fill="#3E3F3F"/>
<path d="M12.4503 12.2366C12.4687 12.0833 12.3613 11.9453 12.208 11.9269C12.0546 11.9085 11.9166 12.0158 11.8982 12.1661C11.8798 12.3195 11.9871 12.4575 12.1374 12.4759C12.1497 12.4789 12.162 12.4789 12.1742 12.4789C12.3122 12.4789 12.4319 12.3777 12.4503 12.2366Z" fill="#3E3F3F"/>
<path d="M5.41718 8.66309C5.26382 8.66309 5.13806 8.78578 5.13806 8.94221C5.13806 9.09557 5.26382 9.22132 5.41718 9.22132C5.57054 9.22132 5.69629 9.09557 5.69629 8.94221C5.69322 8.78578 5.57054 8.66309 5.41718 8.66309Z" fill="#3E3F3F"/>
<path d="M8.30652 14.721C8.30652 14.8744 8.42921 15.0001 8.58564 15.0001C8.739 15.0001 8.86476 14.8744 8.86476 14.721C8.86476 14.5677 8.739 14.4419 8.58564 14.4419C8.43228 14.4419 8.30652 14.5677 8.30652 14.721Z" fill="#3E3F3F"/>
<path d="M5.37122 14.721C5.37122 14.8744 5.4939 15.0001 5.65033 15.0001C5.80369 15.0001 5.92944 14.8744 5.92944 14.721C5.92944 14.5677 5.80369 14.4419 5.65033 14.4419C5.49697 14.4419 5.37122 14.5677 5.37122 14.721Z" fill="#3E3F3F"/>
<path d="M8.34943 8.66309C8.19607 8.66309 8.07031 8.78578 8.07031 8.94221C8.07031 9.09557 8.19607 9.22132 8.34943 9.22132C8.50279 9.22132 8.62855 9.09557 8.62855 8.94221C8.62855 8.78578 8.50586 8.66309 8.34943 8.66309Z" fill="#3E3F3F"/>
<path d="M6.39557 8.66309C6.24221 8.66309 6.11646 8.78578 6.11646 8.94221C6.11646 9.09557 6.23914 9.22132 6.39557 9.22132C6.54893 9.22132 6.67468 9.09557 6.67468 8.94221C6.67161 8.78578 6.54893 8.66309 6.39557 8.66309Z" fill="#3E3F3F"/>
<path d="M4.39575 14.721C4.39575 14.8744 4.51844 15.0001 4.67487 15.0001C4.82823 15.0001 4.95398 14.8744 4.95398 14.721C4.95398 14.5677 4.82823 14.4419 4.67487 14.4419C4.51844 14.4419 4.39575 14.5677 4.39575 14.721Z" fill="#3E3F3F"/>
<path d="M6.34961 14.721C6.34961 14.8744 6.47536 15.0001 6.62872 15.0001C6.78208 15.0001 6.90784 14.8744 6.90784 14.721C6.90784 14.5677 6.78515 14.4419 6.62872 14.4419C6.47536 14.4419 6.34961 14.5677 6.34961 14.721Z" fill="#3E3F3F"/>
<path d="M7.328 14.721C7.328 14.8744 7.45069 15.0001 7.60711 15.0001C7.76047 15.0001 7.88316 14.8744 7.88316 14.721C7.88316 14.5677 7.76047 14.4419 7.60711 14.4419C7.45376 14.4419 7.328 14.5677 7.328 14.721Z" fill="#3E3F3F"/>
<path d="M7.37409 8.66309C7.22073 8.66309 7.09497 8.78578 7.09497 8.94221C7.09497 9.09557 7.21766 9.22132 7.37409 9.22132C7.52745 9.22132 7.65321 9.09557 7.65321 8.94221C7.65014 8.78578 7.52745 8.66309 7.37409 8.66309Z" fill="#3E3F3F"/>
<path d="M4.15955 8.93928C4.15955 9.09264 4.2853 9.2184 4.43866 9.2184C4.59202 9.2184 4.71777 9.09264 4.71777 8.93928C4.71777 8.78591 4.59509 8.66016 4.43866 8.66016C4.2853 8.66322 4.15955 8.78591 4.15955 8.93928Z" fill="#3E3F3F"/>
<path d="M3.86211 3.15441C3.85904 3.00105 3.73022 2.87836 3.57686 2.8845C3.4235 2.88756 3.30388 3.01639 3.30694 3.16975C3.31001 3.32311 3.43883 3.44273 3.59219 3.43966C3.74555 3.43353 3.86824 3.30777 3.86211 3.15441Z" fill="#3E3F3F"/>
<path d="M3.18424 8.91478C3.17504 9.06815 3.28852 9.20004 3.44188 9.2123C3.44802 9.2123 3.45415 9.2123 3.46029 9.2123C3.60444 9.2123 3.72713 9.10188 3.73633 8.95466C3.74554 8.8013 3.63205 8.66941 3.47869 8.65714C3.32533 8.64487 3.19344 8.76142 3.18424 8.91478Z" fill="#3E3F3F"/>
<path d="M2.88979 3.24956C2.83458 3.1054 2.67508 3.03485 2.53093 3.09006C2.38677 3.14527 2.31622 3.30477 2.37143 3.44893C2.41437 3.55935 2.51866 3.62682 2.63214 3.62682C2.66588 3.62682 2.69962 3.62069 2.73029 3.60842C2.87445 3.55321 2.945 3.39372 2.88979 3.24956Z" fill="#3E3F3F"/>
<path d="M10.5486 9.20604C10.6008 9.06188 10.5272 8.90238 10.3799 8.85024C10.2358 8.7981 10.0763 8.87171 10.0242 9.01587C9.97202 9.16003 10.0456 9.31953 10.1929 9.37167C10.2235 9.38394 10.2573 9.387 10.2879 9.387C10.4014 9.39007 10.5088 9.31953 10.5486 9.20604Z" fill="#3E3F3F"/>
<path d="M9.331 8.66309C9.17764 8.66309 9.05188 8.78577 9.05188 8.93913C9.05188 9.09249 9.17457 9.21824 9.32793 9.21824C9.32793 9.21824 9.32793 9.21824 9.331 9.21824C9.48436 9.21824 9.60705 9.09555 9.61012 8.9422C9.60705 8.78884 9.48436 8.66309 9.331 8.66309Z" fill="#3E3F3F"/>
<path d="M10.5027 14.7393C10.5426 14.7393 10.5794 14.7301 10.6192 14.7148C10.7603 14.6503 10.8217 14.4847 10.7573 14.3467C10.6928 14.2056 10.5303 14.1443 10.3892 14.2087C10.2481 14.2731 10.1868 14.4387 10.2512 14.5767C10.2972 14.678 10.3984 14.7393 10.5027 14.7393Z" fill="#3E3F3F"/>
<path d="M9.28497 14.733C9.29723 14.8771 9.41992 14.9876 9.56101 14.9876C9.57021 14.9876 9.57635 14.9876 9.58555 14.9876C9.73891 14.9753 9.85239 14.8403 9.83706 14.687C9.82479 14.5336 9.68983 14.4201 9.53647 14.4355C9.38618 14.4447 9.2727 14.5796 9.28497 14.733Z" fill="#3E3F3F"/>
<path d="M4.77315 3.35677C4.82529 3.30462 4.85289 3.23408 4.85289 3.16046C4.85289 3.08685 4.82222 3.0163 4.77315 2.96416C4.721 2.91202 4.65046 2.88135 4.57685 2.88135C4.50323 2.88135 4.43269 2.91202 4.38054 2.96416C4.3284 3.0163 4.29773 3.08685 4.29773 3.16046C4.29773 3.23408 4.3284 3.30462 4.38054 3.35677C4.43269 3.40891 4.50323 3.43958 4.57685 3.43958C4.65046 3.43651 4.721 3.40891 4.77315 3.35677Z" fill="#3E3F3F"/>
</svg>
