<svg width="20" height="20" viewBox="0 0 20 20" fill="none" xmlns="http://www.w3.org/2000/svg">
<g clip-path="url(#clip0)">
<path d="M14.2106 0C15.2764 0 16.1404 0.864012 16.1404 1.92982C16.1404 2.99564 15.2764 3.85965 14.2106 3.85965C13.1448 3.85965 12.2808 2.99564 12.2808 1.92982C12.2819 0.864493 13.1453 0.00116028 14.2106 0ZM6.28533 12.927C6.08787 12.7898 5.8761 12.6744 5.65375 12.5828L6.62463 9.25368C6.64077 9.26351 6.6541 9.27684 6.67094 9.28632C6.86175 9.39472 7.07556 9.45629 7.2948 9.46597L6.28533 12.927ZM1.29165 18.4807C1.10992 18.4202 1.01029 18.2252 1.06779 18.0425L2.10533 14.7554C2.35551 13.9626 2.98897 13.3496 3.78958 13.1256C4.5902 12.9015 5.44981 13.0967 6.07515 13.6446L5.0734 17.0789C4.53237 16.7682 3.86666 16.7695 3.3269 17.0825C2.78713 17.3955 2.45526 17.9726 2.45621 18.5965C2.45794 18.6916 2.46756 18.7865 2.48498 18.88L1.29165 18.4807ZM4.21059 19.6491C3.62924 19.6491 3.15796 19.1778 3.15796 18.5965C3.15796 18.0151 3.62924 17.5439 4.21059 17.5439C4.79195 17.5439 5.26322 18.0151 5.26322 18.5965C5.26322 19.1778 4.79195 19.6491 4.21059 19.6491ZM18.2457 9.47368H16.1404C15.9431 9.4731 15.755 9.39018 15.6215 9.24491L14.0776 7.54316C13.9911 7.44798 13.8595 7.40773 13.7346 7.43824C13.6097 7.46876 13.5115 7.56515 13.4787 7.68947L12.5029 11.3877C12.4678 11.5206 12.5137 11.6618 12.6201 11.7488L15.1815 13.8421C15.315 13.9524 15.4044 14.1071 15.4334 14.2779L16.1352 18.8393C16.1951 19.2232 15.9325 19.583 15.5487 19.643C15.1648 19.703 14.805 19.4404 14.745 19.0565L14.1053 14.8905C14.0922 14.8047 14.0477 14.7268 13.9804 14.6719L11.5418 12.6793C11.451 12.6052 11.3293 12.5813 11.2172 12.6156C11.1052 12.65 11.0176 12.7379 10.9839 12.8502L9.09235 19.1484C9.03328 19.403 8.83769 19.6036 8.58474 19.6691C8.33179 19.7346 8.06339 19.6542 7.88817 19.4604C7.71295 19.2665 7.65994 18.9914 7.75059 18.7463L11.4664 6.35684C11.5014 6.23997 11.4732 6.11329 11.3919 6.02232C11.3106 5.93135 11.1878 5.88915 11.0678 5.91088L9.38007 6.21614C9.27803 6.23463 9.18939 6.29732 9.13796 6.38737L7.97621 8.42105C7.88489 8.5829 7.73245 8.70134 7.55305 8.74982C7.17893 8.84927 6.79451 8.62888 6.69129 8.25579C6.64199 8.07604 6.66729 7.884 6.76147 7.72316L8.16498 5.26386C8.26646 5.08541 8.44214 4.96143 8.64428 4.92561L12.4762 4.22807C12.7155 4.17652 12.9645 4.25153 13.1355 4.42667C13.149 4.44399 13.1642 4.45997 13.1808 4.47439L16.3464 7.95719C16.4129 8.0303 16.5072 8.07197 16.606 8.07193H18.2457C18.6332 8.07193 18.9474 8.38612 18.9474 8.77368C18.9474 9.16125 18.6332 9.47544 18.2457 9.47544V9.47368Z" fill="#BD1700"/>
</g>
<defs>
<clipPath id="clip0">
<path d="M0 0H20V20H0V0Z" fill="white"/>
</clipPath>
</defs>
</svg>
