<svg width="20" height="20" viewBox="0 0 20 20" fill="none" xmlns="http://www.w3.org/2000/svg">
<g clip-path="url(#clip0)">
<path d="M7.67764 5.33801L6.3443 7.67134C6.16639 7.9777 6.11895 8.34268 6.21264 8.68434C6.22981 8.74127 6.25086 8.79695 6.27564 8.85101L5.2303 12.435C3.75316 12.1723 2.31142 13.0501 1.86664 14.483L0.878971 17.6057C0.714309 18.127 0.998773 18.6839 1.51764 18.856L3.2633 19.4403C3.8472 20.098 4.84244 20.1869 5.53357 19.6429C6.22469 19.099 6.37231 18.1108 5.8703 17.3887L8.17797 9.47534C8.37666 9.35994 8.54159 9.19443 8.6563 8.99534L9.68264 7.20001L10.5983 7.03334L7.22464 18.283C7.12234 18.621 7.15872 18.9859 7.32574 19.297C7.49277 19.6082 7.77672 19.8401 8.11497 19.9417C8.23965 19.9803 8.36944 20 8.49997 20C9.08769 19.9967 9.60485 19.6113 9.77597 19.049L11.429 13.544L13.26 15.0403L13.8473 18.871C13.9459 19.5226 14.5076 20.0033 15.1666 20C15.235 20.0007 15.3033 19.9948 15.3706 19.9827C16.0978 19.87 16.5966 19.1901 16.486 18.4627L15.8193 14.126C15.766 13.8029 15.5974 13.51 15.3446 13.3017L13.078 11.4477L13.7933 8.73534L14.849 9.89867C15.1022 10.1744 15.459 10.3319 15.8333 10.3333H17.8333C18.5697 10.3333 19.1666 9.73639 19.1666 9.00001C19.1666 8.26363 18.5697 7.66667 17.8333 7.66667H16.4243L14 5.00001C15.1703 5.00281 16.1868 4.19524 16.4488 3.05454C16.7107 1.91385 16.1482 0.743749 15.0938 0.23575C14.0395 -0.272249 12.7739 0.0171108 12.045 0.932826C11.3161 1.84854 11.3181 3.14679 12.0496 4.06034L8.5933 4.68867C8.2065 4.75769 7.87072 4.99581 7.67764 5.33801ZM6.47097 12.9473C6.28338 12.817 6.08221 12.7073 5.87097 12.6203L6.7933 9.45767C6.80864 9.46701 6.8213 9.47967 6.8373 9.48867C7.01857 9.59166 7.22169 9.65015 7.42997 9.65934L6.47097 12.9473ZM1.72697 18.2233C1.55433 18.1659 1.45968 17.9806 1.5143 17.807L2.49997 14.6843C2.87552 13.4727 4.15623 12.7889 5.37197 13.151C5.70141 13.2473 6.00768 13.41 6.27197 13.629L5.3203 16.8917C5.07126 16.7462 4.78839 16.6686 4.49997 16.6667C3.57995 16.6678 2.83441 17.4133 2.8333 18.3333C2.83495 18.4237 2.84409 18.5138 2.86064 18.6027L1.72697 18.2233ZM4.49997 19.3333C3.94769 19.3333 3.49997 18.8856 3.49997 18.3333C3.49997 17.7811 3.94769 17.3333 4.49997 17.3333C5.05226 17.3333 5.49997 17.7811 5.49997 18.3333C5.49997 18.8856 5.05226 19.3333 4.49997 19.3333ZM14 0.666674C15.0125 0.666674 15.8333 1.48749 15.8333 2.50001C15.8333 3.51253 15.0125 4.33334 14 4.33334C12.9874 4.33334 12.1666 3.51253 12.1666 2.50001C12.1677 1.48794 12.9879 0.667776 14 0.666674ZM12.3536 4.68167C12.581 4.63271 12.8175 4.70396 12.98 4.87034C12.9928 4.88679 13.0072 4.90197 13.023 4.91567L16.0303 8.22434C16.0935 8.2938 16.1831 8.33337 16.277 8.33334H17.8333C18.2015 8.33334 18.5 8.63182 18.5 9.00001C18.5 9.3682 18.2015 9.66667 17.8333 9.66667H15.8333C15.6459 9.66612 15.4672 9.58734 15.3403 9.44934L13.8736 7.83267C13.7915 7.74226 13.6665 7.70401 13.5478 7.733C13.4291 7.76199 13.3358 7.85357 13.3046 7.97167L12.3776 11.485C12.3444 11.6113 12.3879 11.7454 12.489 11.828L14.9223 13.8167C15.0492 13.9215 15.1341 14.0684 15.1616 14.2307L15.8283 18.564C15.8545 18.7406 15.8092 18.9204 15.7025 19.0635C15.5958 19.2067 15.4364 19.3014 15.2596 19.3267C15.2289 19.3317 15.1978 19.3339 15.1666 19.3333C14.8385 19.3318 14.5593 19.0935 14.5063 18.7697L13.9 14.8127C13.8875 14.7312 13.8452 14.6572 13.7813 14.605L11.4646 12.712C11.3784 12.6416 11.2627 12.6189 11.1563 12.6515C11.0498 12.6841 10.9667 12.7677 10.9346 12.8743L9.13764 18.8577C9.03141 19.2097 8.6602 19.4093 8.30797 19.3037C8.13895 19.2532 7.997 19.1375 7.91349 18.9821C7.82999 18.8267 7.81181 18.6445 7.86297 18.4757L11.393 6.70567C11.4262 6.59464 11.3994 6.4743 11.3222 6.38788C11.2449 6.30146 11.1284 6.26137 11.0143 6.28201L9.41097 6.57201C9.31403 6.58958 9.22983 6.64913 9.18097 6.73467L8.0773 8.66667C7.96707 8.88861 7.74283 9.03109 7.49509 9.03661C7.24734 9.04213 7.01698 8.90978 6.89697 8.69298C6.77695 8.47617 6.7871 8.21069 6.9233 8.00367L8.25664 5.66734C8.35304 5.49781 8.51994 5.38003 8.71197 5.34601L12.3536 4.68167Z" fill="#3E3F3F"/>
</g>
<defs>
<clipPath id="clip0">
<path d="M0 0H20V20H0V0Z" fill="white"/>
</clipPath>
</defs>
</svg>
