<svg width="10" height="10" viewBox="0 0 10 10" fill="none" xmlns="http://www.w3.org/2000/svg">
<defs>
<clipPath id="clip0">
<rect width="10" height="10" fill="white"/>
</clipPath>
</defs>
<g clip-path="url(#clip0)">
<path d="M6.41343 5.1777C6.523 5.14604 6.77957 5.07174 6.89883 4.72097L7.14455 3.99838L7.24338 4.03195C7.28863 4.04736 7.33822 4.02293 7.35362 3.97769L7.48545 3.59001C7.50086 3.54477 7.47643 3.49519 7.43114 3.47981L4.24573 2.39669C4.20051 2.38131 4.15087 2.40576 4.13549 2.45098L4.00366 2.83864C3.9883 2.88386 4.01275 2.93345 4.05795 2.94886L4.15679 2.98247L3.90666 3.71821C3.78855 4.06554 3.86669 4.18283 4.01489 4.36034L4.65948 5.13223L4.58763 5.34353C4.34098 5.39705 3.69645 5.53749 3.60969 5.56255C3.50014 5.59425 3.24351 5.66847 3.12423 6.01928L2.9127 6.64145L2.81384 6.60786C2.76864 6.59247 2.71898 6.61688 2.70358 6.66212L2.57181 7.04978C2.55641 7.09502 2.58086 7.1446 2.6261 7.16002L5.81153 8.24316C5.85672 8.25852 5.90635 8.2341 5.92175 8.18883L6.0535 7.80124C6.06892 7.75599 6.0445 7.70638 5.99921 7.69097L5.90042 7.65736L6.11637 7.02204C6.23449 6.67475 6.15641 6.5574 6.00817 6.37998L5.36362 5.60807L5.43541 5.39676C5.68207 5.34326 6.32661 5.20284 6.41343 5.1777ZM5.06724 5.74111L5.76818 6.5804C5.82195 6.6448 5.85043 6.67996 5.85816 6.71215C5.86745 6.7508 5.85503 6.81926 5.8203 6.92131L5.60431 7.55667L3.20881 6.74215L3.4203 6.12001C3.48709 5.92364 3.60816 5.88859 3.69653 5.86301C3.76565 5.84303 4.35857 5.71304 4.74025 5.63047C4.79388 5.61888 4.83756 5.57993 4.85524 5.52795L4.98385 5.14973C5.00138 5.09808 4.99079 5.04105 4.95584 4.99918L4.25702 4.1624L4.2549 4.15983C4.20111 4.09543 4.17262 4.06027 4.16492 4.02806C4.15565 3.98941 4.16801 3.92101 4.20275 3.8189L4.4529 3.08316L6.84846 3.89768L6.60272 4.62028C6.53597 4.81669 6.41494 4.85171 6.32654 4.87728C6.25747 4.89728 5.66453 5.02732 5.28289 5.10982C5.22924 5.12143 5.18551 5.16034 5.16782 5.21236L5.03925 5.59054C5.02168 5.64221 5.03233 5.6992 5.06724 5.74111Z" fill="#0DAEE1"/>
<path d="M6.95969 8.72352C6.88977 8.76314 6.81767 8.80108 6.74552 8.83625C6.73385 8.84196 6.72258 8.8482 6.71169 8.85493C6.70011 8.85895 6.6886 8.86362 6.67717 8.86894C6.36401 9.01495 6.03746 9.11776 5.70106 9.17738C5.69676 9.178 5.69245 9.17825 5.68811 9.17903C5.6088 9.19306 5.52809 9.20473 5.44826 9.21388C5.4474 9.21402 5.44651 9.21423 5.44565 9.21433C5.29906 9.2305 5.15081 9.23876 5.00103 9.23876C3.27392 9.23876 1.80101 8.13056 1.25527 6.58802C1.24705 6.56448 1.23877 6.541 1.23096 6.51742C1.10015 6.12404 1.0291 5.70362 1.0291 5.26687C1.0291 4.82921 1.10046 4.40787 1.23183 4.01377C1.23469 4.00516 1.23745 3.99661 1.24036 3.98798C1.2482 3.96504 1.25632 3.94218 1.2646 3.91938C1.26845 3.90867 1.27234 3.89802 1.27629 3.8874C1.72979 2.66679 2.7671 1.72778 4.04712 1.41105C4.04793 1.41087 4.04875 1.41081 4.04955 1.41062C4.06848 1.40593 4.08755 1.40135 4.10664 1.39695C4.10878 1.39647 4.11084 1.39569 4.1129 1.39518C4.39215 1.33117 4.68251 1.29675 4.98048 1.29523L4.98391 1.7036C4.98497 1.83038 5.06502 1.867 5.16169 1.78505L6.02432 1.05386C6.12097 0.971914 6.11994 0.839058 6.02178 0.758738L5.14705 0.0421265C5.04897 -0.0381721 4.9696 -0.000216125 4.97067 0.126544L4.97411 0.534112C3.7199 0.541053 2.54182 1.03248 1.65417 1.92009C1.56672 2.00754 1.48327 2.09787 1.40363 2.19073C1.40316 2.19126 1.40266 2.19169 1.40217 2.19227C1.39922 2.19569 1.39644 2.19925 1.39354 2.20267C0.694864 3.02252 0.30097 4.04435 0.270058 5.12837C0.269296 5.13679 0.26839 5.14515 0.268184 5.15376C0.267339 5.18993 0.266907 5.22669 0.266907 5.26304C0.266907 5.32264 0.268122 5.38304 0.270367 5.44262C0.270614 5.44961 0.27152 5.45642 0.2722 5.46328C0.312236 6.45096 0.653757 7.38476 1.25294 8.15822C1.25498 8.16087 1.25661 8.16371 1.25866 8.16637C1.31719 8.24191 1.37908 8.31675 1.44237 8.38875C1.44645 8.39339 1.45092 8.3974 1.45512 8.40181C1.51919 8.47406 1.58534 8.54482 1.65419 8.61365C2.35694 9.31642 3.24179 9.7708 4.20228 9.9331C4.20521 9.93364 4.20815 9.93422 4.21108 9.93475C4.21326 9.93508 4.21542 9.93523 4.21757 9.93556C4.47407 9.97802 4.73587 10 5.00103 10C5.6988 10 6.37093 9.85153 6.9988 9.55886C7.01233 9.55256 7.02518 9.54533 7.03756 9.53769C7.05162 9.53285 7.06544 9.5271 7.07907 9.52045C7.16522 9.4784 7.25127 9.43321 7.3347 9.38599C7.51762 9.2824 7.582 9.05017 7.47843 8.86725C7.37481 8.68431 7.14257 8.62001 6.95969 8.72352Z" fill="#0DAEE1"/>
<path d="M8.29918 3.05169C8.37264 3.16103 8.49292 3.22003 8.61539 3.22003C8.68838 3.22003 8.76224 3.19909 8.82736 3.1553C9.00181 3.03806 9.04819 2.80161 8.93095 2.62713C8.87742 2.54753 8.82087 2.46859 8.76257 2.39254C8.63488 2.22556 8.39602 2.1938 8.22906 2.32149C8.06212 2.44921 8.03032 2.68811 8.15809 2.85503C8.20692 2.9189 8.25439 2.98507 8.29918 3.05169Z" fill="#0DAEE1"/>
<path d="M8.78258 4.05102C8.80705 4.12745 8.82951 4.20581 8.84945 4.28397C8.89334 4.45614 9.04815 4.57067 9.21802 4.57067C9.24909 4.57067 9.28077 4.56682 9.31228 4.55879C9.51598 4.50689 9.63904 4.29964 9.58712 4.09598C9.56343 4.00304 9.53666 3.9098 9.5075 3.81886C9.44345 3.61868 9.22918 3.50831 9.02902 3.57244C8.82879 3.63657 8.71847 3.85084 8.78258 4.05102Z" fill="#0DAEE1"/>
<path d="M8.54014 7.82902C8.38106 7.69155 8.14079 7.709 8.0033 7.86799C7.95066 7.92887 7.89554 7.98886 7.8394 8.04628C7.69248 8.19664 7.69528 8.4376 7.84566 8.58454C7.9197 8.65689 8.01571 8.69293 8.1116 8.69293C8.21052 8.69293 8.30935 8.65458 8.38389 8.5783C8.45074 8.50986 8.51647 8.43842 8.5791 8.36591C8.71653 8.20685 8.69911 7.96649 8.54014 7.82902Z" fill="#0DAEE1"/>
<path d="M9.36386 5.01971C9.15341 5.01338 8.97829 5.17868 8.97207 5.38876C8.9697 5.46922 8.96474 5.55061 8.95737 5.63064C8.93815 5.83994 9.09228 6.02523 9.3016 6.04445C9.31342 6.04554 9.32516 6.04605 9.33684 6.04605C9.53125 6.04605 9.69731 5.89771 9.71539 5.70023C9.72416 5.60469 9.73009 5.50759 9.73293 5.41152C9.73913 5.20147 9.57399 5.02599 9.36386 5.01971Z" fill="#0DAEE1"/>
<path d="M9.19457 6.49555C8.99874 6.41888 8.77799 6.51545 8.70136 6.71122C8.67205 6.78608 8.64003 6.86115 8.60615 6.93422C8.5178 7.12492 8.60077 7.35113 8.7915 7.4395C8.84334 7.46352 8.8977 7.47487 8.95127 7.47487C9.09498 7.47487 9.23247 7.39311 9.29685 7.25417C9.33713 7.16718 9.37531 7.07791 9.41018 6.98873C9.48683 6.79302 9.39028 6.57221 9.19457 6.49555Z" fill="#0DAEE1"/>
<path d="M7.89842 1.99635C8.02353 1.82739 7.988 1.58905 7.81905 1.46395C7.74212 1.40697 7.66236 1.35163 7.582 1.29936C7.40577 1.18479 7.17003 1.23471 7.05546 1.41094C6.94091 1.58715 6.99081 1.82288 7.167 1.93749C7.23453 1.98135 7.30146 2.02788 7.36611 2.07574C7.43419 2.12613 7.51359 2.15048 7.59232 2.15048C7.7088 2.15048 7.8238 2.09716 7.89842 1.99635Z" fill="#0DAEE1"/>
</g>
</svg>
