<svg width="50" height="50" viewBox="0 0 50 50" fill="none" xmlns="http://www.w3.org/2000/svg">
<g clip-path="url(#clip0)">
<path d="M48.9697 36.0269L31.3053 6.46563C29.9562 4.23682 27.6102 2.8877 25 2.8877C22.3898 2.8877 20.0437 4.23682 18.6946 6.46563L1.03023 36.0269C-0.318601 38.3438 -0.347996 41.1006 0.971733 43.4174C2.29136 45.7341 4.66666 47.1125 7.33552 47.1125H42.6643C45.3331 47.1125 47.7085 45.7341 49.0281 43.4174C50.348 41.1006 50.3186 38.3438 48.9697 36.0269Z" fill="#E50027"/>
<path d="M49.0283 43.4173C47.7086 45.734 45.3333 47.1124 42.6645 47.1124H25V2.8877C27.6101 2.8877 29.9563 4.23682 31.3054 6.46563L48.9698 36.0269C50.3186 38.3437 50.348 41.1005 49.0283 43.4173Z" fill="#C1001F"/>
<path d="M7.33497 44.1795C5.71114 44.1795 4.32217 43.3719 3.52022 41.9657C2.71836 40.5581 2.73262 38.9299 3.56602 37.5008L21.214 7.96348C22.0216 6.62891 23.4421 5.81982 25 5.81982C26.558 5.81982 27.9786 6.62881 28.7976 7.9836L46.4485 37.5237C47.2677 38.9299 47.2819 40.5581 46.48 41.9656C45.6781 43.3719 44.289 44.1794 42.6652 44.1794H7.33497V44.1795Z" fill="#FD003A"/>
<path d="M42.6653 44.1796C44.2891 44.1796 45.6781 43.3719 46.48 41.9658C47.2819 40.5582 47.2676 38.9299 46.4486 37.5239L28.7976 7.9836C27.9784 6.62901 26.558 5.81982 25 5.81982V44.1796H42.6653Z" fill="#E50027"/>
<path d="M27.9326 14.8531V26.5838C27.9326 28.1968 26.6129 29.5164 25 29.5164C23.3871 29.5164 22.0673 28.1967 22.0673 26.5838V14.8531C22.0673 13.2401 23.387 11.9204 25 11.9204C26.613 11.9204 27.9326 13.2401 27.9326 14.8531Z" fill="#E1E4FB"/>
<path d="M27.9326 14.8531V26.5838C27.9326 28.1968 26.6129 29.5164 25 29.5164V11.9204C26.6129 11.9204 27.9326 13.2401 27.9326 14.8531Z" fill="#C5C9F7"/>
<path d="M25.0002 32.4492C22.566 32.4492 20.6012 34.414 20.6012 36.8483C20.6012 39.2822 22.5659 41.2473 25.0002 41.2473C27.4345 41.2473 29.3992 39.2823 29.3992 36.8483C29.3992 34.4141 27.4343 32.4492 25.0002 32.4492Z" fill="#E1E4FB"/>
<path d="M29.399 36.8482C29.399 39.2821 27.4343 41.2472 25 41.2472V32.4492C27.4341 32.4492 29.399 34.4141 29.399 36.8482Z" fill="#C5C9F7"/>
</g>
<defs>
<clipPath id="clip0">
<rect width="50" height="50" fill="white"/>
</clipPath>
</defs>
</svg>
